<?xml version="1.0" encoding="utf-8"?>
<!-- Generator: Adobe Illustrator 16.0.0, SVG Export Plug-In . SVG Version: 6.00 Build 0)  -->
<!DOCTYPE svg PUBLIC "-//W3C//DTD SVG 1.1//EN" "http://www.w3.org/Graphics/SVG/1.1/DTD/svg11.dtd">
<svg version="1.1" id="Layer_1" xmlns="http://www.w3.org/2000/svg" xmlns:xlink="http://www.w3.org/1999/xlink" x="0px" y="0px"
	 width="600px" height="600px" viewBox="0 0 600 600" enable-background="new 0 0 600 600" xml:space="preserve">
<path fill="#EFF8F6" d="M503.164,277.187c-11.164,0-21.864,1.956-31.797,5.526c-6.847-14.309-21.455-24.195-38.373-24.195
	c-5.526,0-10.799,1.063-15.645,2.981c-17.344-72.681-82.705-126.723-160.697-126.723c-89.701,0-162.702,71.48-165.156,160.587
	c-1.854-0.119-3.716-0.204-5.601-0.204c-46.963,0-85.03,38.071-85.03,85.034c0,41.766,30.12,76.475,69.822,83.647v1.382h432.477
	c51.923,0,94.018-42.092,94.018-94.018C597.182,319.279,555.087,277.187,503.164,277.187z"/>
</svg>
