<?xml version="1.0" encoding="utf-8"?>
<!-- Generator: Adobe Illustrator 16.0.0, SVG Export Plug-In . SVG Version: 6.00 Build 0)  -->
<!DOCTYPE svg PUBLIC "-//W3C//DTD SVG 1.1//EN" "http://www.w3.org/Graphics/SVG/1.1/DTD/svg11.dtd">
<svg version="1.1" id="Layer_1" xmlns="http://www.w3.org/2000/svg" xmlns:xlink="http://www.w3.org/1999/xlink" x="0px" y="0px"
	 width="300px" height="200px" viewBox="0 0 300 200" enable-background="new 0 0 300 200" xml:space="preserve">
<path fill="#EFF8F6" d="M251.964,90.97c-5.551,0-10.87,0.973-15.809,2.748c-3.403-7.114-10.666-12.029-19.078-12.029
	c-2.747,0-5.367,0.529-7.776,1.482c-8.624-36.134-41.119-63.002-79.895-63.002c-44.597,0-80.891,35.538-82.111,79.839
	c-0.922-0.06-1.848-0.102-2.785-0.102c-23.349,0-42.274,18.928-42.274,42.276c0,20.766,14.975,38.021,34.713,41.587v0.688h215.014
	c25.814,0,46.743-20.927,46.743-46.742C298.707,111.897,277.778,90.97,251.964,90.97z"/>
</svg>
