<?xml version="1.0" encoding="utf-8"?>
<!-- Generator: Adobe Illustrator 16.0.0, SVG Export Plug-In . SVG Version: 6.00 Build 0)  -->
<!DOCTYPE svg PUBLIC "-//W3C//DTD SVG 1.1//EN" "http://www.w3.org/Graphics/SVG/1.1/DTD/svg11.dtd">
<svg version="1.1" id="Layer_1" xmlns="http://www.w3.org/2000/svg" xmlns:xlink="http://www.w3.org/1999/xlink" x="0px" y="0px"
	 width="1200px" height="600px" viewBox="-300 0 1200 600" enable-background="new -300 0 1200 600" xml:space="preserve">
<circle fill="#FAFBFB" stroke="#FCB64E" stroke-width="21.8165" stroke-miterlimit="10" cx="302.149" cy="410.418" r="172.355"/>
<g>
	<polygon fill="#57A0D7" points="324.44,388.128 324.44,388.128 279.858,343.544 279.858,388.128 324.44,432.708 324.44,432.711 
		369.023,477.294 369.023,432.711 	"/>
	<polygon fill="#57A0D7" points="369.023,388.128 369.023,388.128 324.44,343.544 324.44,388.128 369.023,432.708 369.023,432.711 
		413.604,477.294 413.604,432.711 	"/>
	<polygon fill="#70B2E2" points="324.44,388.128 369.023,432.708 369.023,388.128 	"/>
	<polygon fill="#3D82C4" points="324.44,388.126 369.023,432.708 369.023,388.126 	"/>
	<polygon fill="#5F449B" points="235.275,388.128 235.275,388.126 190.693,343.544 190.693,388.126 235.275,432.708 
		235.275,432.711 279.858,477.294 279.858,432.711 	"/>
	<polygon fill="#5F449B" points="279.858,388.128 235.275,343.544 235.275,388.128 279.858,432.711 324.44,477.294 324.44,432.711 	
		"/>
	<polygon fill="#3A307D" points="235.275,388.128 235.275,343.544 279.858,432.711 	"/>
	<polygon fill="#3A307D" points="279.858,388.128 279.858,343.544 324.44,432.711 	"/>
</g>
<g>
	<g>
		<polyline fill="none" stroke="#434343" stroke-width="1.8183" stroke-miterlimit="10" points="-192.429,151.652 -86.109,87.649 
			75.495,163.063 		"/>
		<g>
			<polyline fill="none" stroke="#FFCB28" stroke-width="1.8183" stroke-miterlimit="10" points="89.928,178.957 -70.133,178.957 
				-70.133,163.139 89.928,163.139 			"/>
			
				<line fill="none" stroke="#FFCB28" stroke-width="1.8183" stroke-miterlimit="10" x1="-48.313" y1="179.48" x2="-48.313" y2="163.563"/>
			
				<line fill="none" stroke="#FFCB28" stroke-width="1.8183" stroke-miterlimit="10" x1="-26.494" y1="163.563" x2="-26.494" y2="179.48"/>
			
				<line fill="none" stroke="#FFCB28" stroke-width="1.8183" stroke-miterlimit="10" x1="-4.675" y1="163.563" x2="-4.675" y2="179.48"/>
			
				<line fill="none" stroke="#FFCB28" stroke-width="1.8183" stroke-miterlimit="10" x1="17.144" y1="163.563" x2="17.144" y2="179.48"/>
			
				<line fill="none" stroke="#FFCB28" stroke-width="1.8183" stroke-miterlimit="10" x1="38.964" y1="163.563" x2="38.964" y2="179.48"/>
			
				<line fill="none" stroke="#FFCB28" stroke-width="1.8183" stroke-miterlimit="10" x1="60.782" y1="163.563" x2="60.782" y2="179.48"/>
			
				<line fill="none" stroke="#FFCB28" stroke-width="1.8183" stroke-miterlimit="10" x1="-70.133" y1="163.139" x2="-48.313" y2="178.957"/>
			
				<line fill="none" stroke="#FFCB28" stroke-width="1.8183" stroke-miterlimit="10" x1="-48.313" y1="163.139" x2="-26.494" y2="178.957"/>
			
				<line fill="none" stroke="#FFCB28" stroke-width="1.8183" stroke-miterlimit="10" x1="-26.494" y1="163.139" x2="-4.675" y2="178.957"/>
			
				<line fill="none" stroke="#FFCB28" stroke-width="1.8183" stroke-miterlimit="10" x1="-4.675" y1="163.139" x2="17.144" y2="178.957"/>
			
				<line fill="none" stroke="#FFCB28" stroke-width="1.8183" stroke-miterlimit="10" x1="17.144" y1="163.139" x2="38.964" y2="178.957"/>
			
				<line fill="none" stroke="#FFCB28" stroke-width="1.8183" stroke-miterlimit="10" x1="38.964" y1="163.139" x2="60.782" y2="178.957"/>
			
				<line fill="none" stroke="#FFCB28" stroke-width="1.8183" stroke-miterlimit="10" x1="61.147" y1="163.063" x2="82.966" y2="178.883"/>
		</g>
		<g>
			
				<line fill="none" stroke="#FFCB28" stroke-width="1.8183" stroke-miterlimit="10" x1="-86.533" y1="131.288" x2="-102.45" y2="131.288"/>
			
				<line fill="none" stroke="#FFCB28" stroke-width="1.8183" stroke-miterlimit="10" x1="-86.533" y1="153.108" x2="-102.45" y2="153.108"/>
			
				<line fill="none" stroke="#FFCB28" stroke-width="1.8183" stroke-miterlimit="10" x1="-86.109" y1="131.288" x2="-101.929" y2="153.108"/>
			
				<line fill="none" stroke="#FFCB28" stroke-width="1.8183" stroke-miterlimit="10" x1="-86.109" y1="153.108" x2="-101.929" y2="174.928"/>
			<polyline fill="none" stroke="#FFCB28" stroke-width="1.8183" stroke-miterlimit="10" points="-101.929,109.47 -86.109,109.47 
				-86.109,225.891 -101.929,225.891 -101.929,109.47 -86.109,87.649 -86.109,109.47 -101.929,131.288 			"/>
		</g>
		
			<line fill="none" stroke="#FFCB28" stroke-width="1.8183" stroke-miterlimit="10" x1="-86.533" y1="174.928" x2="-102.45" y2="174.928"/>
		
			<line fill="none" stroke="#FFCB28" stroke-width="1.8183" stroke-miterlimit="10" x1="-86.533" y1="196.747" x2="-102.45" y2="196.747"/>
		
			<line fill="none" stroke="#FFCB28" stroke-width="1.8183" stroke-miterlimit="10" x1="-86.109" y1="174.928" x2="-101.929" y2="196.747"/>
		
			<line fill="none" stroke="#FFCB28" stroke-width="1.8183" stroke-miterlimit="10" x1="-86.034" y1="197.11" x2="-101.854" y2="218.929"/>
		<g>
			
				<rect x="-214.248" y="163.139" fill="none" stroke="#FFCB28" stroke-width="1.8183" stroke-miterlimit="10" width="160.061" height="15.818"/>
			
				<line fill="none" stroke="#FFCB28" stroke-width="1.8183" stroke-miterlimit="10" x1="-192.429" y1="179.48" x2="-192.429" y2="163.563"/>
			
				<line fill="none" stroke="#FFCB28" stroke-width="1.8183" stroke-miterlimit="10" x1="-170.609" y1="163.563" x2="-170.609" y2="179.48"/>
			
				<line fill="none" stroke="#FFCB28" stroke-width="1.8183" stroke-miterlimit="10" x1="-148.79" y1="163.563" x2="-148.79" y2="179.48"/>
			
				<line fill="none" stroke="#FFCB28" stroke-width="1.8183" stroke-miterlimit="10" x1="-126.971" y1="163.563" x2="-126.971" y2="179.48"/>
			
				<line fill="none" stroke="#FFCB28" stroke-width="1.8183" stroke-miterlimit="10" x1="-105.151" y1="163.563" x2="-105.151" y2="179.48"/>
			
				<line fill="none" stroke="#FFCB28" stroke-width="1.8183" stroke-miterlimit="10" x1="-83.332" y1="163.563" x2="-83.332" y2="179.48"/>
			
				<line fill="none" stroke="#FFCB28" stroke-width="1.8183" stroke-miterlimit="10" x1="-214.248" y1="163.139" x2="-192.429" y2="178.957"/>
			
				<line fill="none" stroke="#FFCB28" stroke-width="1.8183" stroke-miterlimit="10" x1="-192.429" y1="163.139" x2="-170.609" y2="178.957"/>
			
				<line fill="none" stroke="#FFCB28" stroke-width="1.8183" stroke-miterlimit="10" x1="-170.609" y1="163.139" x2="-148.79" y2="178.957"/>
			
				<line fill="none" stroke="#FFCB28" stroke-width="1.8183" stroke-miterlimit="10" x1="-148.79" y1="163.139" x2="-126.971" y2="178.957"/>
			
				<line fill="none" stroke="#FFCB28" stroke-width="1.8183" stroke-miterlimit="10" x1="-126.971" y1="163.139" x2="-105.151" y2="178.957"/>
			
				<line fill="none" stroke="#FFCB28" stroke-width="1.8183" stroke-miterlimit="10" x1="-105.151" y1="163.139" x2="-83.332" y2="178.957"/>
			
				<line fill="none" stroke="#FFCB28" stroke-width="1.8183" stroke-miterlimit="10" x1="-82.969" y1="163.063" x2="-61.149" y2="178.883"/>
		</g>
		<rect x="-118.862" y="163.063" fill="#FFD54E" width="72.536" height="27.243"/>
		<rect x="-111.438" y="198.942" fill="#FAA629" width="41.367" height="27.244"/>
		
			<rect x="-104.013" y="236.855" fill="none" stroke="#FFCB28" stroke-width="3.0481" stroke-miterlimit="10" width="26.519" height="352.189"/>
		<rect x="-110.414" y="576.243" fill="#FFCB28" width="39.32" height="23.164"/>
		<g>
			<polygon fill="#FFD54E" points="-62.674,581.259 -65.177,581.259 -62.674,583.763 			"/>
			<polygon fill="#FFD54E" points="-118.833,599.853 -116.077,599.853 -118.833,597.097 			"/>
			<polygon fill="#434343" points="-118.833,597.097 -116.077,599.853 -106.149,599.853 -118.833,587.169 			"/>
			<polygon fill="#434343" points="-62.674,583.763 -65.177,581.259 -75.104,581.259 -62.674,593.688 			"/>
			<polygon fill="#FFD54E" points="-118.833,581.259 -118.833,587.169 -106.149,599.853 -96.222,599.853 -114.815,581.259 			"/>
			<polygon fill="#FFD54E" points="-62.674,593.688 -75.104,581.259 -85.032,581.259 -66.438,599.853 -62.674,599.853 			"/>
			<polygon fill="#FFD54E" points="-104.888,581.259 -86.295,599.853 -76.366,599.853 -94.96,581.259 			"/>
			<polygon fill="#434343" points="-114.815,581.259 -96.222,599.853 -86.295,599.853 -104.888,581.259 			"/>
			<polygon fill="#434343" points="-94.96,581.259 -76.366,599.853 -66.438,599.853 -85.032,581.259 			"/>
		</g>
		
			<line fill="none" stroke="#FFCB28" stroke-width="3.0481" stroke-miterlimit="10" x1="-78.205" y1="236.855" x2="-104.888" y2="236.855"/>
		
			<line fill="none" stroke="#FFCB28" stroke-width="3.0481" stroke-miterlimit="10" x1="-104.888" y1="273.432" x2="-78.205" y2="273.432"/>
		
			<line fill="none" stroke="#FFCB28" stroke-width="3.0481" stroke-miterlimit="10" x1="-78.205" y1="310.009" x2="-104.888" y2="310.009"/>
		
			<line fill="none" stroke="#FFCB28" stroke-width="3.0481" stroke-miterlimit="10" x1="-78.205" y1="346.587" x2="-104.888" y2="346.587"/>
		
			<line fill="none" stroke="#FFCB28" stroke-width="3.0481" stroke-miterlimit="10" x1="-78.205" y1="383.163" x2="-104.888" y2="383.163"/>
		
			<line fill="none" stroke="#FFCB28" stroke-width="3.0481" stroke-miterlimit="10" x1="-78.205" y1="419.741" x2="-104.888" y2="419.741"/>
		
			<line fill="none" stroke="#FFCB28" stroke-width="3.0481" stroke-miterlimit="10" x1="-78.205" y1="456.317" x2="-104.888" y2="456.317"/>
		
			<line fill="none" stroke="#FFCB28" stroke-width="3.0481" stroke-miterlimit="10" x1="-78.205" y1="492.896" x2="-104.888" y2="492.896"/>
		
			<line fill="none" stroke="#FFCB28" stroke-width="3.0481" stroke-miterlimit="10" x1="-77.494" y1="236.855" x2="-104.013" y2="273.432"/>
		
			<line fill="none" stroke="#FFCB28" stroke-width="3.0481" stroke-miterlimit="10" x1="-77.494" y1="273.432" x2="-104.013" y2="310.009"/>
		
			<line fill="none" stroke="#FFCB28" stroke-width="3.0481" stroke-miterlimit="10" x1="-77.494" y1="310.009" x2="-104.013" y2="346.587"/>
		
			<line fill="none" stroke="#FFCB28" stroke-width="3.0481" stroke-miterlimit="10" x1="-77.494" y1="346.587" x2="-104.013" y2="383.163"/>
		
			<line fill="none" stroke="#FFCB28" stroke-width="3.0481" stroke-miterlimit="10" x1="-77.494" y1="383.163" x2="-104.013" y2="419.741"/>
		
			<line fill="none" stroke="#FFCB28" stroke-width="3.0481" stroke-miterlimit="10" x1="-77.494" y1="419.741" x2="-104.013" y2="456.317"/>
		
			<line fill="none" stroke="#FFCB28" stroke-width="3.0481" stroke-miterlimit="10" x1="-77.368" y1="456.927" x2="-103.887" y2="493.505"/>
		<rect x="-110.414" y="225.272" fill="#434343" width="39.32" height="11.583"/>
		<rect x="-117.464" y="220.395" fill="#FFCB28" width="53.42" height="11.583"/>
		<rect x="-124.053" y="188.479" fill="#FFCB28" width="83.519" height="4.281"/>
		<polygon fill="#434343" points="-70.07,198.942 -43.786,192.76 -121.499,192.76 -111.438,198.942 		"/>
		<rect x="-85.646" y="165.927" fill="#434343" width="39.32" height="16.455"/>
		<rect x="-229.313" y="151.8" fill="#434343" width="34.545" height="54.458"/>
		<rect x="-214.248" y="151.652" fill="#757576" width="10.909" height="54.459"/>
		<rect x="-203.339" y="151.8" fill="#616262" width="8.57" height="54.458"/>
		<rect x="-240.958" y="145.861" fill="#FFCB28" width="53.42" height="11.582"/>
	</g>
	<g>
		
			<rect x="82.612" y="163.149" fill="none" stroke="#FFCB28" stroke-width="1.8183" stroke-miterlimit="10" width="153.099" height="15.819"/>
		
			<line fill="none" stroke="#FFCB28" stroke-width="1.8183" stroke-miterlimit="10" x1="126.251" y1="163.574" x2="126.251" y2="179.491"/>
		
			<line fill="none" stroke="#FFCB28" stroke-width="1.8183" stroke-miterlimit="10" x1="148.069" y1="163.574" x2="148.069" y2="179.491"/>
		
			<line fill="none" stroke="#FFCB28" stroke-width="1.8183" stroke-miterlimit="10" x1="169.889" y1="163.574" x2="169.889" y2="179.491"/>
		
			<line fill="none" stroke="#FFCB28" stroke-width="1.8183" stroke-miterlimit="10" x1="191.708" y1="163.574" x2="191.708" y2="179.491"/>
		
			<line fill="none" stroke="#FFCB28" stroke-width="1.8183" stroke-miterlimit="10" x1="213.527" y1="163.574" x2="213.527" y2="179.491"/>
		
			<line fill="none" stroke="#FFCB28" stroke-width="1.8183" stroke-miterlimit="10" x1="104.431" y1="163.149" x2="126.251" y2="178.969"/>
		
			<line fill="none" stroke="#FFCB28" stroke-width="1.8183" stroke-miterlimit="10" x1="126.251" y1="163.149" x2="148.069" y2="178.969"/>
		
			<line fill="none" stroke="#FFCB28" stroke-width="1.8183" stroke-miterlimit="10" x1="148.069" y1="163.149" x2="169.889" y2="178.969"/>
		
			<line fill="none" stroke="#FFCB28" stroke-width="1.8183" stroke-miterlimit="10" x1="169.889" y1="163.149" x2="191.708" y2="178.969"/>
		
			<line fill="none" stroke="#FFCB28" stroke-width="1.8183" stroke-miterlimit="10" x1="191.708" y1="163.149" x2="213.527" y2="178.969"/>
		
			<line fill="none" stroke="#FFCB28" stroke-width="1.8183" stroke-miterlimit="10" x1="213.893" y1="163.074" x2="235.711" y2="178.894"/>
		
			<line fill="none" stroke="#FFCB28" stroke-width="1.8183" stroke-miterlimit="10" x1="104.432" y1="163.786" x2="104.432" y2="179.703"/>
		
			<line fill="none" stroke="#FFCB28" stroke-width="1.8183" stroke-miterlimit="10" x1="82.612" y1="163.361" x2="104.432" y2="179.181"/>
	</g>
	
		<line fill="none" stroke="#FFCB28" stroke-width="1.8183" stroke-miterlimit="10" x1="279.35" y1="163.574" x2="279.35" y2="179.491"/>
	
		<line fill="none" stroke="#FFCB28" stroke-width="1.8183" stroke-miterlimit="10" x1="301.169" y1="163.574" x2="301.169" y2="179.491"/>
	
		<line fill="none" stroke="#FFCB28" stroke-width="1.8183" stroke-miterlimit="10" x1="257.529" y1="163.149" x2="279.35" y2="178.969"/>
	
		<line fill="none" stroke="#FFCB28" stroke-width="1.8183" stroke-miterlimit="10" x1="279.35" y1="163.149" x2="301.169" y2="178.969"/>
	
		<line fill="none" stroke="#FFCB28" stroke-width="1.8183" stroke-miterlimit="10" x1="257.531" y1="163.786" x2="257.531" y2="179.703"/>
	
		<line fill="none" stroke="#FFCB28" stroke-width="1.8183" stroke-miterlimit="10" x1="235.711" y1="163.361" x2="257.531" y2="179.181"/>
	<polyline fill="none" stroke="#FFCB28" stroke-width="1.8183" stroke-miterlimit="10" points="301.14,163.149 301.14,178.968 
		169.889,178.968 169.889,163.149 301.14,163.149 322.958,178.968 301.14,178.968 279.319,163.149 	"/>
</g>
<line fill="none" stroke="#FFCB28" stroke-width="3.0481" stroke-miterlimit="10" x1="-77.786" y1="567.269" x2="-86.295" y2="579.003"/>
<line fill="none" stroke="#FFCB28" stroke-width="3.0481" stroke-miterlimit="10" x1="-78.624" y1="530.081" x2="-105.306" y2="530.081"/>
<line fill="none" stroke="#FFCB28" stroke-width="3.0481" stroke-miterlimit="10" x1="-78.624" y1="566.659" x2="-105.306" y2="566.659"/>
<line fill="none" stroke="#FFCB28" stroke-width="3.0481" stroke-miterlimit="10" x1="-77.913" y1="493.505" x2="-104.432" y2="530.081"/>
<line fill="none" stroke="#FFCB28" stroke-width="3.0481" stroke-miterlimit="10" x1="-77.913" y1="530.081" x2="-104.432" y2="566.659"/>
<g>
	<g>
		<rect x="282.806" y="172.556" fill="#434343" width="39.32" height="16.454"/>
		<rect x="291.113" y="177.674" fill="#E0E0E0" width="31.013" height="8.999"/>
	</g>
	<rect x="297.056" y="199.069" fill="#434343" width="10.82" height="3.759"/>
	<rect x="300.594" y="201.508" fill="#434343" width="3.744" height="6.502"/>
	<path fill="#434343" d="M302.466,205.488L302.466,205.488v2.521l0,0c1.319,0,2.388,1.068,2.388,2.387s-1.067,2.389-2.388,2.389
		c-0.659,0-1.256-0.268-1.688-0.7l-1.782,1.782c0.889,0.889,2.115,1.438,3.471,1.438c2.711,0,4.91-2.197,4.91-4.908
		C307.376,207.686,305.177,205.488,302.466,205.488z"/>
	
		<line fill="none" stroke="#434343" stroke-width="1.2192" stroke-miterlimit="10" x1="302.152" y1="188.096" x2="302.152" y2="200.949"/>
	
		<line fill="none" stroke="#434343" stroke-width="1.2192" stroke-miterlimit="10" x1="302.466" y1="211.902" x2="302.466" y2="224.755"/>
	<rect x="299.057" y="218.877" fill="#616262" width="6.818" height="14.936"/>
</g>
</svg>
