<?xml version="1.0" encoding="utf-8"?>
<!-- Generator: Adobe Illustrator 16.0.0, SVG Export Plug-In . SVG Version: 6.00 Build 0)  -->
<!DOCTYPE svg PUBLIC "-//W3C//DTD SVG 1.1//EN" "http://www.w3.org/Graphics/SVG/1.1/DTD/svg11.dtd">
<svg version="1.1" id="Layer_1" xmlns="http://www.w3.org/2000/svg" xmlns:xlink="http://www.w3.org/1999/xlink" x="0px" y="0px"
	 width="1920px" height="1280px" viewBox="0 0 1920 1280" enable-background="new 0 0 1920 1280" xml:space="preserve">
<g>
	<g>
		<g>
			<g>
				<polyline fill="none" stroke="#434343" stroke-width="1.7319" stroke-miterlimit="10" points="128.75,782.726 230.018,721.764 
					383.944,793.595 				"/>
				<g>
					<polyline fill="none" stroke="#FFCB28" stroke-width="1.7319" stroke-miterlimit="10" points="397.692,808.732 
						245.235,808.732 245.235,793.665 397.692,793.665 					"/>
					
						<line fill="none" stroke="#FFCB28" stroke-width="1.7319" stroke-miterlimit="10" x1="266.018" y1="809.23" x2="266.018" y2="794.07"/>
					
						<line fill="none" stroke="#FFCB28" stroke-width="1.7319" stroke-miterlimit="10" x1="286.8" y1="794.07" x2="286.8" y2="809.23"/>
					
						<line fill="none" stroke="#FFCB28" stroke-width="1.7319" stroke-miterlimit="10" x1="307.583" y1="794.07" x2="307.583" y2="809.23"/>
					
						<line fill="none" stroke="#FFCB28" stroke-width="1.7319" stroke-miterlimit="10" x1="328.365" y1="794.07" x2="328.365" y2="809.23"/>
					
						<line fill="none" stroke="#FFCB28" stroke-width="1.7319" stroke-miterlimit="10" x1="349.149" y1="794.07" x2="349.149" y2="809.23"/>
					
						<line fill="none" stroke="#FFCB28" stroke-width="1.7319" stroke-miterlimit="10" x1="369.929" y1="794.07" x2="369.929" y2="809.23"/>
					
						<line fill="none" stroke="#FFCB28" stroke-width="1.7319" stroke-miterlimit="10" x1="245.235" y1="793.665" x2="266.018" y2="808.732"/>
					
						<line fill="none" stroke="#FFCB28" stroke-width="1.7319" stroke-miterlimit="10" x1="266.018" y1="793.665" x2="286.8" y2="808.732"/>
					
						<line fill="none" stroke="#FFCB28" stroke-width="1.7319" stroke-miterlimit="10" x1="286.8" y1="793.665" x2="307.583" y2="808.732"/>
					
						<line fill="none" stroke="#FFCB28" stroke-width="1.7319" stroke-miterlimit="10" x1="307.583" y1="793.665" x2="328.365" y2="808.732"/>
					
						<line fill="none" stroke="#FFCB28" stroke-width="1.7319" stroke-miterlimit="10" x1="328.365" y1="793.665" x2="349.149" y2="808.732"/>
					
						<line fill="none" stroke="#FFCB28" stroke-width="1.7319" stroke-miterlimit="10" x1="349.149" y1="793.665" x2="369.929" y2="808.732"/>
					
						<line fill="none" stroke="#FFCB28" stroke-width="1.7319" stroke-miterlimit="10" x1="370.278" y1="793.595" x2="391.06" y2="808.662"/>
				</g>
				<g>
					
						<line fill="none" stroke="#FFCB28" stroke-width="1.7319" stroke-miterlimit="10" x1="229.614" y1="763.329" x2="214.454" y2="763.329"/>
					
						<line fill="none" stroke="#FFCB28" stroke-width="1.7319" stroke-miterlimit="10" x1="229.614" y1="784.112" x2="214.454" y2="784.112"/>
					
						<line fill="none" stroke="#FFCB28" stroke-width="1.7319" stroke-miterlimit="10" x1="230.018" y1="763.329" x2="214.949" y2="784.112"/>
					
						<line fill="none" stroke="#FFCB28" stroke-width="1.7319" stroke-miterlimit="10" x1="230.018" y1="784.112" x2="214.949" y2="804.896"/>
					<polyline fill="none" stroke="#FFCB28" stroke-width="1.7319" stroke-miterlimit="10" points="214.949,742.547 
						230.018,742.547 230.018,853.438 214.949,853.438 214.949,742.547 230.018,721.764 230.018,742.547 214.949,763.329 					"/>
				</g>
				
					<line fill="none" stroke="#FFCB28" stroke-width="1.7319" stroke-miterlimit="10" x1="229.614" y1="804.896" x2="214.454" y2="804.896"/>
				
					<line fill="none" stroke="#FFCB28" stroke-width="1.7319" stroke-miterlimit="10" x1="229.614" y1="825.678" x2="214.454" y2="825.678"/>
				
					<line fill="none" stroke="#FFCB28" stroke-width="1.7319" stroke-miterlimit="10" x1="230.018" y1="804.896" x2="214.949" y2="825.678"/>
				
					<line fill="none" stroke="#FFCB28" stroke-width="1.7319" stroke-miterlimit="10" x1="230.089" y1="826.023" x2="215.022" y2="846.806"/>
				<g>
					
						<rect x="107.967" y="793.665" fill="none" stroke="#FFCB28" stroke-width="1.7319" stroke-miterlimit="10" width="152.456" height="15.067"/>
					
						<line fill="none" stroke="#FFCB28" stroke-width="1.7319" stroke-miterlimit="10" x1="128.75" y1="809.23" x2="128.75" y2="794.07"/>
					
						<line fill="none" stroke="#FFCB28" stroke-width="1.7319" stroke-miterlimit="10" x1="149.533" y1="794.07" x2="149.533" y2="809.23"/>
					
						<line fill="none" stroke="#FFCB28" stroke-width="1.7319" stroke-miterlimit="10" x1="170.315" y1="794.07" x2="170.315" y2="809.23"/>
					
						<line fill="none" stroke="#FFCB28" stroke-width="1.7319" stroke-miterlimit="10" x1="191.097" y1="794.07" x2="191.097" y2="809.23"/>
					
						<line fill="none" stroke="#FFCB28" stroke-width="1.7319" stroke-miterlimit="10" x1="211.881" y1="794.07" x2="211.881" y2="809.23"/>
					
						<line fill="none" stroke="#FFCB28" stroke-width="1.7319" stroke-miterlimit="10" x1="232.664" y1="794.07" x2="232.664" y2="809.23"/>
					
						<line fill="none" stroke="#FFCB28" stroke-width="1.7319" stroke-miterlimit="10" x1="107.967" y1="793.665" x2="128.75" y2="808.732"/>
					
						<line fill="none" stroke="#FFCB28" stroke-width="1.7319" stroke-miterlimit="10" x1="128.75" y1="793.665" x2="149.533" y2="808.732"/>
					
						<line fill="none" stroke="#FFCB28" stroke-width="1.7319" stroke-miterlimit="10" x1="149.533" y1="793.665" x2="170.315" y2="808.732"/>
					
						<line fill="none" stroke="#FFCB28" stroke-width="1.7319" stroke-miterlimit="10" x1="170.315" y1="793.665" x2="191.097" y2="808.732"/>
					
						<line fill="none" stroke="#FFCB28" stroke-width="1.7319" stroke-miterlimit="10" x1="191.097" y1="793.665" x2="211.881" y2="808.732"/>
					
						<line fill="none" stroke="#FFCB28" stroke-width="1.7319" stroke-miterlimit="10" x1="211.881" y1="793.665" x2="232.664" y2="808.732"/>
					
						<line fill="none" stroke="#FFCB28" stroke-width="1.7319" stroke-miterlimit="10" x1="233.009" y1="793.595" x2="253.792" y2="808.662"/>
				</g>
				<rect x="198.821" y="793.595" fill="#FFD54E" width="69.089" height="25.95"/>
				<rect x="205.894" y="827.77" fill="#FAA629" width="39.402" height="25.95"/>
				
					<rect x="212.965" y="863.879" fill="none" stroke="#FFCB28" stroke-width="2.9033" stroke-miterlimit="10" width="25.258" height="335.457"/>
				<rect x="206.868" y="1187.142" fill="#FFCB28" width="37.452" height="22.065"/>
				<g>
					<polygon fill="#FFD54E" points="252.339,1191.92 249.956,1191.92 252.339,1194.305 					"/>
					<polygon fill="#FFD54E" points="198.849,1209.63 201.474,1209.63 198.849,1207.006 					"/>
					<polygon fill="#434343" points="198.849,1207.006 201.474,1209.63 210.93,1209.63 198.849,1197.55 					"/>
					<polygon fill="#434343" points="252.339,1194.305 249.956,1191.92 240.5,1191.92 252.339,1203.76 					"/>
					<polygon fill="#FFD54E" points="198.849,1191.92 198.849,1197.55 210.93,1209.63 220.386,1209.63 202.676,1191.92 					"/>
					<polygon fill="#FFD54E" points="252.339,1203.76 240.5,1191.92 231.044,1191.92 248.753,1209.63 252.339,1209.63 					"/>
					<polygon fill="#FFD54E" points="212.131,1191.92 229.841,1209.63 239.298,1209.63 221.587,1191.92 					"/>
					<polygon fill="#434343" points="202.676,1191.92 220.386,1209.63 229.841,1209.63 212.131,1191.92 					"/>
					<polygon fill="#434343" points="221.587,1191.92 239.298,1209.63 248.753,1209.63 231.044,1191.92 					"/>
				</g>
				
					<line fill="none" stroke="#FFCB28" stroke-width="2.9033" stroke-miterlimit="10" x1="237.546" y1="863.879" x2="212.133" y2="863.879"/>
				
					<line fill="none" stroke="#FFCB28" stroke-width="2.9033" stroke-miterlimit="10" x1="212.133" y1="898.72" x2="237.546" y2="898.72"/>
				
					<line fill="none" stroke="#FFCB28" stroke-width="2.9033" stroke-miterlimit="10" x1="237.546" y1="933.558" x2="212.133" y2="933.558"/>
				
					<line fill="none" stroke="#FFCB28" stroke-width="2.9033" stroke-miterlimit="10" x1="237.546" y1="968.398" x2="212.133" y2="968.398"/>
				
					<line fill="none" stroke="#FFCB28" stroke-width="2.9033" stroke-miterlimit="10" x1="237.546" y1="1003.237" x2="212.133" y2="1003.237"/>
				
					<line fill="none" stroke="#FFCB28" stroke-width="2.9033" stroke-miterlimit="10" x1="237.546" y1="1038.076" x2="212.133" y2="1038.076"/>
				
					<line fill="none" stroke="#FFCB28" stroke-width="2.9033" stroke-miterlimit="10" x1="237.546" y1="1072.914" x2="212.133" y2="1072.914"/>
				
					<line fill="none" stroke="#FFCB28" stroke-width="2.9033" stroke-miterlimit="10" x1="237.546" y1="1107.755" x2="212.133" y2="1107.755"/>
				
					<line fill="none" stroke="#FFCB28" stroke-width="2.9033" stroke-miterlimit="10" x1="238.223" y1="863.879" x2="212.965" y2="898.72"/>
				
					<line fill="none" stroke="#FFCB28" stroke-width="2.9033" stroke-miterlimit="10" x1="238.223" y1="898.72" x2="212.965" y2="933.558"/>
				
					<line fill="none" stroke="#FFCB28" stroke-width="2.9033" stroke-miterlimit="10" x1="238.223" y1="933.558" x2="212.965" y2="968.398"/>
				
					<line fill="none" stroke="#FFCB28" stroke-width="2.9033" stroke-miterlimit="10" x1="238.223" y1="968.398" x2="212.965" y2="1003.237"/>
				
					<line fill="none" stroke="#FFCB28" stroke-width="2.9033" stroke-miterlimit="10" x1="238.223" y1="1003.237" x2="212.965" y2="1038.076"/>
				
					<line fill="none" stroke="#FFCB28" stroke-width="2.9033" stroke-miterlimit="10" x1="238.223" y1="1038.076" x2="212.965" y2="1072.914"/>
				
					<line fill="none" stroke="#FFCB28" stroke-width="2.9033" stroke-miterlimit="10" x1="238.344" y1="1073.495" x2="213.085" y2="1108.336"/>
				<rect x="206.868" y="852.847" fill="#434343" width="37.452" height="11.032"/>
				<rect x="200.153" y="848.202" fill="#FFCB28" width="50.882" height="11.033"/>
				<rect x="193.877" y="817.802" fill="#FFCB28" width="79.549" height="4.078"/>
				<polygon fill="#434343" points="245.295,827.77 270.33,821.88 196.309,821.88 205.894,827.77 				"/>
				<rect x="230.458" y="796.321" fill="#434343" width="37.452" height="15.673"/>
				<rect x="93.619" y="782.866" fill="#434343" width="32.903" height="51.871"/>
				<rect x="107.967" y="782.726" fill="#757576" width="10.392" height="51.873"/>
				<rect x="118.357" y="782.866" fill="#616262" width="8.164" height="51.871"/>
				<rect x="82.526" y="777.209" fill="#FFCB28" width="50.882" height="11.032"/>
			</g>
			<g>
				
					<rect x="390.723" y="793.677" fill="none" stroke="#FFCB28" stroke-width="1.7319" stroke-miterlimit="10" width="145.825" height="15.067"/>
				
					<line fill="none" stroke="#FFCB28" stroke-width="1.7319" stroke-miterlimit="10" x1="432.289" y1="794.081" x2="432.289" y2="809.242"/>
				
					<line fill="none" stroke="#FFCB28" stroke-width="1.7319" stroke-miterlimit="10" x1="453.071" y1="794.081" x2="453.071" y2="809.242"/>
				
					<line fill="none" stroke="#FFCB28" stroke-width="1.7319" stroke-miterlimit="10" x1="473.853" y1="794.081" x2="473.853" y2="809.242"/>
				
					<line fill="none" stroke="#FFCB28" stroke-width="1.7319" stroke-miterlimit="10" x1="494.636" y1="794.081" x2="494.636" y2="809.242"/>
				
					<line fill="none" stroke="#FFCB28" stroke-width="1.7319" stroke-miterlimit="10" x1="515.418" y1="794.081" x2="515.418" y2="809.242"/>
				
					<line fill="none" stroke="#FFCB28" stroke-width="1.7319" stroke-miterlimit="10" x1="411.504" y1="793.677" x2="432.289" y2="808.744"/>
				
					<line fill="none" stroke="#FFCB28" stroke-width="1.7319" stroke-miterlimit="10" x1="432.289" y1="793.677" x2="453.071" y2="808.744"/>
				
					<line fill="none" stroke="#FFCB28" stroke-width="1.7319" stroke-miterlimit="10" x1="453.071" y1="793.677" x2="473.853" y2="808.744"/>
				
					<line fill="none" stroke="#FFCB28" stroke-width="1.7319" stroke-miterlimit="10" x1="473.853" y1="793.677" x2="494.636" y2="808.744"/>
				
					<line fill="none" stroke="#FFCB28" stroke-width="1.7319" stroke-miterlimit="10" x1="494.636" y1="793.677" x2="515.418" y2="808.744"/>
				
					<line fill="none" stroke="#FFCB28" stroke-width="1.7319" stroke-miterlimit="10" x1="515.765" y1="793.604" x2="536.548" y2="808.672"/>
				
					<line fill="none" stroke="#FFCB28" stroke-width="1.7319" stroke-miterlimit="10" x1="411.506" y1="794.282" x2="411.506" y2="809.442"/>
				
					<line fill="none" stroke="#FFCB28" stroke-width="1.7319" stroke-miterlimit="10" x1="390.723" y1="793.878" x2="411.506" y2="808.946"/>
			</g>
			
				<line fill="none" stroke="#FFCB28" stroke-width="1.7319" stroke-miterlimit="10" x1="578.114" y1="794.081" x2="578.114" y2="809.242"/>
			
				<line fill="none" stroke="#FFCB28" stroke-width="1.7319" stroke-miterlimit="10" x1="598.896" y1="794.081" x2="598.896" y2="809.242"/>
			
				<line fill="none" stroke="#FFCB28" stroke-width="1.7319" stroke-miterlimit="10" x1="557.33" y1="793.677" x2="578.114" y2="808.744"/>
			
				<line fill="none" stroke="#FFCB28" stroke-width="1.7319" stroke-miterlimit="10" x1="578.114" y1="793.677" x2="598.896" y2="808.744"/>
			
				<line fill="none" stroke="#FFCB28" stroke-width="1.7319" stroke-miterlimit="10" x1="557.331" y1="794.282" x2="557.331" y2="809.442"/>
			
				<line fill="none" stroke="#FFCB28" stroke-width="1.7319" stroke-miterlimit="10" x1="536.548" y1="793.878" x2="557.331" y2="808.946"/>
			<polyline fill="none" stroke="#FFCB28" stroke-width="1.7319" stroke-miterlimit="10" points="598.868,793.677 598.868,808.744 
				473.853,808.744 473.853,793.677 598.868,793.677 619.65,808.744 598.868,808.744 578.084,793.677 			"/>
		</g>
		<g>
			<g>
				<rect x="581.405" y="802.637" fill="#434343" width="37.452" height="15.673"/>
				<rect x="589.318" y="807.512" fill="#E0E0E0" width="29.539" height="8.571"/>
			</g>
			<rect x="594.979" y="827.89" fill="#434343" width="10.306" height="3.581"/>
			<rect x="598.348" y="830.212" fill="#434343" width="3.566" height="6.193"/>
			<path fill="#434343" d="M600.132,834.004L600.132,834.004v2.402l0,0c1.256,0,2.273,1.018,2.273,2.274
				c0,1.255-1.017,2.273-2.273,2.273c-0.63,0-1.197-0.255-1.609-0.666l-1.696,1.698c0.845,0.846,2.014,1.369,3.306,1.369
				c2.582,0,4.674-2.094,4.674-4.674C604.807,836.097,602.714,834.004,600.132,834.004z"/>
			
				<line fill="none" stroke="#434343" stroke-width="1.1613" stroke-miterlimit="10" x1="599.833" y1="817.438" x2="599.833" y2="829.681"/>
			
				<line fill="none" stroke="#434343" stroke-width="1.1613" stroke-miterlimit="10" x1="600.132" y1="840.112" x2="600.132" y2="852.355"/>
			<rect x="596.883" y="846.757" fill="#616262" width="6.496" height="14.226"/>
		</g>
	</g>
	
		<line fill="none" stroke="#FFCB28" stroke-width="2.9033" stroke-miterlimit="10" x1="237.945" y1="1178.594" x2="229.841" y2="1189.771"/>
	
		<line fill="none" stroke="#FFCB28" stroke-width="2.9033" stroke-miterlimit="10" x1="237.148" y1="1143.174" x2="211.733" y2="1143.174"/>
	
		<line fill="none" stroke="#FFCB28" stroke-width="2.9033" stroke-miterlimit="10" x1="237.148" y1="1178.013" x2="211.733" y2="1178.013"/>
	
		<line fill="none" stroke="#FFCB28" stroke-width="2.9033" stroke-miterlimit="10" x1="237.825" y1="1108.336" x2="212.566" y2="1143.174"/>
	
		<line fill="none" stroke="#FFCB28" stroke-width="2.9033" stroke-miterlimit="10" x1="237.825" y1="1143.174" x2="212.566" y2="1178.013"/>
</g>
<rect y="1208.823" fill="#FCD49B" width="1920" height="131.177"/>
<g id="Layer_2">
</g>
<g>
	<rect x="1487.391" y="1169.339" fill="#37474F" width="3.806" height="39.491"/>
	<rect x="1525.49" y="1169.339" fill="#37474F" width="3.805" height="39.491"/>
	<polygon fill="#FFFFFF" points="1537.113,1173.659 1534.551,1173.659 1537.113,1176.222 	"/>
	<polygon fill="#FFFFFF" points="1479.623,1192.693 1482.443,1192.693 1479.623,1189.872 	"/>
	<polygon fill="#FFFFFF" points="1479.623,1173.659 1479.623,1179.709 1492.606,1192.693 1502.77,1192.693 1483.736,1173.659 	"/>
	<polygon fill="#FFFFFF" points="1537.113,1186.385 1524.388,1173.659 1514.225,1173.659 1533.258,1192.693 1537.113,1192.693 	"/>
	<polygon fill="#FFFFFF" points="1493.899,1173.659 1512.932,1192.693 1523.097,1192.693 1504.062,1173.659 	"/>
	<polygon fill="#EF4438" points="1479.623,1189.872 1482.443,1192.693 1492.606,1192.693 1479.623,1179.709 	"/>
	<polygon fill="#EF4438" points="1483.736,1173.659 1502.77,1192.693 1512.932,1192.693 1493.899,1173.659 	"/>
	<polygon fill="#EF4438" points="1504.062,1173.659 1523.097,1192.693 1533.258,1192.693 1514.225,1173.659 	"/>
	<polygon fill="#EF4438" points="1537.113,1176.222 1534.551,1173.659 1524.388,1173.659 1537.113,1186.385 	"/>
	<rect x="1488.752" y="1200.389" fill="#37474F" width="39.492" height="3.806"/>
</g>
<g>
	<rect x="767.121" y="1169.338" fill="#37474F" width="3.805" height="39.492"/>
	<rect x="805.219" y="1169.338" fill="#37474F" width="3.804" height="39.492"/>
	<polygon fill="#FFFFFF" points="816.842,1173.658 814.28,1173.658 816.842,1176.222 	"/>
	<polygon fill="#FFFFFF" points="759.352,1192.692 762.173,1192.692 759.352,1189.871 	"/>
	<polygon fill="#FFFFFF" points="759.352,1173.658 759.352,1179.709 772.336,1192.692 782.499,1192.692 763.465,1173.658 	"/>
	<polygon fill="#FFFFFF" points="816.842,1186.383 804.116,1173.658 793.954,1173.658 812.988,1192.692 816.842,1192.692 	"/>
	<polygon fill="#FFFFFF" points="773.627,1173.658 792.661,1192.692 802.825,1192.692 783.791,1173.658 	"/>
	<polygon fill="#EF4438" points="759.352,1189.871 762.173,1192.692 772.336,1192.692 759.352,1179.709 	"/>
	<polygon fill="#EF4438" points="763.465,1173.658 782.499,1192.692 792.661,1192.692 773.627,1173.658 	"/>
	<polygon fill="#EF4438" points="783.791,1173.658 802.825,1192.692 812.988,1192.692 793.954,1173.658 	"/>
	<polygon fill="#EF4438" points="816.842,1176.222 814.28,1173.658 804.116,1173.658 816.842,1186.383 	"/>
	<rect x="768.48" y="1200.389" fill="#37474F" width="39.493" height="3.805"/>
</g>
<g>
	<rect x="145.457" y="1169.338" fill="#37474F" width="3.805" height="39.492"/>
	<rect x="183.556" y="1169.338" fill="#37474F" width="3.804" height="39.492"/>
	<polygon fill="#FFFFFF" points="195.179,1173.659 192.616,1173.659 195.179,1176.222 	"/>
	<polygon fill="#FFFFFF" points="137.688,1192.693 140.51,1192.693 137.688,1189.872 	"/>
	<polygon fill="#FFFFFF" points="137.688,1173.659 137.688,1179.709 150.672,1192.693 160.835,1192.693 141.802,1173.659 	"/>
	<polygon fill="#FFFFFF" points="195.179,1186.385 182.453,1173.659 172.291,1173.659 191.324,1192.693 195.179,1192.693 	"/>
	<polygon fill="#FFFFFF" points="151.964,1173.659 170.998,1192.693 181.162,1192.693 162.128,1173.659 	"/>
	<polygon fill="#EF4438" points="137.688,1189.872 140.51,1192.693 150.672,1192.693 137.688,1179.709 	"/>
	<polygon fill="#EF4438" points="141.802,1173.659 160.835,1192.693 170.998,1192.693 151.964,1173.659 	"/>
	<polygon fill="#EF4438" points="162.128,1173.659 181.162,1192.693 191.324,1192.693 172.291,1173.659 	"/>
	<polygon fill="#EF4438" points="195.179,1176.222 192.616,1173.659 182.453,1173.659 195.179,1186.385 	"/>
	<rect x="146.817" y="1200.389" fill="#37474F" width="39.492" height="3.806"/>
</g>
<g>
	<rect x="1402.479" y="1169.339" fill="#37474F" width="3.806" height="39.491"/>
	<rect x="1440.578" y="1169.339" fill="#37474F" width="3.806" height="39.491"/>
	<polygon fill="#FFFFFF" points="1452.201,1173.659 1449.64,1173.659 1452.201,1176.222 	"/>
	<polygon fill="#FFFFFF" points="1394.711,1192.693 1397.532,1192.693 1394.711,1189.872 	"/>
	<polygon fill="#FFFFFF" points="1394.711,1173.659 1394.711,1179.709 1407.695,1192.693 1417.858,1192.693 1398.825,1173.659 	"/>
	<polygon fill="#FFFFFF" points="1452.201,1186.385 1439.477,1173.659 1429.313,1173.659 1448.347,1192.693 1452.201,1192.693 	"/>
	<polygon fill="#FFFFFF" points="1408.988,1173.659 1428.021,1192.693 1438.186,1192.693 1419.151,1173.659 	"/>
	<polygon fill="#EF4438" points="1394.711,1189.872 1397.532,1192.693 1407.695,1192.693 1394.711,1179.709 	"/>
	<polygon fill="#EF4438" points="1398.825,1173.659 1417.858,1192.693 1428.021,1192.693 1408.988,1173.659 	"/>
	<polygon fill="#EF4438" points="1419.151,1173.659 1438.186,1192.693 1448.347,1192.693 1429.313,1173.659 	"/>
	<polygon fill="#EF4438" points="1452.201,1176.222 1449.64,1173.659 1439.477,1173.659 1452.201,1186.385 	"/>
	<rect x="1403.841" y="1200.389" fill="#37474F" width="39.492" height="3.806"/>
</g>
<g>
	<polygon fill="#FAA629" points="1367.469,1125.922 1384.862,1121.893 1387.277,1124.453 1378.822,1131.179 	"/>
	<path fill="#555356" d="M1342.562,1118.661h15.932l3.732-22.533c0,0-13.93-11.379-31.682,1.912L1342.562,1118.661z"/>
	<rect x="1386.332" y="1138.825" fill="#484A3A" width="0.789" height="2.732"/>
	<polygon fill="#645537" points="1385.553,1141.023 1387.9,1141.023 1387.9,1153.828 1385.553,1147.429 	"/>
	<polygon fill="#FFD54E" points="1387.273,1161.916 1368.681,1134.25 1352.69,1124.392 1355.297,1121.005 1379.127,1130.632 
		1390.465,1159.293 1387.2,1162.789 	"/>
	<path fill="#B0762A" d="M1378.412,1175.645l2.78-4.228l12.614,12.654v5.099h4.188v-2.367l5.781,0.228v10.516h-8.603l-4.734-3.971
		C1390.438,1193.575,1392.888,1181.927,1378.412,1175.645z"/>
	<polygon fill="#3E2723" points="1364.205,1094.217 1362.748,1119.793 1341.743,1119.793 1324.677,1092.062 1325.523,1092.062 
		1327.298,1094.217 1358.046,1095.964 	"/>
	<polygon fill="#B0762A" points="1481.204,1191.082 1461.714,1191.082 1427.054,1194.764 1418.007,1194.764 1418.007,1167.229 
		1462.724,1167.229 1481.021,1189.17 	"/>
	<polygon fill="#795722" points="1481.75,1177.653 1476.562,1177.653 1469.379,1153.896 1475.712,1153.896 1481.75,1156.65 	"/>
	<polygon fill="#5D4137" points="1473.284,1177.653 1483.845,1177.653 1483.845,1189.17 1481.021,1189.17 1473.284,1189.17 	"/>
	<path fill="#C2842B" d="M1423.053,1134.27L1423.053,1134.27c-1.514,0-2.754-1.239-2.754-2.754v-3.547
		c0-1.515,1.24-2.754,2.754-2.754c1.515,0,2.754,1.239,2.754,2.754v3.547C1425.807,1133.03,1424.567,1134.27,1423.053,1134.27"/>
	<polygon fill="#B0BEC5" points="1367.725,1138.041 1374.348,1148.248 1375.406,1147.634 1368.612,1137.664 	"/>
	<rect x="1385.873" y="1124.453" fill="#B0BEC5" width="1.707" height="14.372"/>
	<path fill="#484A3A" d="M1381.496,1162.675l-8.051-11.716c-0.889-1.293-0.558-3.078,0.736-3.967
		c1.293-0.889,3.078-0.558,3.967,0.735l8.05,11.716c0.89,1.293,0.558,3.078-0.735,3.967
		C1384.169,1164.299,1382.384,1163.969,1381.496,1162.675"/>
	<polygon fill="#FFD54E" points="1381.192,1171.417 1376.601,1169.87 1376.601,1166.138 1380.333,1166.138 1382.647,1168.191 
		1398.177,1181.978 1397.994,1189.17 1393.807,1189.17 1393.807,1184.071 	"/>
	<path fill="#912A8D" d="M1434.372,1192.814c0.006,0.085,0.007,0.171,0.014,0.256c0-0.022,0.007-0.043,0.007-0.064
		C1434.393,1192.94,1434.378,1192.879,1434.372,1192.814"/>
	<path fill="#912A8D" d="M1429.441,1193.006c0,0.196,0.028,0.387,0.071,0.57c-0.024-0.283-0.032-0.571-0.043-0.857
		C1429.458,1192.813,1429.441,1192.907,1429.441,1193.006"/>
	<g>
		<path fill="#282921" d="M1391.322,1191.749c0-9.653-7.826-17.479-17.479-17.479s-17.479,7.826-17.479,17.479
			c0,9.654,7.826,17.48,17.479,17.48S1391.322,1201.403,1391.322,1191.749"/>
		<path fill="#E6B660" d="M1384.403,1191.749c0-5.832-4.728-10.56-10.561-10.56c-5.832,0-10.561,4.728-10.561,10.56
			s4.729,10.561,10.561,10.561C1379.676,1202.31,1384.403,1197.581,1384.403,1191.749"/>
		<path fill="#B0762A" d="M1379.215,1191.749c0-2.966-2.405-5.371-5.372-5.371c-2.966,0-5.371,2.405-5.371,5.371
			c0,2.967,2.405,5.371,5.371,5.371C1376.81,1197.12,1379.215,1194.716,1379.215,1191.749"/>
	</g>
	<g>
		<path fill="#282921" d="M1461.714,1191.749c0-9.653-7.826-17.479-17.479-17.479c-9.654,0-17.48,7.826-17.48,17.479
			c0,9.654,7.826,17.48,17.48,17.48C1453.888,1209.229,1461.714,1201.403,1461.714,1191.749"/>
		<path fill="#E6B660" d="M1454.794,1191.749c0-5.832-4.728-10.561-10.56-10.561c-5.833,0-10.561,4.729-10.561,10.561
			s4.728,10.561,10.561,10.561C1450.066,1202.31,1454.794,1197.581,1454.794,1191.749"/>
		<path fill="#B0762A" d="M1449.605,1191.749c0-2.966-2.405-5.371-5.371-5.371c-2.967,0-5.371,2.405-5.371,5.371
			c0,2.967,2.404,5.371,5.371,5.371C1447.2,1197.12,1449.605,1194.716,1449.605,1191.749"/>
	</g>
	<rect x="1403.775" y="1182.934" fill="#604C1E" width="9.264" height="3.231"/>
	<rect x="1403.775" y="1191.531" fill="#604C1E" width="9.264" height="3.232"/>
	<polygon fill="#FFCB28" points="1384.977,1165.591 1382.647,1168.191 1398.177,1181.978 1397.994,1186.803 1399.998,1186.803 
		1399.998,1181.887 	"/>
	<polygon fill="#FAA629" points="1384.977,1165.591 1385.522,1163.497 1389.893,1158.763 1393.078,1158.763 1393.078,1170.233 
		1403.775,1181.432 1403.775,1187.03 1399.998,1186.803 1399.998,1181.887 	"/>
	<path fill="#A7792C" d="M1386.697,1161.042c0-1.584-1.283-2.868-2.868-2.868c-1.583,0-2.867,1.284-2.867,2.868
		c0,1.583,1.284,2.868,2.867,2.868C1385.414,1163.91,1386.697,1162.625,1386.697,1161.042"/>
	<path fill="#FFD54E" d="M1385.314,1161.042c0-0.82-0.664-1.485-1.485-1.485c-0.819,0-1.484,0.665-1.484,1.485
		c0,0.819,0.665,1.484,1.484,1.484C1384.65,1162.526,1385.314,1161.861,1385.314,1161.042"/>
	<path fill="#9A712A" d="M1370.916,1134.882c0-1.904-1.544-3.447-3.447-3.447c-1.905,0-3.448,1.543-3.448,3.447
		c0,1.905,1.543,3.449,3.448,3.449C1369.372,1138.331,1370.916,1136.787,1370.916,1134.882"/>
	<path fill="#FFD54E" d="M1369.243,1134.882c0-0.979-0.794-1.774-1.774-1.774s-1.775,0.795-1.775,1.774
		c0,0.981,0.795,1.775,1.775,1.775S1369.243,1135.863,1369.243,1134.882"/>
	<path fill="#9A712A" d="M1390.726,1121.568c0-1.904-1.543-3.448-3.448-3.448c-1.904,0-3.448,1.544-3.448,3.448
		s1.544,3.447,3.448,3.447C1389.183,1125.016,1390.726,1123.473,1390.726,1121.568"/>
	<path fill="#FFD54E" d="M1389.053,1121.568c0-0.98-0.795-1.775-1.775-1.775s-1.774,0.795-1.774,1.775
		c0,0.979,0.794,1.775,1.774,1.775S1389.053,1122.548,1389.053,1121.568"/>
	<rect x="1420.299" y="1132.635" fill="#735321" width="5.508" height="2.094"/>
	<rect x="1420.299" y="1131.452" fill="#B99456" width="5.508" height="1.183"/>
	<rect x="1430.568" y="1149.818" fill="#5C4F2E" width="27.83" height="2.049"/>
	<rect x="1446.382" y="1133.951" fill="#5D4137" width="4.644" height="15.867"/>
	<polygon fill="#5D4137" points="1452.731,1130.358 1452.731,1136.367 1446.382,1136.367 1446.382,1133.951 	"/>
	<path fill="#9A712A" d="M1355.835,1120.63c0-2.112-1.712-3.824-3.823-3.824s-3.823,1.712-3.823,3.824
		c0,2.11,1.712,3.823,3.823,3.823S1355.835,1122.74,1355.835,1120.63"/>
	<path fill="#FFD54E" d="M1353.98,1120.63c0-1.088-0.882-1.97-1.969-1.97c-1.088,0-1.969,0.882-1.969,1.97
		c0,1.086,0.881,1.968,1.969,1.968C1353.099,1122.598,1353.98,1121.716,1353.98,1120.63"/>
	<path fill="#282921" d="M1435.747,1169.289c1.087-0.414,2.212-0.752,3.368-1.005
		C1437.898,1168.524,1436.777,1168.865,1435.747,1169.289z"/>
	<path fill="#FAA629" d="M1467.309,1151.866h-36.74l-25.442,18.55v3.004h7.708v21.344h7.59c0,0,0.004-2.133,0.004-3.227
		c0-0.799,0.04-1.589,0.116-2.367c0.9-9.123,6.95-16.73,15.203-19.881c1.03-0.424,2.151-0.765,3.368-1.005
		c1.363-0.271,2.847-0.418,4.464-0.418c2.073,0,3.95,0.14,5.649,0.391c6.492,1.386,12.005,5.418,15.352,10.914
		c0.63,1.034,1.182,2.12,1.651,3.249v1.001l0.392,0.005l8.391,0.1v-4.278h2.003v-22.472
		C1476.188,1156.228,1467.309,1151.866,1467.309,1151.866z"/>
	<rect x="1442.169" y="1156.775" fill="#5D4137" width="25.229" height="1.577"/>
	<rect x="1442.169" y="1158.986" fill="#5D4137" width="25.229" height="1.576"/>
	<rect x="1442.169" y="1161.195" fill="#5D4137" width="25.229" height="1.577"/>
	<polygon fill="#546E7A" points="1401.189,1170.09 1398.278,1157.345 1403.957,1137.552 1428.933,1137.552 1431.841,1165.874 
		1427.777,1170.09 	"/>
	<g>
		<path fill="#263238" d="M1428.221,1138.34l2.799,27.251l-3.578,3.71h-25.623l-2.727-11.934l5.459-19.027H1428.221
			 M1429.645,1136.764h-1.424h-23.67h-1.188l-0.327,1.142l-5.459,19.027l-0.111,0.391l0.09,0.396l2.727,11.934l0.28,1.226h1.257
			h25.623h0.67l0.465-0.482l3.578-3.71l0.508-0.527l-0.074-0.728l-2.799-27.252L1429.645,1136.764L1429.645,1136.764z"/>
	</g>
	<polygon fill="#455B65" points="1400.133,1161.92 1430.114,1156.775 1431.02,1165.591 1427.441,1169.301 1401.818,1169.301 	"/>
	<rect x="1402.557" y="1134.729" fill="#FFD54E" width="28.463" height="2.526"/>
	<rect x="1403.185" y="1170.878" fill="#546E7A" width="19.815" height="1.025"/>
	<rect x="1406.367" y="1175.259" fill="#546E7A" width="13.451" height="1.024"/>
	<rect x="1406.367" y="1179.639" fill="#546E7A" width="13.451" height="1.025"/>
	<rect x="1406.367" y="1184.02" fill="#546E7A" width="13.451" height="1.025"/>
	<rect x="1406.367" y="1188.4" fill="#546E7A" width="13.451" height="1.024"/>
	<rect x="1406.367" y="1192.78" fill="#546E7A" width="13.451" height="1.026"/>
	<rect x="1406.367" y="1171.391" fill="#546E7A" width="1.024" height="21.463"/>
	<rect x="1418.793" y="1171.391" fill="#546E7A" width="1.025" height="21.463"/>
	<rect x="1454.783" y="1163.405" fill="#5D4137" width="12.615" height="1.576"/>
</g>
<g>
	<polygon fill="#FFD54E" points="379.226,1150.896 427.377,1088.183 454.642,1076.076 558.07,1078.128 558.07,1086.158 
		457.675,1097.21 445.141,1103.375 390.149,1152.756 	"/>
	<g>
		
			<rect x="464.938" y="1068.552" transform="matrix(-0.9989 0.0461 -0.0461 -0.9989 1071.2264 2115.2324)" fill="#B0BEC5" width="92.564" height="2.835"/>
	</g>
	<g>
		
			<rect x="463.898" y="1068.478" transform="matrix(-0.9989 0.0461 -0.0461 -0.9989 1028.3992 2118.2065)" fill="#645537" width="51.764" height="4.961"/>
	</g>
	<g>
		<polygon fill="#B0BEC5" points="410.669,1161.108 420.25,1122.672 417.573,1121.747 407.991,1160.183 		"/>
	</g>
	<g>
		<polygon fill="#645537" points="411.562,1161.896 416.921,1140.401 412.235,1138.783 406.877,1160.277 		"/>
	</g>
	<rect x="360.443" y="1166.986" fill="#B0762A" width="18.782" height="10.632"/>
	<polygon fill="#FAA629" points="361.271,1183.288 379.226,1183.288 380.998,1179.036 359.499,1179.036 	"/>
	<polygon fill="#263238" points="401.906,1134.502 418.562,1151.158 418.562,1171.357 408.758,1181.162 371.429,1181.162 
		371.429,1171.357 371.429,1134.502 	"/>
	<g>
		
			<rect x="578.801" y="1069.767" transform="matrix(-0.9848 0.1739 -0.1739 -0.9848 1345.9465 2117.4578)" fill="#B0BEC5" width="2.836" height="95.84"/>
	</g>
	<g>
		<polygon fill="#645537" points="585.554,1163.506 590.439,1162.642 588.637,1149.4 583.751,1150.264 		"/>
	</g>
	<path fill="#455B65" d="M441.899,1206.703H309.392c-5.894,0-10.672-4.778-10.672-10.673c0-5.894,4.778-10.671,10.672-10.671
		h132.508c5.894,0,10.672,4.777,10.672,10.671C452.571,1201.925,447.793,1206.703,441.899,1206.703z"/>
	<rect x="329.612" y="1133.202" fill="#263238" width="27.288" height="10.462"/>
	<rect x="317.209" y="1177.618" fill="#FAA629" width="54.22" height="3.544"/>
	<polygon fill="#5D4137" points="369.303,1148.559 359.513,1138.769 327.131,1138.769 317.209,1148.559 	"/>
	<rect x="317.209" y="1148.559" fill="#FFD54E" width="52.094" height="29.06"/>
	<g>
		<polygon fill="#546E7A" points="413.155,1153.19 400.321,1140.355 389.857,1140.355 389.857,1165.156 413.155,1165.156 		"/>
		<rect x="376.036" y="1140.355" fill="#546E7A" width="9.746" height="24.801"/>
	</g>
	<defs>
		<filter id="Adobe_OpacityMaskFilter" filterUnits="userSpaceOnUse" x="376.036" y="1154.879" width="37.119" height="10.277">
			
				<feColorMatrix  type="matrix" values="-1 0 0 0 1  0 -1 0 0 1  0 0 -1 0 1  0 0 0 1 0" color-interpolation-filters="sRGB" result="source"/>
		</filter>
	</defs>
	<mask maskUnits="userSpaceOnUse" x="376.036" y="1154.879" width="37.119" height="10.277" id="SVGID_1_">
		<g filter="url(#Adobe_OpacityMaskFilter)">
			<g>
				<polygon fill="#546E7A" points="413.155,1153.19 400.321,1140.355 389.857,1140.355 389.857,1165.156 413.155,1165.156 				"/>
				<rect x="376.036" y="1140.355" fill="#546E7A" width="9.746" height="24.801"/>
			</g>
		</g>
	</mask>
	<polygon mask="url(#SVGID_1_)" fill="#455B65" points="413.155,1159.22 376.036,1154.879 376.036,1165.156 413.155,1165.156 	"/>
	<circle fill="#263238" stroke="#B0BEC5" stroke-width="1.3948" stroke-miterlimit="10" cx="308.191" cy="1197.538" r="6.395"/>
	<path fill="#263238" d="M296.649,1196.03c0,7.027,5.716,12.743,12.743,12.743h132.508c7.027,0,12.743-5.716,12.743-12.743
		c0-7.026-5.716-12.742-12.743-12.742H309.392C302.365,1183.288,296.649,1189.004,296.649,1196.03z M298.719,1196.03
		c0-5.894,4.778-10.671,10.672-10.671h132.508c5.894,0,10.672,4.777,10.672,10.671c0,5.895-4.778,10.673-10.672,10.673H309.392
		C303.498,1206.703,298.719,1201.925,298.719,1196.03z"/>
	<path fill="#9A712A" d="M552.822,1081.928c0-2.898,2.35-5.248,5.248-5.248c2.9,0,5.249,2.35,5.249,5.248
		c0,2.899-2.349,5.25-5.249,5.25C555.172,1087.178,552.822,1084.827,552.822,1081.928"/>
	<path fill="#FFD54E" d="M555.368,1081.928c0-1.491,1.21-2.702,2.702-2.702s2.702,1.211,2.702,2.702c0,1.493-1.21,2.702-2.702,2.702
		S555.368,1083.421,555.368,1081.928"/>
	<polygon fill="#FFCB28" points="550.107,1083.433 559.388,1059.123 570.881,1055.003 574.632,1064.36 570.881,1092.945 
		578.967,1159.539 570.881,1163.48 	"/>
	<polygon fill="#FFD54E" points="454.642,1076.076 464.624,1067.288 472.665,1067.288 475.15,1076.482 	"/>
	<polygon fill="#3E2723" points="570.72,1154.521 598.932,1165.212 591.496,1188.806 565.276,1195.928 565.239,1198.004 
		554.305,1201.834 554.604,1197.205 557.655,1195.976 570.501,1162.057 	"/>
	<rect x="321.284" y="1154.879" fill="#5D4137" width="10.277" height="22.739"/>
	<rect x="335.814" y="1171.357" fill="#FFFFFF" width="28.173" height="6.084"/>
	<path fill="#9A712A" d="M582.078,1149.399c0-1.967,1.595-3.562,3.562-3.562c1.968,0,3.562,1.595,3.562,3.562
		c0,1.968-1.594,3.562-3.562,3.562C583.672,1152.962,582.078,1151.367,582.078,1149.399"/>
	<path fill="#FFD54E" d="M583.806,1149.399c0-1.012,0.82-1.834,1.833-1.834c1.013,0,1.833,0.822,1.833,1.834
		c0,1.014-0.82,1.834-1.833,1.834C584.626,1151.233,583.806,1150.413,583.806,1149.399"/>
	<g>
		
			<rect x="573.429" y="1069.985" transform="matrix(-0.9847 0.174 -0.174 -0.9847 1333.4565 2071.8662)" fill="#645537" width="4.961" height="48.797"/>
	</g>
	<path fill="#9A712A" d="M567.785,1070.958c0-1.967,1.594-3.561,3.561-3.561c1.967,0,3.561,1.594,3.561,3.561
		c0,1.968-1.594,3.562-3.561,3.562C569.379,1074.521,567.785,1072.926,567.785,1070.958"/>
	<path fill="#FFD54E" d="M569.513,1070.958c0-1.012,0.821-1.833,1.833-1.833c1.013,0,1.834,0.821,1.834,1.833
		c0,1.013-0.821,1.833-1.834,1.833C570.333,1072.791,569.513,1071.971,569.513,1070.958"/>
	<path fill="#9A712A" d="M552.266,1082.796c0-1.012,0.821-1.833,1.833-1.833c1.013,0,1.834,0.821,1.834,1.833
		c0,1.014-0.821,1.834-1.834,1.834C553.087,1084.63,552.266,1083.81,552.266,1082.796"/>
	<path fill="#9A712A" d="M469.157,1072.155c0-1.968,1.595-3.562,3.562-3.562s3.562,1.594,3.562,3.562
		c0,1.967-1.595,3.562-3.562,3.562S469.157,1074.122,469.157,1072.155"/>
	<path fill="#FFD54E" d="M470.885,1072.155c0-1.013,0.82-1.834,1.833-1.834c1.013,0,1.833,0.821,1.833,1.834
		s-0.82,1.833-1.833,1.833C471.706,1073.988,470.885,1073.168,470.885,1072.155"/>
	<g>
		<circle fill="#B0BEC5" cx="431.338" cy="1199.599" r="6.395"/>
		<circle fill="#B0BEC5" cx="418.549" cy="1199.599" r="6.395"/>
		<circle fill="#B0BEC5" cx="405.759" cy="1199.599" r="6.395"/>
		<circle fill="#B0BEC5" cx="392.969" cy="1199.599" r="6.395"/>
		<circle fill="#B0BEC5" cx="380.179" cy="1199.599" r="6.395"/>
		<circle fill="#B0BEC5" cx="367.418" cy="1199.599" r="6.395"/>
		<circle fill="#B0BEC5" cx="354.628" cy="1199.599" r="6.395"/>
		<circle fill="#B0BEC5" cx="341.839" cy="1199.599" r="6.395"/>
		<circle fill="#B0BEC5" cx="329.049" cy="1199.599" r="6.395"/>
	</g>
	<polygon fill="#263238" stroke="#B0BEC5" stroke-width="1.3948" stroke-miterlimit="10" points="447.976,1191.449 
		447.976,1198.423 442.571,1203.828 317.209,1203.828 317.209,1191.449 	"/>
	<g>
		<rect x="386.357" y="1180.124" fill="#546E7A" width="20.573" height="1.064"/>
		<rect x="389.66" y="1184.672" fill="#546E7A" width="13.966" height="1.064"/>
		<rect x="389.66" y="1189.221" fill="#546E7A" width="13.966" height="1.063"/>
		<rect x="389.66" y="1193.768" fill="#546E7A" width="13.966" height="1.064"/>
		<rect x="389.66" y="1198.316" fill="#546E7A" width="13.966" height="1.063"/>
		<rect x="389.66" y="1202.864" fill="#546E7A" width="13.966" height="1.064"/>
		<rect x="402.562" y="1180.656" fill="#546E7A" width="1.064" height="22.283"/>
		<rect x="389.66" y="1180.656" fill="#546E7A" width="1.065" height="22.283"/>
	</g>
	<path fill="#9A712A" d="M415,1122.831c0-1.967,1.595-3.561,3.562-3.561c1.967,0,3.562,1.594,3.562,3.561
		c0,1.968-1.594,3.562-3.562,3.562C416.596,1126.394,415,1124.799,415,1122.831"/>
	<path fill="#FFD54E" d="M416.729,1122.831c0-1.012,0.82-1.833,1.833-1.833s1.833,0.821,1.833,1.833
		c0,1.014-0.821,1.834-1.833,1.834S416.729,1123.845,416.729,1122.831"/>
</g>
</svg>
