<?xml version="1.0" encoding="utf-8"?>
<!-- Generator: Adobe Illustrator 16.0.0, SVG Export Plug-In . SVG Version: 6.00 Build 0)  -->
<!DOCTYPE svg PUBLIC "-//W3C//DTD SVG 1.1//EN" "http://www.w3.org/Graphics/SVG/1.1/DTD/svg11.dtd">
<svg version="1.1" xmlns="http://www.w3.org/2000/svg" xmlns:xlink="http://www.w3.org/1999/xlink" x="0px" y="0px" width="1920px"
	 height="1280px" viewBox="0 0 1920 1280" enable-background="new 0 0 1920 1280" xml:space="preserve">
<g id="Layer_1">
	<g>
		<g>
			<g>
				<g>
					<polyline fill="none" stroke="#434343" stroke-width="2.447" stroke-miterlimit="10" points="299.462,605.644 442.545,519.51 
						660.03,621.001 					"/>
					<g>
						<polyline fill="none" stroke="#FFCB28" stroke-width="2.447" stroke-miterlimit="10" points="679.454,642.391 
							464.046,642.391 464.046,621.102 679.454,621.102 						"/>
						
							<line fill="none" stroke="#FFCB28" stroke-width="2.447" stroke-miterlimit="10" x1="493.41" y1="643.093" x2="493.41" y2="621.672"/>
						
							<line fill="none" stroke="#FFCB28" stroke-width="2.447" stroke-miterlimit="10" x1="522.774" y1="621.672" x2="522.774" y2="643.093"/>
						
							<line fill="none" stroke="#FFCB28" stroke-width="2.447" stroke-miterlimit="10" x1="552.138" y1="621.672" x2="552.138" y2="643.093"/>
						
							<line fill="none" stroke="#FFCB28" stroke-width="2.447" stroke-miterlimit="10" x1="581.501" y1="621.672" x2="581.501" y2="643.093"/>
						
							<line fill="none" stroke="#FFCB28" stroke-width="2.447" stroke-miterlimit="10" x1="610.867" y1="621.672" x2="610.867" y2="643.093"/>
						
							<line fill="none" stroke="#FFCB28" stroke-width="2.447" stroke-miterlimit="10" x1="640.229" y1="621.672" x2="640.229" y2="643.093"/>
						
							<line fill="none" stroke="#FFCB28" stroke-width="2.447" stroke-miterlimit="10" x1="464.046" y1="621.102" x2="493.41" y2="642.391"/>
						
							<line fill="none" stroke="#FFCB28" stroke-width="2.447" stroke-miterlimit="10" x1="493.41" y1="621.102" x2="522.774" y2="642.391"/>
						
							<line fill="none" stroke="#FFCB28" stroke-width="2.447" stroke-miterlimit="10" x1="522.774" y1="621.102" x2="552.138" y2="642.391"/>
						
							<line fill="none" stroke="#FFCB28" stroke-width="2.447" stroke-miterlimit="10" x1="552.138" y1="621.102" x2="581.501" y2="642.391"/>
						
							<line fill="none" stroke="#FFCB28" stroke-width="2.447" stroke-miterlimit="10" x1="581.501" y1="621.102" x2="610.867" y2="642.391"/>
						
							<line fill="none" stroke="#FFCB28" stroke-width="2.447" stroke-miterlimit="10" x1="610.867" y1="621.102" x2="640.229" y2="642.391"/>
						
							<line fill="none" stroke="#FFCB28" stroke-width="2.447" stroke-miterlimit="10" x1="640.721" y1="621.001" x2="670.084" y2="642.29"/>
					</g>
					<g>
						
							<line fill="none" stroke="#FFCB28" stroke-width="2.447" stroke-miterlimit="10" x1="441.975" y1="578.238" x2="420.554" y2="578.238"/>
						
							<line fill="none" stroke="#FFCB28" stroke-width="2.447" stroke-miterlimit="10" x1="441.975" y1="607.604" x2="420.554" y2="607.604"/>
						
							<line fill="none" stroke="#FFCB28" stroke-width="2.447" stroke-miterlimit="10" x1="442.545" y1="578.238" x2="421.255" y2="607.604"/>
						
							<line fill="none" stroke="#FFCB28" stroke-width="2.447" stroke-miterlimit="10" x1="442.545" y1="607.604" x2="421.255" y2="636.967"/>
						<polyline fill="none" stroke="#FFCB28" stroke-width="2.447" stroke-miterlimit="10" points="421.255,548.875 
							442.545,548.875 442.545,705.553 421.255,705.553 421.255,548.875 442.545,519.51 442.545,548.875 421.255,578.238 						"/>
					</g>
					
						<line fill="none" stroke="#FFCB28" stroke-width="2.447" stroke-miterlimit="10" x1="441.975" y1="636.967" x2="420.554" y2="636.967"/>
					
						<line fill="none" stroke="#FFCB28" stroke-width="2.447" stroke-miterlimit="10" x1="441.975" y1="666.332" x2="420.554" y2="666.332"/>
					
						<line fill="none" stroke="#FFCB28" stroke-width="2.447" stroke-miterlimit="10" x1="442.545" y1="636.967" x2="421.255" y2="666.332"/>
					
						<line fill="none" stroke="#FFCB28" stroke-width="2.447" stroke-miterlimit="10" x1="442.646" y1="666.82" x2="421.357" y2="696.184"/>
					<g>
						
							<rect x="270.098" y="621.102" fill="none" stroke="#FFCB28" stroke-width="2.447" stroke-miterlimit="10" width="215.407" height="21.289"/>
						
							<line fill="none" stroke="#FFCB28" stroke-width="2.447" stroke-miterlimit="10" x1="299.462" y1="643.093" x2="299.462" y2="621.672"/>
						
							<line fill="none" stroke="#FFCB28" stroke-width="2.447" stroke-miterlimit="10" x1="328.826" y1="621.672" x2="328.826" y2="643.093"/>
						
							<line fill="none" stroke="#FFCB28" stroke-width="2.447" stroke-miterlimit="10" x1="358.19" y1="621.672" x2="358.19" y2="643.093"/>
						
							<line fill="none" stroke="#FFCB28" stroke-width="2.447" stroke-miterlimit="10" x1="387.554" y1="621.672" x2="387.554" y2="643.093"/>
						
							<line fill="none" stroke="#FFCB28" stroke-width="2.447" stroke-miterlimit="10" x1="416.919" y1="621.672" x2="416.919" y2="643.093"/>
						
							<line fill="none" stroke="#FFCB28" stroke-width="2.447" stroke-miterlimit="10" x1="446.283" y1="621.672" x2="446.283" y2="643.093"/>
						
							<line fill="none" stroke="#FFCB28" stroke-width="2.447" stroke-miterlimit="10" x1="270.098" y1="621.102" x2="299.462" y2="642.391"/>
						
							<line fill="none" stroke="#FFCB28" stroke-width="2.447" stroke-miterlimit="10" x1="299.462" y1="621.102" x2="328.826" y2="642.391"/>
						
							<line fill="none" stroke="#FFCB28" stroke-width="2.447" stroke-miterlimit="10" x1="328.826" y1="621.102" x2="358.19" y2="642.391"/>
						
							<line fill="none" stroke="#FFCB28" stroke-width="2.447" stroke-miterlimit="10" x1="358.19" y1="621.102" x2="387.554" y2="642.391"/>
						
							<line fill="none" stroke="#FFCB28" stroke-width="2.447" stroke-miterlimit="10" x1="387.554" y1="621.102" x2="416.919" y2="642.391"/>
						
							<line fill="none" stroke="#FFCB28" stroke-width="2.447" stroke-miterlimit="10" x1="416.919" y1="621.102" x2="446.283" y2="642.391"/>
						
							<line fill="none" stroke="#FFCB28" stroke-width="2.447" stroke-miterlimit="10" x1="446.772" y1="621.001" x2="476.136" y2="642.29"/>
					</g>
					<rect x="398.467" y="621.001" fill="#FFD54E" width="97.618" height="36.664"/>
					<rect x="408.459" y="669.287" fill="#FAA629" width="55.672" height="36.664"/>
					
						<rect x="418.451" y="720.308" fill="none" stroke="#FFCB28" stroke-width="4.1021" stroke-miterlimit="10" width="35.688" height="473.971"/>
					<rect x="409.837" y="1177.05" fill="#FFCB28" width="52.916" height="31.175"/>
					<g>
						<polygon fill="#FFD54E" points="474.084,1183.801 470.716,1183.801 474.084,1187.17 						"/>
						<polygon fill="#FFD54E" points="398.506,1208.823 402.215,1208.823 398.506,1205.115 						"/>
						<polygon fill="#434343" points="398.506,1205.115 402.215,1208.823 415.575,1208.823 398.506,1191.755 						"/>
						<polygon fill="#434343" points="474.084,1187.17 470.716,1183.801 457.355,1183.801 474.084,1200.529 						"/>
						<polygon fill="#FFD54E" points="398.506,1183.801 398.506,1191.755 415.575,1208.823 428.936,1208.823 403.913,1183.801 
													"/>
						<polygon fill="#FFD54E" points="474.084,1200.529 457.355,1183.801 443.995,1183.801 469.017,1208.823 474.084,1208.823 
													"/>
						<polygon fill="#FFD54E" points="417.273,1183.801 442.296,1208.823 455.657,1208.823 430.634,1183.801 						"/>
						<polygon fill="#434343" points="403.913,1183.801 428.936,1208.823 442.296,1208.823 417.273,1183.801 						"/>
						<polygon fill="#434343" points="430.634,1183.801 455.657,1208.823 469.017,1208.823 443.995,1183.801 						"/>
					</g>
					
						<line fill="none" stroke="#FFCB28" stroke-width="4.1021" stroke-miterlimit="10" x1="453.183" y1="720.308" x2="417.274" y2="720.308"/>
					
						<line fill="none" stroke="#FFCB28" stroke-width="4.1021" stroke-miterlimit="10" x1="417.274" y1="769.532" x2="453.183" y2="769.532"/>
					
						<line fill="none" stroke="#FFCB28" stroke-width="4.1021" stroke-miterlimit="10" x1="453.183" y1="818.758" x2="417.274" y2="818.758"/>
					
						<line fill="none" stroke="#FFCB28" stroke-width="4.1021" stroke-miterlimit="10" x1="453.183" y1="867.982" x2="417.274" y2="867.982"/>
					
						<line fill="none" stroke="#FFCB28" stroke-width="4.1021" stroke-miterlimit="10" x1="453.183" y1="917.207" x2="417.274" y2="917.207"/>
					
						<line fill="none" stroke="#FFCB28" stroke-width="4.1021" stroke-miterlimit="10" x1="453.183" y1="966.432" x2="417.274" y2="966.432"/>
					
						<line fill="none" stroke="#FFCB28" stroke-width="4.1021" stroke-miterlimit="10" x1="453.183" y1="1015.656" x2="417.274" y2="1015.656"/>
					
						<line fill="none" stroke="#FFCB28" stroke-width="4.1021" stroke-miterlimit="10" x1="453.183" y1="1064.882" x2="417.274" y2="1064.882"/>
					
						<line fill="none" stroke="#FFCB28" stroke-width="4.1021" stroke-miterlimit="10" x1="454.139" y1="720.308" x2="418.451" y2="769.532"/>
					
						<line fill="none" stroke="#FFCB28" stroke-width="4.1021" stroke-miterlimit="10" x1="454.139" y1="769.532" x2="418.451" y2="818.758"/>
					
						<line fill="none" stroke="#FFCB28" stroke-width="4.1021" stroke-miterlimit="10" x1="454.139" y1="818.758" x2="418.451" y2="867.982"/>
					
						<line fill="none" stroke="#FFCB28" stroke-width="4.1021" stroke-miterlimit="10" x1="454.139" y1="867.982" x2="418.451" y2="917.207"/>
					
						<line fill="none" stroke="#FFCB28" stroke-width="4.1021" stroke-miterlimit="10" x1="454.139" y1="917.207" x2="418.451" y2="966.432"/>
					
						<line fill="none" stroke="#FFCB28" stroke-width="4.1021" stroke-miterlimit="10" x1="454.139" y1="966.432" x2="418.451" y2="1015.656"/>
					
						<line fill="none" stroke="#FFCB28" stroke-width="4.1021" stroke-miterlimit="10" x1="454.31" y1="1016.477" x2="418.621" y2="1065.702"/>
					<rect x="409.837" y="704.72" fill="#434343" width="52.916" height="15.588"/>
					<rect x="400.349" y="698.156" fill="#FFCB28" width="71.892" height="15.589"/>
					<rect x="391.482" y="655.203" fill="#FFCB28" width="112.396" height="5.763"/>
					<polygon fill="#434343" points="464.131,669.287 499.503,660.966 394.917,660.966 408.459,669.287 					"/>
					<rect x="443.168" y="624.854" fill="#434343" width="52.917" height="22.145"/>
					<rect x="249.824" y="605.842" fill="#434343" width="46.49" height="73.29"/>
					<rect x="270.098" y="605.644" fill="#757576" width="14.682" height="73.291"/>
					<rect x="284.779" y="605.843" fill="#616262" width="11.534" height="73.289"/>
					<rect x="234.152" y="597.85" fill="#FFCB28" width="71.891" height="15.588"/>
				</g>
				<g>
					
						<rect x="669.608" y="621.116" fill="none" stroke="#FFCB28" stroke-width="2.447" stroke-miterlimit="10" width="206.038" height="21.29"/>
					
						<line fill="none" stroke="#FFCB28" stroke-width="2.447" stroke-miterlimit="10" x1="728.337" y1="621.688" x2="728.337" y2="643.109"/>
					
						<line fill="none" stroke="#FFCB28" stroke-width="2.447" stroke-miterlimit="10" x1="757.7" y1="621.688" x2="757.7" y2="643.109"/>
					
						<line fill="none" stroke="#FFCB28" stroke-width="2.447" stroke-miterlimit="10" x1="787.063" y1="621.688" x2="787.063" y2="643.109"/>
					
						<line fill="none" stroke="#FFCB28" stroke-width="2.447" stroke-miterlimit="10" x1="816.428" y1="621.688" x2="816.428" y2="643.109"/>
					
						<line fill="none" stroke="#FFCB28" stroke-width="2.447" stroke-miterlimit="10" x1="845.792" y1="621.688" x2="845.792" y2="643.109"/>
					
						<line fill="none" stroke="#FFCB28" stroke-width="2.447" stroke-miterlimit="10" x1="698.971" y1="621.116" x2="728.337" y2="642.406"/>
					
						<line fill="none" stroke="#FFCB28" stroke-width="2.447" stroke-miterlimit="10" x1="728.337" y1="621.116" x2="757.7" y2="642.406"/>
					
						<line fill="none" stroke="#FFCB28" stroke-width="2.447" stroke-miterlimit="10" x1="757.7" y1="621.116" x2="787.063" y2="642.406"/>
					
						<line fill="none" stroke="#FFCB28" stroke-width="2.447" stroke-miterlimit="10" x1="787.063" y1="621.116" x2="816.428" y2="642.406"/>
					
						<line fill="none" stroke="#FFCB28" stroke-width="2.447" stroke-miterlimit="10" x1="816.428" y1="621.116" x2="845.792" y2="642.406"/>
					
						<line fill="none" stroke="#FFCB28" stroke-width="2.447" stroke-miterlimit="10" x1="846.282" y1="621.015" x2="875.646" y2="642.305"/>
					
						<line fill="none" stroke="#FFCB28" stroke-width="2.447" stroke-miterlimit="10" x1="698.972" y1="621.973" x2="698.972" y2="643.394"/>
					
						<line fill="none" stroke="#FFCB28" stroke-width="2.447" stroke-miterlimit="10" x1="669.608" y1="621.401" x2="698.972" y2="642.691"/>
				</g>
				
					<line fill="none" stroke="#FFCB28" stroke-width="2.447" stroke-miterlimit="10" x1="934.375" y1="621.688" x2="934.375" y2="643.109"/>
				
					<line fill="none" stroke="#FFCB28" stroke-width="2.447" stroke-miterlimit="10" x1="963.739" y1="621.688" x2="963.739" y2="643.109"/>
				
					<line fill="none" stroke="#FFCB28" stroke-width="2.447" stroke-miterlimit="10" x1="905.009" y1="621.116" x2="934.375" y2="642.406"/>
				
					<line fill="none" stroke="#FFCB28" stroke-width="2.447" stroke-miterlimit="10" x1="934.375" y1="621.116" x2="963.739" y2="642.406"/>
				
					<line fill="none" stroke="#FFCB28" stroke-width="2.447" stroke-miterlimit="10" x1="905.011" y1="621.973" x2="905.011" y2="643.394"/>
				
					<line fill="none" stroke="#FFCB28" stroke-width="2.447" stroke-miterlimit="10" x1="875.646" y1="621.401" x2="905.011" y2="642.691"/>
				<polyline fill="none" stroke="#FFCB28" stroke-width="2.447" stroke-miterlimit="10" points="963.699,621.116 963.699,642.405 
					787.063,642.405 787.063,621.116 963.699,621.116 993.062,642.405 963.699,642.405 934.333,621.116 				"/>
			</g>
			<g>
				<g>
					<rect x="939.025" y="633.775" fill="#434343" width="52.917" height="22.145"/>
					<rect x="950.206" y="640.664" fill="#E0E0E0" width="41.736" height="12.11"/>
				</g>
				<rect x="958.203" y="669.457" fill="#434343" width="14.563" height="5.059"/>
				<rect x="962.965" y="672.738" fill="#434343" width="5.038" height="8.751"/>
				<path fill="#434343" d="M965.484,678.096L965.484,678.096v3.394l0,0c1.775,0,3.212,1.438,3.212,3.212
					c0,1.775-1.437,3.214-3.212,3.214c-0.889,0-1.69-0.359-2.272-0.941l-2.398,2.399c1.195,1.195,2.846,1.935,4.671,1.935
					c3.648,0,6.605-2.958,6.605-6.605C972.09,681.053,969.133,678.096,965.484,678.096z"/>
				
					<line fill="none" stroke="#434343" stroke-width="1.6408" stroke-miterlimit="10" x1="965.062" y1="654.688" x2="965.062" y2="671.987"/>
				
					<line fill="none" stroke="#434343" stroke-width="1.6408" stroke-miterlimit="10" x1="965.484" y1="686.727" x2="965.484" y2="704.024"/>
				<rect x="960.895" y="696.113" fill="#616262" width="9.177" height="20.101"/>
			</g>
		</g>
		
			<line fill="none" stroke="#FFCB28" stroke-width="4.1021" stroke-miterlimit="10" x1="453.746" y1="1164.972" x2="442.296" y2="1180.766"/>
		
			<line fill="none" stroke="#FFCB28" stroke-width="4.1021" stroke-miterlimit="10" x1="452.619" y1="1114.927" x2="416.71" y2="1114.927"/>
		
			<line fill="none" stroke="#FFCB28" stroke-width="4.1021" stroke-miterlimit="10" x1="452.619" y1="1164.151" x2="416.71" y2="1164.151"/>
		
			<line fill="none" stroke="#FFCB28" stroke-width="4.1021" stroke-miterlimit="10" x1="453.576" y1="1065.702" x2="417.888" y2="1114.927"/>
		
			<line fill="none" stroke="#FFCB28" stroke-width="4.1021" stroke-miterlimit="10" x1="453.576" y1="1114.927" x2="417.888" y2="1164.151"/>
	</g>
	<rect y="1208.823" fill="#FCB64E" width="1920" height="131.177"/>
</g>
<g id="Layer_2">
</g>
</svg>
