<?xml version="1.0" encoding="utf-8"?>
<!-- Generator: Adobe Illustrator 16.0.0, SVG Export Plug-In . SVG Version: 6.00 Build 0)  -->
<!DOCTYPE svg PUBLIC "-//W3C//DTD SVG 1.1//EN" "http://www.w3.org/Graphics/SVG/1.1/DTD/svg11.dtd">
<svg version="1.1" id="Layer_1" xmlns="http://www.w3.org/2000/svg" xmlns:xlink="http://www.w3.org/1999/xlink" x="0px" y="0px"
	 width="1920px" height="1280px" viewBox="0 0 1920 1280" enable-background="new 0 0 1920 1280" xml:space="preserve">
<g>
	<rect x="1786.827" y="847.937" fill="#ECEFF0" width="140.245" height="275.632"/>
	<rect x="1484.06" y="943.333" fill="#ECEFF0" width="140.245" height="180.235"/>
	<rect x="1332.675" y="943.333" fill="#ECEFF0" width="140.244" height="180.235"/>
	<rect x="1321.538" y="1134.933" fill="#ECEFF0" width="768.057" height="75.081"/>
	<g>
		<rect x="1321.538" y="842.328" fill="#455B65" width="11.137" height="292.604"/>
	</g>
	<g>
		<rect x="1472.924" y="741.566" fill="#455B65" width="11.136" height="393.366"/>
	</g>
	<g>
		<rect x="1624.305" y="741.566" fill="#455B65" width="11.137" height="393.366"/>
	</g>
	<g>
		<rect x="1775.69" y="741.566" fill="#455B65" width="11.137" height="393.366"/>
	</g>
	<g>
		<rect x="1927.072" y="751.733" fill="#455B65" width="11.137" height="383.199"/>
	</g>
	<g>
		<rect x="2078.458" y="843.823" fill="#455B65" width="11.137" height="291.109"/>
	</g>
	<g>
		<rect x="1454.092" y="741.566" fill="#455B65" width="502.066" height="10.167"/>
	</g>
	<g>
		<rect x="1298.336" y="836.76" fill="#455B65" width="813.623" height="11.137"/>
	</g>
	<g>
		<rect x="1298.336" y="932.438" fill="#455B65" width="814.559" height="11.137"/>
	</g>
	<g>
		<rect x="1298.336" y="1028.117" fill="#455B65" width="814.559" height="11.137"/>
	</g>
	<g>
		<rect x="1298.336" y="1123.568" fill="#455B65" width="814.559" height="11.137"/>
	</g>
	<g>
		<g>
			<rect x="1449.722" y="847.937" fill="#B0BEC5" width="3.712" height="362.302"/>
			<rect x="1503.55" y="847.937" fill="#B0BEC5" width="3.713" height="362.302"/>
		</g>
		<g>
			<rect x="1451.577" y="946.923" fill="#B0BEC5" width="53.829" height="3.713"/>
			
				<rect x="1458.688" y="944.566" transform="matrix(0.7071 0.7071 -0.7071 0.7071 1104.552 -752.4341)" fill="#B0BEC5" width="3.712" height="25.058"/>
			
				<rect x="1494.581" y="944.565" transform="matrix(-0.7071 0.7071 -0.7071 -0.7071 3231.3462 575.723)" fill="#B0BEC5" width="3.712" height="25.059"/>
		</g>
		<g>
			<rect x="1451.577" y="984.491" fill="#B0BEC5" width="53.829" height="3.712"/>
			
				<rect x="1458.688" y="982.134" transform="matrix(0.7071 0.7071 -0.7071 0.7071 1131.1155 -741.4312)" fill="#B0BEC5" width="3.712" height="25.055"/>
			
				<rect x="1494.581" y="982.133" transform="matrix(-0.7071 0.7071 -0.7071 -0.7071 3257.9097 639.8528)" fill="#B0BEC5" width="3.712" height="25.057"/>
		</g>
		<g>
			<rect x="1451.577" y="1022.056" fill="#B0BEC5" width="53.829" height="3.713"/>
			
				<rect x="1458.688" y="1019.699" transform="matrix(0.7071 0.7071 -0.7071 0.7071 1157.678 -730.4287)" fill="#B0BEC5" width="3.712" height="25.056"/>
			
				<rect x="1494.581" y="1019.698" transform="matrix(-0.7071 0.7071 -0.7071 -0.7071 3284.4722 703.9802)" fill="#B0BEC5" width="3.712" height="25.057"/>
		</g>
		<g>
			<rect x="1451.577" y="1059.621" fill="#B0BEC5" width="53.829" height="3.713"/>
			
				<rect x="1458.688" y="1057.264" transform="matrix(0.7071 0.7071 -0.7071 0.7071 1184.2407 -719.426)" fill="#B0BEC5" width="3.712" height="25.056"/>
			
				<rect x="1494.581" y="1057.263" transform="matrix(-0.7071 0.7071 -0.7071 -0.7071 3311.0349 768.1084)" fill="#B0BEC5" width="3.712" height="25.057"/>
		</g>
		<g>
			<rect x="1451.577" y="1097.187" fill="#B0BEC5" width="53.829" height="3.713"/>
			
				<rect x="1458.689" y="1094.829" transform="matrix(0.7072 0.707 -0.707 0.7072 1210.4657 -708.377)" fill="#B0BEC5" width="3.712" height="25.057"/>
			
				<rect x="1494.581" y="1094.828" transform="matrix(-0.7072 0.707 -0.707 -0.7072 3337.6489 832.579)" fill="#B0BEC5" width="3.712" height="25.058"/>
		</g>
		<g>
			<rect x="1451.577" y="1022.007" fill="#B0BEC5" width="53.829" height="3.713"/>
			
				<rect x="1458.689" y="1019.65" transform="matrix(0.7072 0.707 -0.707 0.7072 1157.3159 -730.3865)" fill="#B0BEC5" width="3.712" height="25.057"/>
			
				<rect x="1494.581" y="1019.649" transform="matrix(-0.7072 0.707 -0.707 -0.7072 3284.499 704.2302)" fill="#B0BEC5" width="3.712" height="25.059"/>
		</g>
		<g>
			<rect x="1451.577" y="1059.574" fill="#B0BEC5" width="53.829" height="3.712"/>
			
				<rect x="1458.688" y="1057.217" transform="matrix(0.7071 0.7071 -0.7071 0.7071 1184.2075 -719.4397)" fill="#B0BEC5" width="3.712" height="25.056"/>
			
				<rect x="1494.581" y="1057.216" transform="matrix(-0.7071 0.7071 -0.7071 -0.7071 3311.0017 768.0284)" fill="#B0BEC5" width="3.712" height="25.057"/>
		</g>
		<g>
			<rect x="1451.577" y="1097.14" fill="#B0BEC5" width="53.829" height="3.713"/>
			
				<rect x="1458.688" y="1094.783" transform="matrix(0.7071 0.7071 -0.7071 0.7071 1210.7703 -708.437)" fill="#B0BEC5" width="3.712" height="25.056"/>
			
				<rect x="1494.581" y="1094.782" transform="matrix(-0.7071 0.7071 -0.7071 -0.7071 3337.5645 832.1566)" fill="#B0BEC5" width="3.712" height="25.057"/>
		</g>
		<g>
			<rect x="1451.577" y="1134.705" fill="#B0BEC5" width="53.829" height="3.713"/>
			
				<rect x="1458.688" y="1132.348" transform="matrix(0.7071 0.7071 -0.7071 0.7071 1237.3331 -697.4344)" fill="#B0BEC5" width="3.712" height="25.056"/>
			
				<rect x="1494.581" y="1132.347" transform="matrix(-0.7071 0.7071 -0.7071 -0.7071 3364.1274 896.2848)" fill="#B0BEC5" width="3.712" height="25.057"/>
		</g>
		<g>
			<rect x="1451.577" y="1172.271" fill="#B0BEC5" width="53.829" height="3.712"/>
			
				<rect x="1458.688" y="1169.913" transform="matrix(0.7071 0.7071 -0.7071 0.7071 1263.8959 -686.4318)" fill="#B0BEC5" width="3.712" height="25.056"/>
			
				<rect x="1494.581" y="1169.913" transform="matrix(-0.7071 0.7071 -0.7071 -0.7071 3390.6899 960.413)" fill="#B0BEC5" width="3.712" height="25.057"/>
		</g>
		<g>
			<rect x="1451.577" y="871.392" fill="#B0BEC5" width="53.829" height="3.712"/>
			
				<rect x="1458.689" y="869.034" transform="matrix(0.7072 0.707 -0.707 0.7072 1050.8342 -774.481)" fill="#B0BEC5" width="3.712" height="25.057"/>
			
				<rect x="1494.581" y="869.033" transform="matrix(-0.7072 0.707 -0.707 -0.7072 3178.0176 447.0933)" fill="#B0BEC5" width="3.712" height="25.058"/>
		</g>
		<g>
			<rect x="1451.577" y="908.958" fill="#B0BEC5" width="53.829" height="3.712"/>
			
				<rect x="1458.688" y="906.601" transform="matrix(0.7071 0.7071 -0.7071 0.7071 1077.7056 -763.5544)" fill="#B0BEC5" width="3.712" height="25.055"/>
			
				<rect x="1494.581" y="906.6" transform="matrix(-0.7071 0.7071 -0.7071 -0.7071 3204.4998 510.9096)" fill="#B0BEC5" width="3.712" height="25.057"/>
		</g>
		<g>
			<rect x="1451.577" y="946.522" fill="#B0BEC5" width="53.829" height="3.713"/>
			
				<rect x="1458.688" y="944.165" transform="matrix(0.7071 0.7071 -0.7071 0.7071 1104.2679 -752.5519)" fill="#B0BEC5" width="3.712" height="25.056"/>
			
				<rect x="1494.581" y="944.165" transform="matrix(-0.7071 0.7071 -0.7071 -0.7071 3231.062 575.037)" fill="#B0BEC5" width="3.712" height="25.057"/>
		</g>
		<g>
			<rect x="1451.577" y="984.088" fill="#B0BEC5" width="53.829" height="3.713"/>
			
				<rect x="1458.688" y="981.731" transform="matrix(0.7071 0.7071 -0.7071 0.7071 1130.8307 -741.5492)" fill="#B0BEC5" width="3.712" height="25.056"/>
			
				<rect x="1494.581" y="981.73" transform="matrix(-0.7071 0.7071 -0.7071 -0.7071 3257.625 639.1652)" fill="#B0BEC5" width="3.712" height="25.057"/>
		</g>
		<g>
			<rect x="1451.577" y="1059.172" fill="#B0BEC5" width="53.829" height="3.713"/>
			
				<rect x="1458.688" y="1056.815" transform="matrix(0.7071 0.7071 -0.7071 0.7071 1183.9231 -719.5576)" fill="#B0BEC5" width="3.712" height="25.056"/>
			
				<rect x="1494.581" y="1056.814" transform="matrix(-0.7071 0.7071 -0.7071 -0.7071 3310.7173 767.3416)" fill="#B0BEC5" width="3.712" height="25.057"/>
		</g>
	</g>
	<g>
		<g>
			<rect x="1601.104" y="943.615" fill="#B0BEC5" width="3.712" height="266.623"/>
			<rect x="1654.932" y="943.615" fill="#B0BEC5" width="3.712" height="266.623"/>
		</g>
		<g>
			<rect x="1602.959" y="946.923" fill="#B0BEC5" width="53.829" height="3.713"/>
			
				<rect x="1610.073" y="944.565" transform="matrix(0.7071 0.7071 -0.7071 0.7071 1148.8916 -859.479)" fill="#B0BEC5" width="3.712" height="25.06"/>
			
				<rect x="1645.965" y="944.567" transform="matrix(-0.707 0.7072 -0.7072 -0.707 3489.6838 468.336)" fill="#B0BEC5" width="3.712" height="25.057"/>
		</g>
		<g>
			<rect x="1602.959" y="984.491" fill="#B0BEC5" width="53.829" height="3.712"/>
			
				<rect x="1610.073" y="982.133" transform="matrix(0.7071 0.7071 -0.7071 0.7071 1175.4551 -848.4761)" fill="#B0BEC5" width="3.712" height="25.057"/>
			
				<rect x="1645.965" y="982.134" transform="matrix(-0.707 0.7072 -0.7072 -0.707 3516.2522 532.4609)" fill="#B0BEC5" width="3.712" height="25.055"/>
		</g>
		<g>
			<rect x="1602.959" y="1022.056" fill="#B0BEC5" width="53.829" height="3.713"/>
			
				<rect x="1610.073" y="1019.698" transform="matrix(0.7071 0.7071 -0.7071 0.7071 1202.0175 -837.4735)" fill="#B0BEC5" width="3.712" height="25.058"/>
			
				<rect x="1645.965" y="1019.699" transform="matrix(-0.707 0.7072 -0.7072 -0.707 3542.8196 596.5834)" fill="#B0BEC5" width="3.712" height="25.055"/>
		</g>
		<g>
			<rect x="1602.959" y="1059.621" fill="#B0BEC5" width="53.829" height="3.713"/>
			
				<rect x="1610.073" y="1057.263" transform="matrix(0.7071 0.7071 -0.7071 0.7071 1228.5802 -826.4708)" fill="#B0BEC5" width="3.712" height="25.058"/>
			
				<rect x="1645.965" y="1057.264" transform="matrix(-0.707 0.7072 -0.7072 -0.707 3569.3872 660.7066)" fill="#B0BEC5" width="3.712" height="25.055"/>
		</g>
		<g>
			<rect x="1602.959" y="1097.187" fill="#B0BEC5" width="53.829" height="3.713"/>
			
				<rect x="1610.073" y="1094.828" transform="matrix(0.7072 0.707 -0.707 0.7072 1254.7853 -815.4019)" fill="#B0BEC5" width="3.712" height="25.059"/>
			
				<rect x="1645.965" y="1094.829" transform="matrix(-0.7071 0.7071 -0.7071 -0.7071 3596.0261 725.1921)" fill="#B0BEC5" width="3.711" height="25.056"/>
		</g>
		<g>
			<rect x="1602.959" y="1022.007" fill="#B0BEC5" width="53.829" height="3.713"/>
			
				<rect x="1610.073" y="1019.648" transform="matrix(0.7072 0.707 -0.707 0.7072 1201.6355 -837.4114)" fill="#B0BEC5" width="3.712" height="25.059"/>
			
				<rect x="1645.965" y="1019.65" transform="matrix(-0.7071 0.7071 -0.7071 -0.7071 3542.8662 596.8531)" fill="#B0BEC5" width="3.711" height="25.057"/>
		</g>
		<g>
			<rect x="1602.959" y="1059.574" fill="#B0BEC5" width="53.829" height="3.712"/>
			
				<rect x="1610.073" y="1057.216" transform="matrix(0.7071 0.7071 -0.7071 0.7071 1228.5471 -826.4846)" fill="#B0BEC5" width="3.712" height="25.058"/>
			
				<rect x="1645.965" y="1057.217" transform="matrix(-0.707 0.7072 -0.7072 -0.707 3569.354 660.6266)" fill="#B0BEC5" width="3.712" height="25.055"/>
		</g>
		<g>
			<rect x="1602.959" y="1097.14" fill="#B0BEC5" width="53.829" height="3.713"/>
			
				<rect x="1610.073" y="1094.781" transform="matrix(0.7071 0.7071 -0.7071 0.7071 1255.1099 -815.4819)" fill="#B0BEC5" width="3.712" height="25.058"/>
			
				<rect x="1645.965" y="1094.783" transform="matrix(-0.707 0.7072 -0.7072 -0.707 3595.9219 724.7499)" fill="#B0BEC5" width="3.712" height="25.055"/>
		</g>
		<g>
			<rect x="1602.959" y="1134.705" fill="#B0BEC5" width="53.829" height="3.713"/>
			
				<rect x="1610.073" y="1132.347" transform="matrix(0.7071 0.7071 -0.7071 0.7071 1281.6726 -804.4792)" fill="#B0BEC5" width="3.712" height="25.058"/>
			
				<rect x="1645.965" y="1132.348" transform="matrix(-0.707 0.7072 -0.7072 -0.707 3622.4895 788.8731)" fill="#B0BEC5" width="3.712" height="25.055"/>
		</g>
		<g>
			<rect x="1602.959" y="1172.271" fill="#B0BEC5" width="53.829" height="3.712"/>
			
				<rect x="1610.073" y="1169.912" transform="matrix(0.7071 0.7071 -0.7071 0.7071 1308.2354 -793.4766)" fill="#B0BEC5" width="3.712" height="25.058"/>
			
				<rect x="1645.965" y="1169.914" transform="matrix(-0.707 0.7072 -0.7072 -0.707 3649.0571 852.9964)" fill="#B0BEC5" width="3.712" height="25.055"/>
		</g>
	</g>
	<g>
		<g>
			<rect x="2055.256" y="943.615" fill="#B0BEC5" width="3.712" height="266.623"/>
			<rect x="2109.084" y="943.615" fill="#B0BEC5" width="3.712" height="266.623"/>
		</g>
		<g>
			<rect x="2057.112" y="946.923" fill="#B0BEC5" width="53.828" height="3.713"/>
			
				<rect x="2064.224" y="944.566" transform="matrix(0.7071 0.7071 -0.7071 0.7071 1281.9094 -1180.6125)" fill="#B0BEC5" width="3.712" height="25.059"/>
			
				<rect x="2100.117" y="944.566" transform="matrix(-0.707 0.7072 -0.7072 -0.707 4264.9097 147.1424)" fill="#B0BEC5" width="3.712" height="25.058"/>
		</g>
		<g>
			<rect x="2057.112" y="984.491" fill="#B0BEC5" width="53.828" height="3.712"/>
			
				<rect x="2064.224" y="982.134" transform="matrix(0.7071 0.7071 -0.7071 0.7071 1308.4729 -1169.6096)" fill="#B0BEC5" width="3.712" height="25.056"/>
			
				<rect x="2100.117" y="982.134" transform="matrix(-0.707 0.7072 -0.7072 -0.707 4291.478 211.2673)" fill="#B0BEC5" width="3.712" height="25.055"/>
		</g>
		<g>
			<rect x="2057.112" y="1022.056" fill="#B0BEC5" width="53.828" height="3.713"/>
			
				<rect x="2064.224" y="1019.698" transform="matrix(0.7071 0.7071 -0.7071 0.7071 1335.0353 -1158.6069)" fill="#B0BEC5" width="3.712" height="25.057"/>
			
				<rect x="2100.117" y="1019.699" transform="matrix(-0.707 0.7072 -0.7072 -0.707 4318.0454 275.3898)" fill="#B0BEC5" width="3.712" height="25.056"/>
		</g>
		<g>
			<rect x="2057.112" y="1059.621" fill="#B0BEC5" width="53.828" height="3.713"/>
			
				<rect x="2064.224" y="1057.264" transform="matrix(0.7071 0.7071 -0.7071 0.7071 1361.598 -1147.6045)" fill="#B0BEC5" width="3.712" height="25.057"/>
			
				<rect x="2100.117" y="1057.264" transform="matrix(-0.707 0.7072 -0.7072 -0.707 4344.6133 339.513)" fill="#B0BEC5" width="3.712" height="25.056"/>
		</g>
		<g>
			<rect x="2057.112" y="1097.187" fill="#B0BEC5" width="53.828" height="3.713"/>
			
				<rect x="2064.224" y="1094.829" transform="matrix(0.7072 0.707 -0.707 0.7072 1387.7434 -1136.4756)" fill="#B0BEC5" width="3.712" height="25.057"/>
			
				<rect x="2100.117" y="1094.829" transform="matrix(-0.7071 0.7071 -0.7071 -0.7071 4371.3115 404.0583)" fill="#B0BEC5" width="3.711" height="25.057"/>
		</g>
		<g>
			<rect x="2057.112" y="1022.007" fill="#B0BEC5" width="53.828" height="3.713"/>
			
				<rect x="2064.224" y="1019.649" transform="matrix(0.7072 0.707 -0.707 0.7072 1334.5935 -1158.4854)" fill="#B0BEC5" width="3.712" height="25.058"/>
			
				<rect x="2100.117" y="1019.65" transform="matrix(-0.7071 0.7071 -0.7071 -0.7071 4318.1519 275.7194)" fill="#B0BEC5" width="3.711" height="25.057"/>
		</g>
		<g>
			<rect x="2057.112" y="1059.574" fill="#B0BEC5" width="53.828" height="3.712"/>
			
				<rect x="2064.224" y="1057.217" transform="matrix(0.7071 0.7071 -0.7071 0.7071 1361.5649 -1147.6182)" fill="#B0BEC5" width="3.712" height="25.057"/>
			
				<rect x="2100.117" y="1057.217" transform="matrix(-0.707 0.7072 -0.7072 -0.707 4344.5801 339.433)" fill="#B0BEC5" width="3.712" height="25.056"/>
		</g>
		<g>
			<rect x="2057.112" y="1097.14" fill="#B0BEC5" width="53.828" height="3.713"/>
			
				<rect x="2064.224" y="1094.782" transform="matrix(0.7071 0.7071 -0.7071 0.7071 1388.1277 -1136.6155)" fill="#B0BEC5" width="3.712" height="25.057"/>
			
				<rect x="2100.117" y="1094.783" transform="matrix(-0.707 0.7072 -0.7072 -0.707 4371.1475 403.5563)" fill="#B0BEC5" width="3.712" height="25.056"/>
		</g>
		<g>
			<rect x="2057.112" y="1134.705" fill="#B0BEC5" width="53.828" height="3.713"/>
			
				<rect x="2064.224" y="1132.348" transform="matrix(0.7071 0.7071 -0.7071 0.7071 1414.6904 -1125.6128)" fill="#B0BEC5" width="3.712" height="25.057"/>
			
				<rect x="2100.117" y="1132.348" transform="matrix(-0.707 0.7072 -0.7072 -0.707 4397.7153 467.6795)" fill="#B0BEC5" width="3.712" height="25.056"/>
		</g>
		<g>
			<rect x="2057.112" y="1172.271" fill="#B0BEC5" width="53.828" height="3.712"/>
			
				<rect x="2064.224" y="1169.913" transform="matrix(0.7071 0.7071 -0.7071 0.7071 1441.2532 -1114.6101)" fill="#B0BEC5" width="3.712" height="25.057"/>
			
				<rect x="2100.117" y="1169.913" transform="matrix(-0.707 0.7072 -0.7072 -0.707 4424.2832 531.8028)" fill="#B0BEC5" width="3.712" height="25.056"/>
		</g>
	</g>
</g>
<g>
	<g>
		<g>
			<rect x="60.697" y="815.455" fill="#455B65" width="11.137" height="393.368"/>
		</g>
		<g>
			<rect x="212.083" y="815.455" fill="#455B65" width="11.136" height="393.368"/>
		</g>
		<g>
			<rect x="363.464" y="815.455" fill="#455B65" width="11.137" height="393.368"/>
		</g>
		<g>
			<rect x="514.85" y="815.455" fill="#455B65" width="11.137" height="393.368"/>
		</g>
	</g>
	<g>
		<rect x="666.231" y="917.712" fill="#455B65" width="11.137" height="291.111"/>
	</g>
	<g>
		<rect x="817.617" y="917.712" fill="#455B65" width="11.137" height="291.111"/>
	</g>
	<g>
		<rect x="66.266" y="815.455" fill="#455B65" width="459.235" height="10.167"/>
	</g>
	<g>
		<rect x="60.697" y="910.648" fill="#455B65" width="768.057" height="11.137"/>
	</g>
	<g>
		<rect x="60.697" y="1006.327" fill="#455B65" width="762.488" height="11.137"/>
	</g>
	<g>
		<rect x="60.697" y="1102.007" fill="#455B65" width="762.488" height="11.137"/>
	</g>
	<g>
		<g>
			<rect x="47.468" y="878.228" fill="#FAA629" width="496.83" height="5.084"/>
		</g>
		<g>
			<rect x="47.468" y="864.13" fill="#FAA629" width="496.83" height="5.085"/>
		</g>
		<g>
			<rect x="47.468" y="892.901" fill="#FAA629" width="496.83" height="5.082"/>
		</g>
		<g>
			<rect x="47.468" y="907.572" fill="#FAA629" width="496.83" height="5.083"/>
		</g>
		<rect x="47.468" y="864.13" fill="#78909C" width="3.713" height="48.525"/>
		<rect x="92.295" y="864.13" fill="#78909C" width="3.713" height="48.525"/>
		<rect x="137.126" y="864.13" fill="#78909C" width="3.712" height="48.525"/>
		<rect x="181.954" y="864.13" fill="#78909C" width="3.713" height="48.525"/>
		<rect x="226.783" y="864.13" fill="#78909C" width="3.712" height="48.525"/>
		<rect x="316.44" y="864.13" fill="#78909C" width="3.712" height="48.525"/>
		<rect x="406.1" y="864.13" fill="#78909C" width="3.712" height="48.525"/>
		<rect x="450.928" y="864.13" fill="#78909C" width="3.713" height="48.525"/>
		<rect x="271.614" y="864.13" fill="#78909C" width="3.711" height="48.525"/>
		<rect x="495.759" y="864.13" fill="#78909C" width="3.713" height="48.525"/>
		<rect x="361.271" y="864.13" fill="#78909C" width="3.712" height="48.525"/>
		<rect x="540.586" y="864.13" fill="#78909C" width="3.712" height="48.525"/>
	</g>
	<g>
		<rect x="47.468" y="971.899" fill="#FAA629" width="496.83" height="5.083"/>
	</g>
	<g>
		<rect x="47.468" y="957.801" fill="#FAA629" width="496.83" height="5.085"/>
	</g>
	<g>
		<rect x="47.468" y="986.571" fill="#FAA629" width="496.83" height="5.082"/>
	</g>
	<g>
		<rect x="47.468" y="1001.243" fill="#FAA629" width="496.83" height="5.082"/>
	</g>
	<rect x="47.468" y="957.801" fill="#78909C" width="3.713" height="48.524"/>
	<rect x="92.295" y="957.801" fill="#78909C" width="3.713" height="48.524"/>
	<rect x="137.126" y="957.801" fill="#78909C" width="3.712" height="48.524"/>
	<rect x="181.954" y="957.801" fill="#78909C" width="3.713" height="48.524"/>
	<rect x="226.783" y="957.801" fill="#78909C" width="3.712" height="48.524"/>
	<rect x="316.44" y="957.801" fill="#78909C" width="3.712" height="48.524"/>
	<rect x="406.1" y="957.801" fill="#78909C" width="3.712" height="48.524"/>
	<rect x="450.928" y="957.801" fill="#78909C" width="3.713" height="48.524"/>
	<rect x="271.614" y="957.801" fill="#78909C" width="3.711" height="48.524"/>
	<rect x="495.759" y="957.801" fill="#78909C" width="3.713" height="48.524"/>
	<rect x="361.271" y="957.801" fill="#78909C" width="3.712" height="48.524"/>
	<rect x="540.586" y="957.801" fill="#78909C" width="3.712" height="48.524"/>
	<g>
		<g>
			<rect x="361.271" y="971.899" fill="#FAA629" width="496.829" height="5.083"/>
		</g>
		<g>
			<rect x="361.271" y="957.801" fill="#FAA629" width="496.829" height="5.085"/>
		</g>
		<g>
			<rect x="361.271" y="986.571" fill="#FAA629" width="496.829" height="5.082"/>
		</g>
		<g>
			<rect x="361.271" y="1001.243" fill="#FAA629" width="496.829" height="5.082"/>
		</g>
		<rect x="361.271" y="957.801" fill="#78909C" width="3.712" height="48.524"/>
		<rect x="406.098" y="957.801" fill="#78909C" width="3.713" height="48.524"/>
		<rect x="450.928" y="957.801" fill="#78909C" width="3.713" height="48.524"/>
		<rect x="495.755" y="957.801" fill="#78909C" width="3.712" height="48.524"/>
		<rect x="540.586" y="957.801" fill="#78909C" width="3.712" height="48.524"/>
		<rect x="630.243" y="957.801" fill="#78909C" width="3.712" height="48.524"/>
		<rect x="719.9" y="957.801" fill="#78909C" width="3.713" height="48.524"/>
		<rect x="764.73" y="957.801" fill="#78909C" width="3.713" height="48.524"/>
		<rect x="585.416" y="957.801" fill="#78909C" width="3.713" height="48.524"/>
		<rect x="809.562" y="957.801" fill="#78909C" width="3.711" height="48.524"/>
		<rect x="675.074" y="957.801" fill="#78909C" width="3.712" height="48.524"/>
		<rect x="854.389" y="957.801" fill="#78909C" width="3.712" height="48.524"/>
	</g>
	<g>
		<g>
			<rect x="188.881" y="1017.504" fill="#B0BEC5" width="3.712" height="191.315"/>
			<rect x="242.709" y="1017.504" fill="#B0BEC5" width="3.713" height="191.315"/>
		</g>
		<g>
			<rect x="190.736" y="1020.812" fill="#B0BEC5" width="53.829" height="3.713"/>
			
				<rect x="197.847" y="1018.455" transform="matrix(0.7071 0.7071 -0.7071 0.7071 787.5071 160.7563)" fill="#B0BEC5" width="3.712" height="25.057"/>
			
				<rect x="233.74" y="1018.454" transform="matrix(-0.7071 0.7071 -0.7071 -0.7071 1131.2031 1593.407)" fill="#B0BEC5" width="3.712" height="25.059"/>
		</g>
		<g>
			<rect x="190.736" y="1058.38" fill="#B0BEC5" width="53.829" height="3.712"/>
			
				<rect x="197.847" y="1056.023" transform="matrix(0.7071 0.7071 -0.7071 0.7071 814.0713 171.7595)" fill="#B0BEC5" width="3.712" height="25.056"/>
			
				<rect x="233.74" y="1056.022" transform="matrix(-0.7071 0.7071 -0.7071 -0.7071 1157.7673 1657.5386)" fill="#B0BEC5" width="3.712" height="25.057"/>
		</g>
		<g>
			<rect x="190.736" y="1095.944" fill="#B0BEC5" width="53.829" height="3.713"/>
			
				<rect x="197.847" y="1093.587" transform="matrix(0.7071 0.7071 -0.7071 0.7071 840.6334 182.7619)" fill="#B0BEC5" width="3.712" height="25.056"/>
			
				<rect x="233.74" y="1093.587" transform="matrix(-0.7071 0.7071 -0.7071 -0.7071 1184.3293 1721.665)" fill="#B0BEC5" width="3.712" height="25.057"/>
		</g>
		<g>
			<rect x="190.736" y="1133.511" fill="#B0BEC5" width="53.829" height="3.711"/>
			
				<rect x="197.847" y="1131.154" transform="matrix(0.7071 0.7071 -0.7071 0.7071 867.1968 193.7648)" fill="#B0BEC5" width="3.712" height="25.056"/>
			
				<rect x="233.74" y="1131.153" transform="matrix(-0.7071 0.7071 -0.7071 -0.7071 1210.8928 1785.7949)" fill="#B0BEC5" width="3.712" height="25.057"/>
		</g>
		<g>
			<rect x="190.736" y="1171.075" fill="#B0BEC5" width="53.829" height="3.713"/>
			
				<rect x="197.847" y="1168.718" transform="matrix(0.7071 0.7071 -0.7071 0.7071 893.7589 204.7672)" fill="#B0BEC5" width="3.712" height="25.056"/>
			
				<rect x="233.74" y="1168.717" transform="matrix(-0.7071 0.7071 -0.7071 -0.7071 1237.455 1849.9215)" fill="#B0BEC5" width="3.712" height="25.057"/>
		</g>
	</g>
	<g>
		<g>
			<rect x="491.648" y="1017.504" fill="#B0BEC5" width="3.712" height="191.315"/>
			<rect x="545.476" y="1017.504" fill="#B0BEC5" width="3.713" height="191.315"/>
		</g>
		<g>
			<rect x="493.504" y="1020.812" fill="#B0BEC5" width="53.828" height="3.713"/>
			
				<rect x="500.615" y="1018.455" transform="matrix(0.7071 0.7071 -0.7071 0.7071 876.1857 -53.3328)" fill="#B0BEC5" width="3.712" height="25.057"/>
			
				<rect x="536.507" y="1018.454" transform="matrix(-0.7071 0.7071 -0.7071 -0.7071 1648.059 1379.3184)" fill="#B0BEC5" width="3.712" height="25.059"/>
		</g>
		<g>
			<rect x="493.504" y="1058.38" fill="#B0BEC5" width="53.828" height="3.712"/>
			
				<rect x="500.615" y="1056.023" transform="matrix(0.7071 0.7071 -0.7071 0.7071 902.7499 -42.3295)" fill="#B0BEC5" width="3.712" height="25.056"/>
			
				<rect x="536.507" y="1056.022" transform="matrix(-0.7071 0.7071 -0.7071 -0.7071 1674.623 1443.45)" fill="#B0BEC5" width="3.712" height="25.058"/>
		</g>
		<g>
			<rect x="493.504" y="1095.944" fill="#B0BEC5" width="53.828" height="3.713"/>
			
				<rect x="500.615" y="1093.587" transform="matrix(0.7071 0.7071 -0.7071 0.7071 929.312 -31.3271)" fill="#B0BEC5" width="3.712" height="25.056"/>
			
				<rect x="536.507" y="1093.586" transform="matrix(-0.7071 0.7071 -0.7071 -0.7071 1701.1852 1507.5764)" fill="#B0BEC5" width="3.712" height="25.058"/>
		</g>
		<g>
			<rect x="493.504" y="1133.511" fill="#B0BEC5" width="53.828" height="3.711"/>
			
				<rect x="500.615" y="1131.154" transform="matrix(0.7071 0.7071 -0.7071 0.7071 955.8754 -20.3242)" fill="#B0BEC5" width="3.712" height="25.056"/>
			
				<rect x="536.507" y="1131.153" transform="matrix(-0.7071 0.7071 -0.7071 -0.7071 1727.7487 1571.7063)" fill="#B0BEC5" width="3.712" height="25.058"/>
		</g>
		<g>
			<rect x="493.504" y="1171.075" fill="#B0BEC5" width="53.828" height="3.713"/>
			
				<rect x="500.615" y="1168.718" transform="matrix(0.7071 0.7071 -0.7071 0.7071 982.4375 -9.3218)" fill="#B0BEC5" width="3.712" height="25.056"/>
			
				<rect x="536.507" y="1168.717" transform="matrix(-0.7071 0.7071 -0.7071 -0.7071 1754.3107 1635.8329)" fill="#B0BEC5" width="3.712" height="25.058"/>
		</g>
	</g>
	<g>
		<g>
			<rect x="643.029" y="1017.504" fill="#B0BEC5" width="3.712" height="191.315"/>
			<rect x="696.857" y="1017.504" fill="#B0BEC5" width="3.713" height="191.315"/>
		</g>
		<g>
			<rect x="644.886" y="1020.812" fill="#B0BEC5" width="53.829" height="3.713"/>
			
				<rect x="651.998" y="1018.454" transform="matrix(0.7071 0.7071 -0.7071 0.7071 920.5249 -160.3768)" fill="#B0BEC5" width="3.712" height="25.059"/>
			
				<rect x="687.891" y="1018.455" transform="matrix(-0.7071 0.7071 -0.7071 -0.7071 1906.4872 1272.2739)" fill="#B0BEC5" width="3.712" height="25.057"/>
		</g>
		<g>
			<rect x="644.886" y="1058.38" fill="#B0BEC5" width="53.829" height="3.712"/>
			
				<rect x="651.998" y="1056.022" transform="matrix(0.7071 0.7071 -0.7071 0.7071 947.089 -149.3737)" fill="#B0BEC5" width="3.712" height="25.058"/>
			
				<rect x="687.891" y="1056.023" transform="matrix(-0.7071 0.7071 -0.7071 -0.7071 1933.0514 1336.4054)" fill="#B0BEC5" width="3.712" height="25.055"/>
		</g>
		<g>
			<rect x="644.886" y="1095.944" fill="#B0BEC5" width="53.829" height="3.713"/>
			
				<rect x="651.998" y="1093.586" transform="matrix(0.7071 0.7071 -0.7071 0.7071 973.6511 -138.3712)" fill="#B0BEC5" width="3.712" height="25.058"/>
			
				<rect x="687.891" y="1093.588" transform="matrix(-0.7071 0.7071 -0.7071 -0.7071 1959.6134 1400.532)" fill="#B0BEC5" width="3.712" height="25.055"/>
		</g>
		<g>
			<rect x="644.886" y="1133.511" fill="#B0BEC5" width="53.829" height="3.711"/>
			
				<rect x="651.998" y="1131.153" transform="matrix(0.7071 0.7071 -0.7071 0.7071 1000.2146 -127.3683)" fill="#B0BEC5" width="3.712" height="25.058"/>
			
				<rect x="687.891" y="1131.154" transform="matrix(-0.7071 0.7071 -0.7071 -0.7071 1986.1769 1464.6619)" fill="#B0BEC5" width="3.712" height="25.055"/>
		</g>
		<g>
			<rect x="644.886" y="1171.075" fill="#B0BEC5" width="53.829" height="3.713"/>
			
				<rect x="651.998" y="1168.717" transform="matrix(0.7071 0.7071 -0.7071 0.7071 1026.7766 -116.366)" fill="#B0BEC5" width="3.712" height="25.058"/>
			
				<rect x="687.891" y="1168.718" transform="matrix(-0.7071 0.7071 -0.7071 -0.7071 2012.739 1528.7883)" fill="#B0BEC5" width="3.712" height="25.055"/>
		</g>
	</g>
</g>
<g>
	<path fill="#E9682F" d="M1200.83,1098.013c-2.576,0-5.083,0.293-7.497,0.831c-7.436,1.659-13.958,5.727-18.708,11.348h27.115
		h25.299C1220.746,1102.745,1211.344,1098.013,1200.83,1098.013z"/>
	<polygon fill="#B0BEC5" points="1256.148,1143.375 1287.373,1142.182 1289.717,1139.472 1304.782,1139.472 1308.469,1119.616 
		1177.004,1127.889 1208.408,1183.052 	"/>
	<polygon fill="#263238" points="1166.604,1145.761 1179.438,1161.531 1197.924,1158.595 1181.215,1154.908 1166.604,1136.476 	"/>
	<polygon fill="#263238" points="1105.297,1142.182 1096.695,1171.874 1152.608,1173.41 1164.078,1151.495 1167.969,1150.607 
		1169.049,1137.979 1180.564,1135.623 1156.807,1125.364 1122.59,1122.822 	"/>
	<polygon fill="#263238" points="1150.423,1160.514 1150.423,1185.826 1265.801,1185.826 1265.801,1135.375 	"/>
	<g>
		<path fill="#282921" d="M1289.717,1175.752c0-18.54-15.029-33.57-33.57-33.57c-18.539,0-33.567,15.03-33.567,33.57
			c0,18.537,15.028,33.569,33.567,33.569C1274.688,1209.321,1289.717,1194.289,1289.717,1175.752"/>
		<path fill="#E6B660" d="M1276.432,1175.752c0-11.201-9.082-20.282-20.283-20.282s-20.28,9.081-20.28,20.282
			c0,11.2,9.079,20.279,20.28,20.279S1276.432,1186.952,1276.432,1175.752"/>
		<path fill="#B0762A" d="M1266.463,1175.752c0-5.696-4.615-10.317-10.316-10.317c-5.696,0-10.313,4.62-10.313,10.317
			c0,5.696,4.616,10.314,10.313,10.314C1261.848,1186.065,1266.463,1181.448,1266.463,1175.752"/>
	</g>
	<g>
		<path fill="#282921" d="M1172.619,1175.752c0-18.54-15.029-33.57-33.569-33.57s-33.569,15.03-33.569,33.57
			c0,18.537,15.029,33.569,33.569,33.569C1157.59,1209.32,1172.619,1194.289,1172.619,1175.752"/>
		<path fill="#E6B660" d="M1159.332,1175.752c0-11.201-9.082-20.282-20.283-20.282s-20.281,9.081-20.281,20.282
			c0,11.2,9.08,20.279,20.281,20.279S1159.332,1186.952,1159.332,1175.752"/>
		<path fill="#B0762A" d="M1149.365,1175.752c0-5.696-4.617-10.317-10.315-10.317c-5.697,0-10.315,4.62-10.315,10.317
			c0,5.696,4.617,10.314,10.315,10.314C1144.746,1186.065,1149.365,1181.448,1149.365,1175.752"/>
	</g>
	<polygon fill="#FFD54E" points="1099.629,1137.499 1095.67,1156.616 1102.36,1156.616 1113.557,1137.499 	"/>
	<polygon fill="#FAA629" points="1163.348,1116.949 1159.162,1132.312 1189.474,1132.312 1189.474,1116.949 	"/>
	<polygon fill="#E6B660" points="1139.228,1100.907 1110.281,1100.907 1102.768,1126.222 1148.096,1121.756 	"/>
	<polygon fill="#263238" points="1139.228,1100.907 1110.281,1100.907 1102.768,1126.222 1148.096,1121.756 	"/>
	
		<rect x="1194.952" y="1145.365" transform="matrix(0.2132 0.977 -0.977 0.2132 2064.9229 -266.4666)" fill="#FFD54E" width="5.887" height="6.794"/>
	
		<rect x="1212.551" y="1141.665" transform="matrix(0.213 0.9771 -0.9771 0.213 2075.3867 -286.4341)" fill="#FFD54E" width="5.887" height="6.792"/>
	
		<rect x="1230.176" y="1137.979" transform="matrix(0.213 0.977 -0.977 0.213 2085.604 -306.5847)" fill="#FFD54E" width="5.886" height="6.792"/>
	
		<rect x="1247.804" y="1134.194" transform="matrix(0.2128 0.9771 -0.9771 0.2128 2096.0713 -326.6187)" fill="#FFD54E" width="5.887" height="6.796"/>
	
		<rect x="1265.335" y="1130.489" transform="matrix(0.2133 0.977 -0.977 0.2133 2105.4763 -347.1027)" fill="#FFD54E" width="5.887" height="6.793"/>
	
		<rect x="1282.969" y="1126.82" transform="matrix(0.2127 0.9771 -0.9771 0.2127 2116.6802 -366.7069)" fill="#FFD54E" width="5.885" height="6.792"/>
	<polygon fill="#FFD54E" points="1299.58,1124.35 1300.835,1130.101 1307.471,1128.654 1306.221,1122.903 	"/>
	<polyline fill="#FFD54E" points="1329.154,1118.657 1325.059,1125.348 1318.422,1126.795 1317.166,1121.042 	"/>
	<polygon fill="#FFD54E" points="1099.591,1091.076 1099.591,1095.445 1150.387,1095.445 1181.789,1150.607 1328.434,1118.657 
		1328.434,1110.191 1171.685,1110.191 1160.762,1091.076 	"/>
	<polygon fill="#546E7A" points="1137.59,1103.364 1111.918,1103.364 1107.412,1118.552 1142.576,1115.088 	"/>
	<polygon fill="#455B65" points="1107.412,1118.552 1104.406,1128.68 1146.457,1124.212 1142.576,1115.088 	"/>
	<rect x="1122.59" y="1101.561" fill="#263238" width="2.457" height="23.311"/>
	<polygon fill="#FFD54E" points="1148.096,1121.756 1102.768,1126.222 1100.312,1134.496 1096.49,1134.496 1094.988,1135.861 
		1094.988,1139.957 1154.793,1139.957 	"/>
	<rect x="1174.625" y="1162.037" fill="#FFD54E" width="45.672" height="35.135"/>
	<rect x="1095.67" y="1156.616" fill="#FFD54E" width="6.82" height="32.223"/>
	<rect x="1180.465" y="1167.59" fill="#FCB316" width="5.463" height="24.03"/>
	<rect x="1189.975" y="1167.59" fill="#FCB316" width="5.461" height="24.03"/>
	<rect x="1199.484" y="1167.59" fill="#FCB316" width="5.462" height="24.03"/>
	<rect x="1208.996" y="1167.59" fill="#FCB316" width="5.459" height="24.03"/>
	<polygon fill="#FCB316" points="1176.024,1117.838 1188.664,1140.041 1290.566,1117.838 	"/>
	<rect x="1088.98" y="1111.968" fill="#37474F" width="1.006" height="26.794"/>
	<rect x="1101.371" y="1111.968" fill="#37474F" width="1.007" height="26.794"/>
	<rect x="1114.769" y="1111.968" fill="#37474F" width="1.007" height="26.794"/>
	<rect x="1114.769" y="1111.968" fill="#37474F" width="1.007" height="26.794"/>
	<rect x="1127.159" y="1111.968" fill="#37474F" width="1.006" height="26.794"/>
	<rect x="1140.557" y="1111.968" fill="#37474F" width="1.008" height="26.794"/>
	<rect x="1088.98" y="1111.464" fill="#37474F" width="52.584" height="1.007"/>
	<rect x="1088.98" y="1124.861" fill="#37474F" width="52.584" height="1.007"/>
	<rect x="1088.98" y="1139.487" fill="#37474F" width="6.051" height="0.453"/>
	<rect x="1088.98" y="1138.762" fill="#37474F" width="52.584" height="1.195"/>
	<polygon fill="#FFD54E" points="1139.228,1100.892 1138.416,1098.982 1110.874,1098.982 1110.303,1100.907 1139.228,1100.907 	"/>
	<path fill="#F3824D" d="M1215.58,1110.191h43.783c4.75-5.621,11.273-9.688,18.71-11.347c-9.036-9.148-21.581-14.821-35.456-14.821
		c-16.449,0-31.035,7.973-40.107,20.264C1207.695,1104.349,1212.35,1106.612,1215.58,1110.191z"/>
	<path fill="#E9682F" d="M1307.75,1110.191c-6.295-7.446-15.696-12.179-26.209-12.179c-2.576,0-5.084,0.293-7.498,0.831
		c3.309,3.352,6.148,7.169,8.406,11.348H1307.75L1307.75,1110.191z"/>
	<path fill="#E9682F" d="M1255.334,1110.191h27.115c-2.257-4.178-5.098-7.995-8.406-11.347
		C1266.607,1100.503,1260.084,1104.57,1255.334,1110.191z"/>
	<path fill="#F58967" d="M1202.51,1104.285c-0.074-0.001-0.145-0.005-0.218-0.005c-5.273,0-10.015,2.281-13.29,5.911h9.755
		C1199.871,1108.13,1201.127,1106.159,1202.51,1104.285z"/>
	<path fill="#F58967" d="M1215.58,1110.191c-3.23-3.579-7.885-5.843-13.07-5.904c-1.383,1.873-2.639,3.845-3.752,5.904H1215.58z"/>
</g>
<g>
	<path fill="#EA6831" d="M791.405,1193.679c11.033,0,20.487,6.744,24.475,16.334h34.416c-24.352-16.102-53.535-25.484-84.914-25.484
		c-2.772,0-5.526,0.077-8.264,0.222c8.773,2.584,17.119,6.175,24.89,10.65C784.93,1194.29,788.095,1193.679,791.405,1193.679z"/>
	<path fill="#F4844D" d="M757.118,1184.749c-10.369-3.053-21.34-4.699-32.697-4.699c-29.885,0-57.121,11.347-77.636,29.963h33.683
		C702.667,1195.334,728.883,1186.24,757.118,1184.749z"/>
	<path fill="#F4844D" d="M766.929,1210.013c2.791-6.713,8.264-12.026,15.079-14.612c-7.771-4.477-16.115-8.066-24.89-10.65
		c-28.235,1.491-54.451,10.585-76.65,25.264L766.929,1210.013L766.929,1210.013z"/>
	<path fill="#F58967" d="M815.88,1210.013c-3.986-9.59-13.44-16.334-24.475-16.334c-3.312,0-6.477,0.611-9.397,1.722
		c7.21,4.15,13.93,9.059,20.049,14.612H815.88z"/>
	<path fill="#F58967" d="M782.008,1195.399c-6.815,2.586-12.288,7.899-15.079,14.612h35.128
		C795.938,1204.458,789.218,1199.551,782.008,1195.399z"/>
</g>
<g>
	<g>
		<g>
			<g>
				<polyline fill="none" stroke="#434343" stroke-width="2.4294" stroke-miterlimit="10" points="119.202,610.788 261.256,525.273 
					477.177,626.035 				"/>
				<g>
					<polyline fill="none" stroke="#FFCB28" stroke-width="2.4294" stroke-miterlimit="10" points="496.462,647.27 282.602,647.27 
						282.602,626.133 496.462,626.133 					"/>
					
						<line fill="none" stroke="#FFCB28" stroke-width="2.4294" stroke-miterlimit="10" x1="311.756" y1="647.968" x2="311.756" y2="626.702"/>
					
						<line fill="none" stroke="#FFCB28" stroke-width="2.4294" stroke-miterlimit="10" x1="340.907" y1="626.702" x2="340.907" y2="647.968"/>
					
						<line fill="none" stroke="#FFCB28" stroke-width="2.4294" stroke-miterlimit="10" x1="370.061" y1="626.702" x2="370.061" y2="647.968"/>
					
						<line fill="none" stroke="#FFCB28" stroke-width="2.4294" stroke-miterlimit="10" x1="399.213" y1="626.702" x2="399.213" y2="647.968"/>
					
						<line fill="none" stroke="#FFCB28" stroke-width="2.4294" stroke-miterlimit="10" x1="428.369" y1="626.702" x2="428.369" y2="647.968"/>
					
						<line fill="none" stroke="#FFCB28" stroke-width="2.4294" stroke-miterlimit="10" x1="457.517" y1="626.702" x2="457.517" y2="647.968"/>
					
						<line fill="none" stroke="#FFCB28" stroke-width="2.4294" stroke-miterlimit="10" x1="282.602" y1="626.133" x2="311.756" y2="647.27"/>
					
						<line fill="none" stroke="#FFCB28" stroke-width="2.4294" stroke-miterlimit="10" x1="311.756" y1="626.133" x2="340.907" y2="647.27"/>
					
						<line fill="none" stroke="#FFCB28" stroke-width="2.4294" stroke-miterlimit="10" x1="340.907" y1="626.133" x2="370.061" y2="647.27"/>
					
						<line fill="none" stroke="#FFCB28" stroke-width="2.4294" stroke-miterlimit="10" x1="370.061" y1="626.133" x2="399.213" y2="647.27"/>
					
						<line fill="none" stroke="#FFCB28" stroke-width="2.4294" stroke-miterlimit="10" x1="399.213" y1="626.133" x2="428.369" y2="647.27"/>
					
						<line fill="none" stroke="#FFCB28" stroke-width="2.4294" stroke-miterlimit="10" x1="428.369" y1="626.133" x2="457.517" y2="647.27"/>
					
						<line fill="none" stroke="#FFCB28" stroke-width="2.4294" stroke-miterlimit="10" x1="458.007" y1="626.035" x2="487.158" y2="647.171"/>
				</g>
				<g>
					
						<line fill="none" stroke="#FFCB28" stroke-width="2.4294" stroke-miterlimit="10" x1="260.689" y1="583.58" x2="239.424" y2="583.58"/>
					
						<line fill="none" stroke="#FFCB28" stroke-width="2.4294" stroke-miterlimit="10" x1="260.689" y1="612.733" x2="239.424" y2="612.733"/>
					
						<line fill="none" stroke="#FFCB28" stroke-width="2.4294" stroke-miterlimit="10" x1="261.256" y1="583.58" x2="240.119" y2="612.733"/>
					
						<line fill="none" stroke="#FFCB28" stroke-width="2.4294" stroke-miterlimit="10" x1="261.256" y1="612.733" x2="240.119" y2="641.889"/>
					<polyline fill="none" stroke="#FFCB28" stroke-width="2.4294" stroke-miterlimit="10" points="240.119,554.427 
						261.256,554.427 261.256,709.979 240.119,709.979 240.119,554.427 261.256,525.273 261.256,554.427 240.119,583.58 					"/>
				</g>
				
					<line fill="none" stroke="#FFCB28" stroke-width="2.4294" stroke-miterlimit="10" x1="260.689" y1="641.889" x2="239.424" y2="641.889"/>
				
					<line fill="none" stroke="#FFCB28" stroke-width="2.4294" stroke-miterlimit="10" x1="260.689" y1="671.039" x2="239.424" y2="671.039"/>
				
					<line fill="none" stroke="#FFCB28" stroke-width="2.4294" stroke-miterlimit="10" x1="261.256" y1="641.889" x2="240.119" y2="671.039"/>
				
					<line fill="none" stroke="#FFCB28" stroke-width="2.4294" stroke-miterlimit="10" x1="261.356" y1="671.524" x2="240.221" y2="700.677"/>
				<g>
					
						<rect x="90.049" y="626.133" fill="none" stroke="#FFCB28" stroke-width="2.4294" stroke-miterlimit="10" width="213.858" height="21.136"/>
					
						<line fill="none" stroke="#FFCB28" stroke-width="2.4294" stroke-miterlimit="10" x1="119.202" y1="647.968" x2="119.202" y2="626.702"/>
					
						<line fill="none" stroke="#FFCB28" stroke-width="2.4294" stroke-miterlimit="10" x1="148.356" y1="626.702" x2="148.356" y2="647.968"/>
					
						<line fill="none" stroke="#FFCB28" stroke-width="2.4294" stroke-miterlimit="10" x1="177.508" y1="626.702" x2="177.508" y2="647.968"/>
					
						<line fill="none" stroke="#FFCB28" stroke-width="2.4294" stroke-miterlimit="10" x1="206.66" y1="626.702" x2="206.66" y2="647.968"/>
					
						<line fill="none" stroke="#FFCB28" stroke-width="2.4294" stroke-miterlimit="10" x1="235.814" y1="626.702" x2="235.814" y2="647.968"/>
					
						<line fill="none" stroke="#FFCB28" stroke-width="2.4294" stroke-miterlimit="10" x1="264.968" y1="626.702" x2="264.968" y2="647.968"/>
					
						<line fill="none" stroke="#FFCB28" stroke-width="2.4294" stroke-miterlimit="10" x1="90.049" y1="626.133" x2="119.202" y2="647.27"/>
					
						<line fill="none" stroke="#FFCB28" stroke-width="2.4294" stroke-miterlimit="10" x1="119.202" y1="626.133" x2="148.356" y2="647.27"/>
					
						<line fill="none" stroke="#FFCB28" stroke-width="2.4294" stroke-miterlimit="10" x1="148.356" y1="626.133" x2="177.508" y2="647.27"/>
					
						<line fill="none" stroke="#FFCB28" stroke-width="2.4294" stroke-miterlimit="10" x1="177.508" y1="626.133" x2="206.66" y2="647.27"/>
					
						<line fill="none" stroke="#FFCB28" stroke-width="2.4294" stroke-miterlimit="10" x1="206.66" y1="626.133" x2="235.814" y2="647.27"/>
					
						<line fill="none" stroke="#FFCB28" stroke-width="2.4294" stroke-miterlimit="10" x1="235.814" y1="626.133" x2="264.968" y2="647.27"/>
					
						<line fill="none" stroke="#FFCB28" stroke-width="2.4294" stroke-miterlimit="10" x1="265.452" y1="626.035" x2="294.605" y2="647.171"/>
				</g>
				<rect x="217.495" y="626.035" fill="#FFD54E" width="96.915" height="36.402"/>
				<rect x="227.417" y="673.974" fill="#FAA629" width="55.271" height="36.401"/>
				
					<rect x="237.335" y="724.626" fill="none" stroke="#FFCB28" stroke-width="4.0726" stroke-miterlimit="10" width="35.431" height="470.564"/>
				<rect x="228.783" y="1178.084" fill="#FFCB28" width="52.535" height="30.953"/>
				<g>
					<polygon fill="#FFD54E" points="292.567,1184.787 289.225,1184.787 292.567,1188.133 					"/>
					<polygon fill="#FFD54E" points="217.534,1209.63 221.216,1209.63 217.534,1205.949 					"/>
					<polygon fill="#434343" points="217.534,1205.949 221.216,1209.63 234.481,1209.63 217.534,1192.685 					"/>
					<polygon fill="#434343" points="292.567,1188.133 289.225,1184.787 275.96,1184.787 292.567,1201.396 					"/>
					<polygon fill="#FFD54E" points="217.534,1184.787 217.534,1192.685 234.481,1209.63 247.746,1209.63 222.902,1184.787 					"/>
					<polygon fill="#FFD54E" points="292.567,1201.396 275.96,1184.787 262.696,1184.787 287.537,1209.63 292.567,1209.63 					"/>
					<polygon fill="#FFD54E" points="236.165,1184.787 261.008,1209.63 274.274,1209.63 249.43,1184.787 					"/>
					<polygon fill="#434343" points="222.902,1184.787 247.746,1209.63 261.008,1209.63 236.165,1184.787 					"/>
					<polygon fill="#434343" points="249.43,1184.787 274.274,1209.63 287.537,1209.63 262.696,1184.787 					"/>
				</g>
				
					<line fill="none" stroke="#FFCB28" stroke-width="4.0726" stroke-miterlimit="10" x1="271.816" y1="724.626" x2="236.168" y2="724.626"/>
				
					<line fill="none" stroke="#FFCB28" stroke-width="4.0726" stroke-miterlimit="10" x1="236.168" y1="773.499" x2="271.816" y2="773.499"/>
				
					<line fill="none" stroke="#FFCB28" stroke-width="4.0726" stroke-miterlimit="10" x1="271.816" y1="822.368" x2="236.168" y2="822.368"/>
				
					<line fill="none" stroke="#FFCB28" stroke-width="4.0726" stroke-miterlimit="10" x1="271.816" y1="871.241" x2="236.168" y2="871.241"/>
				
					<line fill="none" stroke="#FFCB28" stroke-width="4.0726" stroke-miterlimit="10" x1="271.816" y1="920.111" x2="236.168" y2="920.111"/>
				
					<line fill="none" stroke="#FFCB28" stroke-width="4.0726" stroke-miterlimit="10" x1="271.816" y1="968.982" x2="236.168" y2="968.982"/>
				
					<line fill="none" stroke="#FFCB28" stroke-width="4.0726" stroke-miterlimit="10" x1="271.816" y1="1017.852" x2="236.168" y2="1017.852"/>
				
					<line fill="none" stroke="#FFCB28" stroke-width="4.0726" stroke-miterlimit="10" x1="271.816" y1="1066.725" x2="236.168" y2="1066.725"/>
				
					<line fill="none" stroke="#FFCB28" stroke-width="4.0726" stroke-miterlimit="10" x1="272.766" y1="724.626" x2="237.335" y2="773.499"/>
				
					<line fill="none" stroke="#FFCB28" stroke-width="4.0726" stroke-miterlimit="10" x1="272.766" y1="773.499" x2="237.335" y2="822.368"/>
				
					<line fill="none" stroke="#FFCB28" stroke-width="4.0726" stroke-miterlimit="10" x1="272.766" y1="822.368" x2="237.335" y2="871.241"/>
				
					<line fill="none" stroke="#FFCB28" stroke-width="4.0726" stroke-miterlimit="10" x1="272.766" y1="871.241" x2="237.335" y2="920.111"/>
				
					<line fill="none" stroke="#FFCB28" stroke-width="4.0726" stroke-miterlimit="10" x1="272.766" y1="920.111" x2="237.335" y2="968.982"/>
				
					<line fill="none" stroke="#FFCB28" stroke-width="4.0726" stroke-miterlimit="10" x1="272.766" y1="968.982" x2="237.335" y2="1017.852"/>
				
					<line fill="none" stroke="#FFCB28" stroke-width="4.0726" stroke-miterlimit="10" x1="272.936" y1="1018.666" x2="237.503" y2="1067.539"/>
				<rect x="228.783" y="709.15" fill="#434343" width="52.535" height="15.476"/>
				<rect x="219.363" y="702.636" fill="#FFCB28" width="71.375" height="15.477"/>
				<rect x="210.56" y="659.991" fill="#FFCB28" width="111.587" height="5.721"/>
				<polygon fill="#434343" points="282.686,673.974 317.804,665.712 213.971,665.712 227.417,673.974 				"/>
				<rect x="261.874" y="629.859" fill="#434343" width="52.536" height="21.985"/>
				<rect x="69.922" y="610.985" fill="#434343" width="46.155" height="72.763"/>
				<rect x="90.049" y="610.788" fill="#757576" width="14.577" height="72.765"/>
				<rect x="104.624" y="610.985" fill="#616262" width="11.452" height="72.763"/>
				<rect x="54.361" y="603.05" fill="#FFCB28" width="71.375" height="15.475"/>
			</g>
			<g>
				
					<rect x="486.686" y="626.15" fill="none" stroke="#FFCB28" stroke-width="2.4294" stroke-miterlimit="10" width="204.557" height="21.136"/>
				
					<line fill="none" stroke="#FFCB28" stroke-width="2.4294" stroke-miterlimit="10" x1="544.993" y1="626.717" x2="544.993" y2="647.984"/>
				
					<line fill="none" stroke="#FFCB28" stroke-width="2.4294" stroke-miterlimit="10" x1="574.146" y1="626.717" x2="574.146" y2="647.984"/>
				
					<line fill="none" stroke="#FFCB28" stroke-width="2.4294" stroke-miterlimit="10" x1="603.296" y1="626.717" x2="603.296" y2="647.984"/>
				
					<line fill="none" stroke="#FFCB28" stroke-width="2.4294" stroke-miterlimit="10" x1="632.45" y1="626.717" x2="632.45" y2="647.984"/>
				
					<line fill="none" stroke="#FFCB28" stroke-width="2.4294" stroke-miterlimit="10" x1="661.603" y1="626.717" x2="661.603" y2="647.984"/>
				
					<line fill="none" stroke="#FFCB28" stroke-width="2.4294" stroke-miterlimit="10" x1="515.836" y1="626.15" x2="544.993" y2="647.286"/>
				
					<line fill="none" stroke="#FFCB28" stroke-width="2.4294" stroke-miterlimit="10" x1="544.993" y1="626.15" x2="574.146" y2="647.286"/>
				
					<line fill="none" stroke="#FFCB28" stroke-width="2.4294" stroke-miterlimit="10" x1="574.146" y1="626.15" x2="603.296" y2="647.286"/>
				
					<line fill="none" stroke="#FFCB28" stroke-width="2.4294" stroke-miterlimit="10" x1="603.296" y1="626.15" x2="632.45" y2="647.286"/>
				
					<line fill="none" stroke="#FFCB28" stroke-width="2.4294" stroke-miterlimit="10" x1="632.45" y1="626.15" x2="661.603" y2="647.286"/>
				
					<line fill="none" stroke="#FFCB28" stroke-width="2.4294" stroke-miterlimit="10" x1="662.089" y1="626.047" x2="691.243" y2="647.185"/>
				
					<line fill="none" stroke="#FFCB28" stroke-width="2.4294" stroke-miterlimit="10" x1="515.839" y1="626.999" x2="515.839" y2="648.266"/>
				
					<line fill="none" stroke="#FFCB28" stroke-width="2.4294" stroke-miterlimit="10" x1="486.686" y1="626.432" x2="515.839" y2="647.569"/>
			</g>
			
				<line fill="none" stroke="#FFCB28" stroke-width="2.4294" stroke-miterlimit="10" x1="749.55" y1="626.717" x2="749.55" y2="647.984"/>
			
				<line fill="none" stroke="#FFCB28" stroke-width="2.4294" stroke-miterlimit="10" x1="778.702" y1="626.717" x2="778.702" y2="647.984"/>
			
				<line fill="none" stroke="#FFCB28" stroke-width="2.4294" stroke-miterlimit="10" x1="720.395" y1="626.15" x2="749.55" y2="647.286"/>
			
				<line fill="none" stroke="#FFCB28" stroke-width="2.4294" stroke-miterlimit="10" x1="749.55" y1="626.15" x2="778.702" y2="647.286"/>
			
				<line fill="none" stroke="#FFCB28" stroke-width="2.4294" stroke-miterlimit="10" x1="720.396" y1="626.999" x2="720.396" y2="648.266"/>
			
				<line fill="none" stroke="#FFCB28" stroke-width="2.4294" stroke-miterlimit="10" x1="691.243" y1="626.432" x2="720.396" y2="647.569"/>
			<polyline fill="none" stroke="#FFCB28" stroke-width="2.4294" stroke-miterlimit="10" points="778.663,626.15 778.663,647.286 
				603.296,647.286 603.296,626.15 778.663,626.15 807.815,647.286 778.663,647.286 749.507,626.15 			"/>
		</g>
		<g>
			<g>
				<rect x="754.167" y="638.718" fill="#434343" width="52.536" height="21.985"/>
				<rect x="765.267" y="645.557" fill="#E0E0E0" width="41.436" height="12.023"/>
			</g>
			<rect x="773.207" y="674.143" fill="#434343" width="14.459" height="5.022"/>
			<rect x="777.933" y="677.399" fill="#434343" width="5.002" height="8.688"/>
			<path fill="#434343" d="M780.435,682.719L780.435,682.719v3.37l0,0c1.762,0,3.189,1.428,3.189,3.188
				c0,1.761-1.429,3.189-3.189,3.189c-0.883,0-1.679-0.357-2.254-0.935l-2.38,2.382c1.185,1.187,2.825,1.918,4.637,1.918
				c3.622,0,6.558-2.937,6.558-6.556C786.993,685.654,784.057,682.719,780.435,682.719z"/>
			
				<line fill="none" stroke="#434343" stroke-width="1.629" stroke-miterlimit="10" x1="780.016" y1="659.48" x2="780.016" y2="676.654"/>
			
				<line fill="none" stroke="#434343" stroke-width="1.629" stroke-miterlimit="10" x1="780.435" y1="691.287" x2="780.435" y2="708.462"/>
			<rect x="775.878" y="700.608" fill="#616262" width="9.112" height="19.957"/>
		</g>
	</g>
	
		<line fill="none" stroke="#FFCB28" stroke-width="4.0726" stroke-miterlimit="10" x1="272.376" y1="1166.094" x2="261.008" y2="1181.773"/>
	
		<line fill="none" stroke="#FFCB28" stroke-width="4.0726" stroke-miterlimit="10" x1="271.258" y1="1116.408" x2="235.607" y2="1116.408"/>
	
		<line fill="none" stroke="#FFCB28" stroke-width="4.0726" stroke-miterlimit="10" x1="271.258" y1="1165.278" x2="235.607" y2="1165.278"/>
	
		<line fill="none" stroke="#FFCB28" stroke-width="4.0726" stroke-miterlimit="10" x1="272.208" y1="1067.539" x2="236.775" y2="1116.408"/>
	
		<line fill="none" stroke="#FFCB28" stroke-width="4.0726" stroke-miterlimit="10" x1="272.208" y1="1116.408" x2="236.775" y2="1165.278"/>
</g>
<rect y="1208.823" fill="#FCD49B" width="1920" height="131.177"/>
<g id="Layer_2">
</g>
<g>
	<rect x="1316.856" y="1179.7" fill="#37474F" width="2.809" height="29.13"/>
	<rect x="1344.96" y="1179.7" fill="#37474F" width="2.807" height="29.13"/>
	<polygon fill="#FFFFFF" points="1353.534,1182.887 1351.644,1182.887 1353.534,1184.777 	"/>
	<polygon fill="#FFFFFF" points="1311.127,1196.927 1313.207,1196.927 1311.127,1194.846 	"/>
	<polygon fill="#FFFFFF" points="1311.127,1182.887 1311.127,1187.35 1320.703,1196.927 1328.201,1196.927 1314.161,1182.887 	"/>
	<polygon fill="#FFFFFF" points="1353.534,1192.273 1344.147,1182.887 1336.65,1182.887 1350.689,1196.927 1353.534,1196.927 	"/>
	<polygon fill="#FFFFFF" points="1321.658,1182.887 1335.696,1196.927 1343.194,1196.927 1329.154,1182.887 	"/>
	<polygon fill="#EF4438" points="1311.127,1194.846 1313.207,1196.927 1320.703,1196.927 1311.127,1187.35 	"/>
	<polygon fill="#EF4438" points="1314.161,1182.887 1328.201,1196.927 1335.696,1196.927 1321.658,1182.887 	"/>
	<polygon fill="#EF4438" points="1329.154,1182.887 1343.194,1196.927 1350.689,1196.927 1336.65,1182.887 	"/>
	<polygon fill="#EF4438" points="1353.534,1184.777 1351.644,1182.887 1344.147,1182.887 1353.534,1192.273 	"/>
	<rect x="1317.861" y="1202.604" fill="#37474F" width="29.131" height="2.809"/>
</g>
<g>
	<rect x="815.065" y="1179.699" fill="#37474F" width="2.807" height="29.131"/>
	<rect x="843.167" y="1179.699" fill="#37474F" width="2.807" height="29.131"/>
	<polygon fill="#FFFFFF" points="851.741,1182.886 849.852,1182.886 851.741,1184.777 	"/>
	<polygon fill="#FFFFFF" points="809.334,1196.927 811.416,1196.927 809.334,1194.846 	"/>
	<polygon fill="#FFFFFF" points="809.334,1182.886 809.334,1187.35 818.912,1196.927 826.409,1196.927 812.368,1182.886 	"/>
	<polygon fill="#FFFFFF" points="851.741,1192.272 842.354,1182.886 834.858,1182.886 848.898,1196.927 851.741,1196.927 	"/>
	<polygon fill="#FFFFFF" points="819.864,1182.886 833.905,1196.927 841.402,1196.927 827.362,1182.886 	"/>
	<polygon fill="#EF4438" points="809.334,1194.846 811.416,1196.927 818.912,1196.927 809.334,1187.35 	"/>
	<polygon fill="#EF4438" points="812.368,1182.886 826.409,1196.927 833.905,1196.927 819.864,1182.886 	"/>
	<polygon fill="#EF4438" points="827.362,1182.886 841.402,1196.927 848.898,1196.927 834.858,1182.886 	"/>
	<polygon fill="#EF4438" points="851.741,1184.777 849.852,1182.886 842.354,1182.886 851.741,1192.272 	"/>
	<rect x="816.068" y="1202.604" fill="#37474F" width="29.13" height="2.808"/>
</g>
<g>
	<rect x="143.408" y="1179.699" fill="#37474F" width="2.807" height="29.131"/>
	<rect x="171.51" y="1179.699" fill="#37474F" width="2.807" height="29.131"/>
	<polygon fill="#FFFFFF" points="180.084,1182.886 178.194,1182.886 180.084,1184.777 	"/>
	<polygon fill="#FFFFFF" points="137.677,1196.927 139.758,1196.927 137.677,1194.846 	"/>
	<polygon fill="#FFFFFF" points="137.677,1182.886 137.677,1187.35 147.255,1196.927 154.751,1196.927 140.711,1182.886 	"/>
	<polygon fill="#FFFFFF" points="180.084,1192.272 170.697,1182.886 163.201,1182.886 177.241,1196.927 180.084,1196.927 	"/>
	<polygon fill="#FFFFFF" points="148.207,1182.886 162.248,1196.927 169.745,1196.927 155.705,1182.886 	"/>
	<polygon fill="#EF4438" points="137.677,1194.846 139.758,1196.927 147.255,1196.927 137.677,1187.35 	"/>
	<polygon fill="#EF4438" points="140.711,1182.886 154.751,1196.927 162.248,1196.927 148.207,1182.886 	"/>
	<polygon fill="#EF4438" points="155.705,1182.886 169.745,1196.927 177.241,1196.927 163.201,1182.886 	"/>
	<polygon fill="#EF4438" points="180.084,1184.777 178.194,1182.886 170.697,1182.886 180.084,1192.272 	"/>
	<rect x="144.411" y="1202.604" fill="#37474F" width="29.13" height="2.808"/>
</g>
<g>
	<rect x="326.998" y="1179.699" fill="#37474F" width="2.807" height="29.131"/>
	<rect x="355.102" y="1179.699" fill="#37474F" width="2.806" height="29.131"/>
	<polygon fill="#FFFFFF" points="363.675,1182.887 361.784,1182.887 363.675,1184.777 	"/>
	<polygon fill="#FFFFFF" points="321.268,1196.927 323.349,1196.927 321.268,1194.846 	"/>
	<polygon fill="#FFFFFF" points="321.268,1182.887 321.268,1187.35 330.845,1196.927 338.341,1196.927 324.302,1182.887 	"/>
	<polygon fill="#FFFFFF" points="363.675,1192.273 354.288,1182.887 346.792,1182.887 360.832,1196.927 363.675,1196.927 	"/>
	<polygon fill="#FFFFFF" points="331.798,1182.887 345.838,1196.927 353.335,1196.927 339.295,1182.887 	"/>
	<polygon fill="#EF4438" points="321.268,1194.846 323.349,1196.927 330.845,1196.927 321.268,1187.35 	"/>
	<polygon fill="#EF4438" points="324.302,1182.887 338.341,1196.927 345.838,1196.927 331.798,1182.887 	"/>
	<polygon fill="#EF4438" points="339.295,1182.887 353.335,1196.927 360.832,1196.927 346.792,1182.887 	"/>
	<polygon fill="#EF4438" points="363.675,1184.777 361.784,1182.887 354.288,1182.887 363.675,1192.273 	"/>
	<rect x="328.001" y="1202.604" fill="#37474F" width="29.131" height="2.809"/>
</g>
<g>
	<rect x="1254.223" y="1179.7" fill="#37474F" width="2.809" height="29.13"/>
	<rect x="1282.326" y="1179.7" fill="#37474F" width="2.807" height="29.13"/>
	<polygon fill="#FFFFFF" points="1290.899,1182.887 1289.01,1182.887 1290.899,1184.777 	"/>
	<polygon fill="#FFFFFF" points="1248.493,1196.927 1250.574,1196.927 1248.493,1194.846 	"/>
	<polygon fill="#FFFFFF" points="1248.493,1182.887 1248.493,1187.35 1258.07,1196.927 1265.567,1196.927 1251.527,1182.887 	"/>
	<polygon fill="#FFFFFF" points="1290.899,1192.273 1281.514,1182.887 1274.017,1182.887 1288.057,1196.927 1290.899,1196.927 	"/>
	<polygon fill="#FFFFFF" points="1259.024,1182.887 1273.063,1196.927 1280.562,1196.927 1266.521,1182.887 	"/>
	<polygon fill="#EF4438" points="1248.493,1194.846 1250.574,1196.927 1258.07,1196.927 1248.493,1187.35 	"/>
	<polygon fill="#EF4438" points="1251.527,1182.887 1265.567,1196.927 1273.063,1196.927 1259.024,1182.887 	"/>
	<polygon fill="#EF4438" points="1266.521,1182.887 1280.562,1196.927 1288.057,1196.927 1274.017,1182.887 	"/>
	<polygon fill="#EF4438" points="1290.899,1184.777 1289.01,1182.887 1281.514,1182.887 1290.899,1192.273 	"/>
	<rect x="1255.228" y="1202.604" fill="#37474F" width="29.131" height="2.809"/>
</g>
<g>
	<polygon fill="#FFB300" points="1738.898,1125.922 1756.292,1121.893 1758.707,1124.453 1750.252,1131.179 	"/>
	<path fill="#555356" d="M1713.992,1118.661h15.932l3.732-22.533c0,0-13.932-11.379-31.684,1.912L1713.992,1118.661z"/>
	<rect x="1757.762" y="1138.825" fill="#484A3A" width="0.789" height="2.73"/>
	<polygon fill="#645537" points="1756.982,1141.023 1759.33,1141.023 1759.33,1153.828 1756.982,1147.429 	"/>
	<polygon fill="#FFD54E" points="1758.703,1161.916 1740.11,1134.25 1724.119,1124.392 1726.727,1121.005 1750.557,1130.632 
		1761.895,1159.293 1758.63,1162.789 	"/>
	<path fill="#FCB316" d="M1749.842,1175.645l2.78-4.228l12.612,12.654v5.099h4.188v-2.367l5.781,0.229v10.516h-8.604l-4.734-3.971
		C1761.867,1193.575,1764.317,1181.927,1749.842,1175.645z"/>
	<polygon fill="#3E2723" points="1735.635,1094.217 1734.178,1119.793 1713.173,1119.793 1696.106,1092.062 1696.953,1092.062 
		1698.728,1094.217 1729.476,1095.964 	"/>
	<polygon fill="#FCB316" points="1852.634,1191.082 1833.144,1191.082 1798.483,1194.764 1789.437,1194.764 1789.437,1167.229 
		1834.153,1167.229 1852.451,1189.17 	"/>
	<polygon fill="#795722" points="1853.18,1177.653 1847.992,1177.653 1840.809,1153.896 1847.142,1153.896 1853.18,1156.65 	"/>
	<polygon fill="#5D4137" points="1844.714,1177.653 1855.274,1177.653 1855.274,1189.17 1852.451,1189.17 1844.714,1189.17 	"/>
	<path fill="#C2842B" d="M1794.482,1134.27L1794.482,1134.27c-1.514,0-2.754-1.237-2.754-2.754v-3.547
		c0-1.515,1.24-2.754,2.754-2.754c1.517,0,2.754,1.239,2.754,2.754v3.547C1797.236,1133.03,1795.997,1134.27,1794.482,1134.27"/>
	<polygon fill="#B0BEC5" points="1739.154,1138.041 1745.777,1148.248 1746.836,1147.634 1740.042,1137.664 	"/>
	<rect x="1757.303" y="1124.453" fill="#B0BEC5" width="1.707" height="14.372"/>
	<path fill="#484A3A" d="M1752.926,1162.675l-8.051-11.716c-0.891-1.293-0.56-3.078,0.734-3.967
		c1.293-0.889,3.078-0.559,3.969,0.734l8.05,11.717c0.89,1.293,0.558,3.078-0.735,3.967
		C1755.599,1164.299,1753.813,1163.969,1752.926,1162.675"/>
	<polygon fill="#FFD54E" points="1752.622,1171.417 1748.03,1169.87 1748.03,1166.138 1751.763,1166.138 1754.076,1168.191 
		1769.606,1181.979 1769.424,1189.17 1765.236,1189.17 1765.236,1184.071 	"/>
	<path fill="#912A8D" d="M1805.802,1192.814c0.006,0.084,0.007,0.171,0.014,0.256c0-0.022,0.007-0.043,0.007-0.064
		C1805.822,1192.939,1805.808,1192.879,1805.802,1192.814"/>
	<path fill="#912A8D" d="M1800.871,1193.006c0,0.196,0.026,0.387,0.069,0.57c-0.022-0.283-0.03-0.571-0.043-0.857
		C1800.888,1192.812,1800.871,1192.907,1800.871,1193.006"/>
	<g>
		<path fill="#282921" d="M1762.752,1191.749c0-9.653-7.826-17.479-17.479-17.479c-9.651,0-17.479,7.826-17.479,17.479
			c0,9.654,7.826,17.479,17.479,17.479C1754.926,1209.229,1762.752,1201.403,1762.752,1191.749"/>
		<path fill="#E6B660" d="M1755.833,1191.749c0-5.832-4.729-10.56-10.562-10.56c-5.832,0-10.561,4.728-10.561,10.56
			s4.729,10.562,10.561,10.562C1751.105,1202.311,1755.833,1197.581,1755.833,1191.749"/>
		<path fill="#B0762A" d="M1750.645,1191.749c0-2.966-2.405-5.371-5.372-5.371c-2.966,0-5.371,2.405-5.371,5.371
			c0,2.967,2.405,5.371,5.371,5.371C1748.24,1197.12,1750.645,1194.716,1750.645,1191.749"/>
	</g>
	<g>
		<path fill="#282921" d="M1833.144,1191.749c0-9.653-7.826-17.479-17.479-17.479c-9.654,0-17.48,7.826-17.48,17.479
			c0,9.654,7.826,17.479,17.48,17.479C1825.317,1209.229,1833.144,1201.403,1833.144,1191.749"/>
		<path fill="#E6B660" d="M1826.224,1191.749c0-5.832-4.728-10.562-10.56-10.562c-5.834,0-10.562,4.729-10.562,10.562
			s4.729,10.562,10.562,10.562C1821.496,1202.311,1826.224,1197.581,1826.224,1191.749"/>
		<path fill="#B0762A" d="M1821.035,1191.749c0-2.966-2.405-5.371-5.371-5.371c-2.969,0-5.371,2.405-5.371,5.371
			c0,2.967,2.404,5.371,5.371,5.371C1818.63,1197.12,1821.035,1194.716,1821.035,1191.749"/>
	</g>
	<rect x="1775.205" y="1182.934" fill="#604C1E" width="9.264" height="3.231"/>
	<rect x="1775.205" y="1191.531" fill="#604C1E" width="9.264" height="3.23"/>
	<polygon fill="#FFCB28" points="1756.406,1165.591 1754.076,1168.191 1769.606,1181.979 1769.424,1186.803 1771.428,1186.803 
		1771.428,1181.887 	"/>
	<polygon fill="#FFB300" points="1756.406,1165.591 1756.951,1163.497 1761.322,1158.763 1764.508,1158.763 1764.508,1170.233 
		1775.205,1181.432 1775.205,1187.03 1771.428,1186.803 1771.428,1181.887 	"/>
	<path fill="#A7792C" d="M1758.127,1161.042c0-1.584-1.283-2.868-2.868-2.868c-1.583,0-2.867,1.284-2.867,2.868
		c0,1.583,1.284,2.868,2.867,2.868C1756.844,1163.91,1758.127,1162.625,1758.127,1161.042"/>
	<path fill="#FFD54E" d="M1756.744,1161.042c0-0.82-0.664-1.485-1.485-1.485c-0.819,0-1.484,0.665-1.484,1.485
		c0,0.819,0.665,1.484,1.484,1.484C1756.08,1162.526,1756.744,1161.861,1756.744,1161.042"/>
	<path fill="#9A712A" d="M1742.346,1134.882c0-1.904-1.544-3.447-3.447-3.447c-1.904,0-3.447,1.543-3.447,3.447
		c0,1.905,1.543,3.449,3.447,3.449C1740.802,1138.331,1742.346,1136.787,1742.346,1134.882"/>
	<path fill="#FFD54E" d="M1740.673,1134.882c0-0.979-0.794-1.774-1.774-1.774c-0.979,0-1.773,0.797-1.773,1.774
		c0,0.981,0.795,1.775,1.773,1.775C1739.879,1136.657,1740.673,1135.863,1740.673,1134.882"/>
	<path fill="#9A712A" d="M1762.155,1121.568c0-1.904-1.543-3.448-3.446-3.448c-1.904,0-3.448,1.544-3.448,3.448
		c0,1.902,1.544,3.445,3.448,3.445C1760.612,1125.016,1762.155,1123.473,1762.155,1121.568"/>
	<path fill="#FFD54E" d="M1760.482,1121.568c0-0.98-0.795-1.775-1.773-1.775c-0.98,0-1.774,0.795-1.774,1.775
		c0,0.979,0.794,1.773,1.774,1.773C1759.688,1123.343,1760.482,1122.548,1760.482,1121.568"/>
	<rect x="1791.729" y="1132.635" fill="#735321" width="5.508" height="2.094"/>
	<rect x="1791.729" y="1131.452" fill="#B99456" width="5.508" height="1.183"/>
	<rect x="1801.998" y="1149.818" fill="#5C4F2E" width="27.83" height="2.049"/>
	<rect x="1817.812" y="1133.951" fill="#5D4137" width="4.646" height="15.867"/>
	<polygon fill="#5D4137" points="1824.16,1130.358 1824.16,1136.367 1817.812,1136.367 1817.812,1133.951 	"/>
	<path fill="#9A712A" d="M1727.265,1120.63c0-2.112-1.712-3.824-3.823-3.824c-2.109,0-3.822,1.712-3.822,3.824
		c0,2.11,1.713,3.823,3.822,3.823C1725.553,1124.453,1727.265,1122.74,1727.265,1120.63"/>
	<path fill="#FFD54E" d="M1725.41,1120.63c0-1.088-0.884-1.97-1.971-1.97c-1.088,0-1.969,0.882-1.969,1.97
		c0,1.086,0.881,1.968,1.969,1.968S1725.41,1121.716,1725.41,1120.63"/>
	<path fill="#282921" d="M1807.177,1169.289c1.087-0.414,2.212-0.752,3.368-1.005
		C1809.328,1168.524,1808.207,1168.865,1807.177,1169.289z"/>
	<path fill="#FFD54E" d="M1838.738,1151.866H1802l-25.442,18.55v3.004h7.708v21.344h7.59c0,0,0.004-2.133,0.004-3.227
		c0-0.799,0.04-1.589,0.116-2.367c0.9-9.123,6.95-16.729,15.203-19.881c1.03-0.424,2.149-0.765,3.368-1.005
		c1.361-0.271,2.847-0.418,4.464-0.418c2.073,0,3.95,0.14,5.647,0.391c6.492,1.386,12.006,5.418,15.354,10.914
		c0.63,1.034,1.182,2.12,1.65,3.249v1.001l0.393,0.005l8.391,0.102v-4.278h2.003v-22.472
		C1847.617,1156.229,1838.738,1151.866,1838.738,1151.866z"/>
	<rect x="1813.599" y="1156.775" fill="#5D4137" width="25.229" height="1.576"/>
	<rect x="1813.599" y="1158.986" fill="#5D4137" width="25.229" height="1.576"/>
	<rect x="1813.599" y="1161.195" fill="#5D4137" width="25.229" height="1.576"/>
	<polygon fill="#546E7A" points="1772.619,1170.09 1769.708,1157.345 1775.387,1137.552 1800.362,1137.552 1803.271,1165.874 
		1799.207,1170.09 	"/>
	<g>
		<path fill="#263238" d="M1799.65,1138.34l2.799,27.251l-3.578,3.71h-25.623l-2.727-11.934l5.459-19.027H1799.65
			 M1801.074,1136.764h-1.424h-23.67h-1.188l-0.327,1.144l-5.459,19.025l-0.111,0.393l0.09,0.396l2.729,11.936l0.28,1.226h1.257
			h25.623h0.67l0.465-0.481l3.578-3.711l0.508-0.525l-0.074-0.729l-2.799-27.252L1801.074,1136.764L1801.074,1136.764z"/>
	</g>
	<polygon fill="#455B65" points="1771.562,1161.92 1801.544,1156.775 1802.449,1165.591 1798.871,1169.301 1773.248,1169.301 	"/>
	<rect x="1773.986" y="1134.729" fill="#FFD54E" width="28.463" height="2.526"/>
	<rect x="1774.615" y="1170.878" fill="#546E7A" width="19.814" height="1.025"/>
	<rect x="1777.797" y="1175.259" fill="#546E7A" width="13.451" height="1.024"/>
	<rect x="1777.797" y="1179.639" fill="#546E7A" width="13.451" height="1.025"/>
	<rect x="1777.797" y="1184.02" fill="#546E7A" width="13.451" height="1.025"/>
	<rect x="1777.797" y="1188.4" fill="#546E7A" width="13.451" height="1.022"/>
	<rect x="1777.797" y="1192.78" fill="#546E7A" width="13.451" height="1.024"/>
	<rect x="1777.797" y="1171.391" fill="#546E7A" width="1.022" height="21.463"/>
	<rect x="1790.223" y="1171.391" fill="#546E7A" width="1.025" height="21.463"/>
	<rect x="1826.213" y="1163.405" fill="#5D4137" width="12.615" height="1.576"/>
</g>
<g>
	<polygon fill="#FFD54E" points="466.543,1167.195 501.262,1121.977 520.921,1113.248 595.496,1114.727 595.496,1120.518 
		523.107,1128.485 514.07,1132.931 474.42,1168.536 	"/>
	<g>
		
			<rect x="528.346" y="1107.823" transform="matrix(-0.9989 0.0461 -0.0461 -0.9989 1173.943 2190.6191)" fill="#B0BEC5" width="66.736" height="2.043"/>
	</g>
	<g>
		
			<rect x="527.581" y="1107.778" transform="matrix(-0.9989 0.0461 -0.0461 -0.9989 1143.0593 2192.7678)" fill="#645537" width="37.32" height="3.576"/>
	</g>
	<g>
		<polygon fill="#B0BEC5" points="489.215,1174.559 496.123,1146.845 494.193,1146.178 487.284,1173.891 		"/>
	</g>
	<g>
		<polygon fill="#645537" points="489.859,1175.127 493.723,1159.628 490.345,1158.461 486.481,1173.959 		"/>
	</g>
	<rect x="453.001" y="1178.797" fill="#B0762A" width="13.541" height="7.666"/>
	<polygon fill="#FAA629" points="453.598,1190.551 466.543,1190.551 467.821,1187.484 452.32,1187.484 	"/>
	<polygon fill="#263238" points="482.897,1155.374 494.907,1167.384 494.907,1181.948 487.837,1189.018 460.922,1189.018 
		460.922,1181.948 460.922,1155.374 	"/>
	<g>
		
			<rect x="610.443" y="1108.697" transform="matrix(-0.9847 0.1743 -0.1743 -0.9847 1412.8433 2162.4209)" fill="#B0BEC5" width="2.045" height="69.109"/>
	</g>
	<g>
		<polygon fill="#645537" points="615.312,1176.287 618.835,1175.664 617.535,1166.116 614.012,1166.739 		"/>
	</g>
	<path fill="#455B65" d="M511.733,1207.434h-95.542c-4.249,0-7.693-3.445-7.693-7.695c0-4.251,3.445-7.694,7.693-7.694h95.543
		c4.25,0,7.695,3.443,7.695,7.694C519.428,1203.988,515.982,1207.434,511.733,1207.434z"/>
	<rect x="430.771" y="1154.438" fill="#263238" width="19.675" height="7.543"/>
	<rect x="421.828" y="1186.463" fill="#FAA629" width="39.094" height="2.555"/>
	<polygon fill="#5D4137" points="459.389,1165.51 452.33,1158.451 428.981,1158.451 421.828,1165.51 	"/>
	<rect x="421.828" y="1165.51" fill="#FFD54E" width="37.561" height="20.954"/>
	<g>
		<polygon fill="#546E7A" points="491.008,1168.849 481.754,1159.595 474.209,1159.595 474.209,1177.477 491.008,1177.477 		"/>
		<rect x="464.244" y="1159.595" fill="#546E7A" width="7.027" height="17.882"/>
	</g>
	<defs>
		<filter id="Adobe_OpacityMaskFilter" filterUnits="userSpaceOnUse" x="464.244" y="1170.066" width="26.764" height="7.41">
			<feColorMatrix  type="matrix" values="1 0 0 0 0  0 1 0 0 0  0 0 1 0 0  0 0 0 1 0"/>
		</filter>
	</defs>
	<mask maskUnits="userSpaceOnUse" x="464.244" y="1170.066" width="26.764" height="7.41" id="SVGID_1_">
		<g filter="url(#Adobe_OpacityMaskFilter)">
			<g>
				<polygon fill="#546E7A" points="491.008,1168.849 481.754,1159.595 474.209,1159.595 474.209,1177.477 491.008,1177.477 				"/>
				<rect x="464.244" y="1159.595" fill="#546E7A" width="7.027" height="17.882"/>
			</g>
		</g>
	</mask>
	<polygon mask="url(#SVGID_1_)" fill="#455B65" points="491.008,1173.196 464.244,1170.066 464.244,1177.477 491.008,1177.477 	"/>
	<circle fill="#263238" stroke="#B0BEC5" stroke-width="1.0057" stroke-miterlimit="10" cx="415.326" cy="1200.825" r="4.611"/>
	<path fill="#263238" d="M407.003,1199.738c0,5.065,4.122,9.188,9.188,9.188h95.543c5.065,0,9.187-4.122,9.187-9.188
		c0-5.066-4.122-9.188-9.187-9.188h-95.543C411.125,1190.551,407.003,1194.672,407.003,1199.738z M408.496,1199.738
		c0-4.251,3.445-7.694,7.695-7.694h95.543c4.25,0,7.695,3.443,7.695,7.694c0,4.25-3.445,7.695-7.695,7.695h-95.543
		C411.942,1207.434,408.496,1203.988,408.496,1199.738z"/>
	<path fill="#9A712A" d="M591.712,1117.467c0-2.089,1.694-3.784,3.784-3.784s3.785,1.695,3.785,3.784
		c0,2.091-1.695,3.785-3.785,3.785S591.712,1119.558,591.712,1117.467"/>
	<path fill="#FFD54E" d="M593.547,1117.467c0-1.074,0.873-1.948,1.948-1.948c1.076,0,1.949,0.874,1.949,1.948
		c0,1.076-0.873,1.948-1.949,1.948C594.42,1119.415,593.547,1118.543,593.547,1117.467"/>
	<polygon fill="#FFCB28" points="589.754,1118.552 596.446,1101.024 604.732,1098.054 607.437,1104.8 604.732,1125.411 
		610.563,1173.427 604.732,1176.269 	"/>
	<polygon fill="#FFD54E" points="520.921,1113.248 528.118,1106.911 533.916,1106.911 535.708,1113.541 	"/>
	<polygon fill="#3E2723" points="604.616,1169.809 624.958,1177.518 619.597,1194.529 600.691,1199.664 600.665,1201.161 
		592.781,1203.923 592.996,1200.585 595.196,1199.698 604.458,1175.242 	"/>
	<rect x="424.766" y="1170.066" fill="#5D4137" width="7.409" height="16.396"/>
	<rect x="435.243" y="1181.948" fill="#FFFFFF" width="20.313" height="4.387"/>
	<path fill="#9A712A" d="M612.806,1166.116c0-1.42,1.15-2.569,2.568-2.569c1.42,0,2.569,1.15,2.569,2.569
		c0,1.418-1.149,2.567-2.569,2.567C613.955,1168.685,612.806,1167.535,612.806,1166.116"/>
	<path fill="#FFD54E" d="M614.052,1166.116c0-0.731,0.591-1.322,1.322-1.322c0.731,0,1.321,0.591,1.321,1.322
		c0,0.73-0.59,1.322-1.321,1.322C614.643,1167.438,614.052,1166.847,614.052,1166.116"/>
	<g>
		
			<rect x="606.571" y="1108.858" transform="matrix(-0.9848 0.1739 -0.1739 -0.9848 1403.3488 2129.9316)" fill="#645537" width="3.577" height="35.18"/>
	</g>
	<path fill="#9A712A" d="M602.5,1109.558c0-1.418,1.149-2.568,2.567-2.568c1.418,0,2.568,1.15,2.568,2.568
		c0,1.419-1.15,2.567-2.568,2.567C603.649,1112.127,602.5,1110.977,602.5,1109.558"/>
	<path fill="#FFD54E" d="M603.746,1109.558c0-0.729,0.592-1.322,1.322-1.322c0.731,0,1.322,0.593,1.322,1.322
		s-0.591,1.321-1.322,1.321C604.337,1110.879,603.746,1110.287,603.746,1109.558"/>
	<path fill="#9A712A" d="M591.311,1118.093c0-0.729,0.592-1.321,1.321-1.321c0.732,0,1.323,0.592,1.323,1.321
		c0,0.731-0.591,1.322-1.323,1.322C591.903,1119.415,591.311,1118.824,591.311,1118.093"/>
	<path fill="#9A712A" d="M531.387,1110.421c0-1.419,1.15-2.569,2.568-2.569c1.418,0,2.569,1.15,2.569,2.569
		c0,1.418-1.151,2.567-2.569,2.567C532.538,1112.988,531.387,1111.839,531.387,1110.421"/>
	<path fill="#FFD54E" d="M532.632,1110.421c0-0.73,0.592-1.322,1.322-1.322c0.731,0,1.322,0.592,1.322,1.322
		c0,0.729-0.59,1.321-1.322,1.321C533.225,1111.742,532.632,1111.15,532.632,1110.421"/>
	<g>
		<circle fill="#B0BEC5" cx="504.118" cy="1202.311" r="4.611"/>
		<circle fill="#B0BEC5" cx="494.896" cy="1202.311" r="4.611"/>
		<circle fill="#B0BEC5" cx="485.675" cy="1202.311" r="4.611"/>
		<circle fill="#B0BEC5" cx="476.453" cy="1202.311" r="4.611"/>
		<circle fill="#B0BEC5" cx="467.23" cy="1202.311" r="4.611"/>
		<circle fill="#B0BEC5" cx="458.03" cy="1202.311" r="4.611"/>
		<circle fill="#B0BEC5" cx="448.808" cy="1202.311" r="4.611"/>
		<circle fill="#B0BEC5" cx="439.586" cy="1202.311" r="4.611"/>
		<circle fill="#B0BEC5" cx="430.365" cy="1202.311" r="4.611"/>
	</g>
	<polygon fill="#263238" stroke="#B0BEC5" stroke-width="1.0057" stroke-miterlimit="10" points="516.114,1196.435 
		516.114,1201.463 512.218,1205.36 421.828,1205.36 421.828,1196.435 	"/>
	<g>
		<rect x="471.686" y="1188.27" fill="#546E7A" width="14.833" height="0.767"/>
		<rect x="474.067" y="1191.549" fill="#546E7A" width="10.07" height="0.767"/>
		<rect x="474.067" y="1194.828" fill="#546E7A" width="10.07" height="0.767"/>
		<rect x="474.067" y="1198.106" fill="#546E7A" width="10.07" height="0.768"/>
		<rect x="474.067" y="1201.387" fill="#546E7A" width="10.07" height="0.766"/>
		<rect x="474.067" y="1204.666" fill="#546E7A" width="10.07" height="0.766"/>
		<rect x="483.37" y="1188.653" fill="#546E7A" width="0.766" height="16.066"/>
		<rect x="474.067" y="1188.653" fill="#546E7A" width="0.767" height="16.066"/>
	</g>
	<path fill="#9A712A" d="M492.338,1146.959c0-1.418,1.15-2.567,2.569-2.567c1.418,0,2.568,1.149,2.568,2.567
		c0,1.419-1.149,2.568-2.568,2.568C493.488,1149.528,492.338,1148.378,492.338,1146.959"/>
	<path fill="#FFD54E" d="M493.584,1146.959c0-0.729,0.592-1.321,1.323-1.321c0.73,0,1.32,0.592,1.32,1.321
		c0,0.731-0.591,1.322-1.32,1.322C494.176,1148.281,493.584,1147.69,493.584,1146.959"/>
</g>
</svg>
