<?xml version="1.0" encoding="utf-8"?>
<!-- Generator: Adobe Illustrator 16.0.0, SVG Export Plug-In . SVG Version: 6.00 Build 0)  -->
<!DOCTYPE svg PUBLIC "-//W3C//DTD SVG 1.1//EN" "http://www.w3.org/Graphics/SVG/1.1/DTD/svg11.dtd">
<svg version="1.1" id="Layer_1" xmlns="http://www.w3.org/2000/svg" xmlns:xlink="http://www.w3.org/1999/xlink" x="0px" y="0px"
	 width="1920px" height="1280px" viewBox="0 0 1920 1280" enable-background="new 0 0 1920 1280" xml:space="preserve">
<rect y="1208.823" fill="#FCD49B" width="1920" height="131.177"/>
<g id="Layer_2">
</g>
<g>
	<rect x="1716.457" y="925.974" fill="#ECEFF0" width="110.037" height="216.264"/>
	<rect x="1478.902" y="1000.822" fill="#ECEFF0" width="110.037" height="141.414"/>
	<rect x="1360.125" y="1000.822" fill="#ECEFF0" width="110.037" height="141.414"/>
	<rect x="1351.387" y="1151.153" fill="#ECEFF0" width="602.625" height="58.909"/>
	<g>
		<rect x="1351.387" y="921.572" fill="#78909C" width="8.738" height="229.58"/>
	</g>
	<g>
		<rect x="1470.166" y="842.514" fill="#78909C" width="8.736" height="308.639"/>
	</g>
	<g>
		<rect x="1588.939" y="842.514" fill="#78909C" width="8.74" height="308.639"/>
	</g>
	<g>
		<rect x="1707.719" y="842.514" fill="#78909C" width="8.738" height="308.639"/>
	</g>
	<g>
		<rect x="1826.494" y="850.491" fill="#78909C" width="8.738" height="300.661"/>
	</g>
	<g>
		<rect x="1945.273" y="922.746" fill="#78909C" width="8.738" height="228.406"/>
	</g>
	<g>
		<rect x="1455.389" y="842.514" fill="#78909C" width="393.926" height="7.978"/>
	</g>
	<g>
		<rect x="1333.182" y="917.204" fill="#78909C" width="638.377" height="8.738"/>
	</g>
	<g>
		<rect x="1333.182" y="992.273" fill="#78909C" width="639.111" height="8.738"/>
	</g>
	<g>
		<rect x="1333.182" y="1067.345" fill="#78909C" width="639.111" height="8.738"/>
	</g>
	<g>
		<rect x="1333.182" y="1142.236" fill="#78909C" width="639.111" height="8.738"/>
	</g>
	<g>
		<g>
			<rect x="1451.961" y="925.974" fill="#B0BEC5" width="2.912" height="284.266"/>
			<rect x="1494.195" y="925.974" fill="#B0BEC5" width="2.912" height="284.266"/>
		</g>
		<g>
			<rect x="1453.416" y="1003.639" fill="#B0BEC5" width="42.234" height="2.913"/>
			
				<rect x="1458.993" y="1001.776" transform="matrix(-0.7069 -0.7073 0.7073 -0.7069 1777.4141 2759.6899)" fill="#B0BEC5" width="2.912" height="19.661"/>
			
				<rect x="1487.171" y="1001.787" transform="matrix(0.7069 -0.7073 0.7073 0.7069 -279.233 1349.3334)" fill="#B0BEC5" width="2.912" height="19.661"/>
		</g>
		<g>
			<rect x="1453.416" y="1033.115" fill="#B0BEC5" width="42.234" height="2.912"/>
			
				<rect x="1458.993" y="1031.252" transform="matrix(-0.7073 -0.7069 0.7069 -0.7073 1757.4061 2809.8606)" fill="#B0BEC5" width="2.913" height="19.658"/>
			
				<rect x="1487.17" y="1031.263" transform="matrix(0.7073 -0.7069 0.7069 0.7073 -300.2296 1357.123)" fill="#B0BEC5" width="2.913" height="19.66"/>
		</g>
		<g>
			<rect x="1453.416" y="1062.589" fill="#B0BEC5" width="42.234" height="2.914"/>
			
				<rect x="1458.993" y="1060.726" transform="matrix(-0.7073 -0.7069 0.7069 -0.7073 1736.5697 2860.1809)" fill="#B0BEC5" width="2.913" height="19.659"/>
			
				<rect x="1487.171" y="1060.736" transform="matrix(0.7069 -0.7073 0.7073 0.7069 -320.926 1366.6089)" fill="#B0BEC5" width="2.912" height="19.66"/>
		</g>
		<g>
			<rect x="1453.416" y="1092.062" fill="#B0BEC5" width="42.234" height="2.913"/>
			
				<rect x="1458.994" y="1090.2" transform="matrix(-0.7069 -0.7073 0.7073 -0.7069 1714.8767 2910.6221)" fill="#B0BEC5" width="2.912" height="19.659"/>
			
				<rect x="1487.171" y="1090.211" transform="matrix(0.7069 -0.7073 0.7073 0.7069 -341.7726 1375.2468)" fill="#B0BEC5" width="2.912" height="19.66"/>
		</g>
		<g>
			<rect x="1453.416" y="1121.538" fill="#B0BEC5" width="42.234" height="2.913"/>
			
				<rect x="1458.93" y="1119.682" transform="matrix(-0.7073 -0.7069 0.7069 -0.7073 1694.7844 2960.7917)" fill="#B0BEC5" width="2.913" height="19.66"/>
			
				<rect x="1487.182" y="1119.75" transform="matrix(0.7071 -0.7071 0.7071 0.7071 -362.7214 1383.4719)" fill="#B0BEC5" width="2.911" height="19.66"/>
		</g>
		<g>
			<rect x="1453.416" y="1062.551" fill="#B0BEC5" width="42.234" height="2.913"/>
			
				<rect x="1458.933" y="1060.699" transform="matrix(-0.7069 -0.7073 0.7073 -0.7069 1735.6371 2860.2222)" fill="#B0BEC5" width="2.912" height="19.659"/>
			
				<rect x="1487.182" y="1060.76" transform="matrix(0.7074 -0.7068 0.7068 0.7074 -321.1499 1365.3372)" fill="#B0BEC5" width="2.913" height="19.661"/>
		</g>
		<g>
			<rect x="1453.416" y="1092.026" fill="#B0BEC5" width="42.234" height="2.912"/>
			
				<rect x="1458.994" y="1090.164" transform="matrix(-0.7069 -0.7073 0.7073 -0.7069 1714.9026 2910.5596)" fill="#B0BEC5" width="2.912" height="19.658"/>
			
				<rect x="1487.171" y="1090.173" transform="matrix(0.7068 -0.7074 0.7074 0.7068 -341.681 1375.6697)" fill="#B0BEC5" width="2.913" height="19.661"/>
		</g>
		<g>
			<rect x="1453.416" y="1121.5" fill="#B0BEC5" width="42.234" height="2.914"/>
			
				<rect x="1458.994" y="1119.637" transform="matrix(-0.7069 -0.7073 0.7073 -0.7069 1694.0564 2960.8701)" fill="#B0BEC5" width="2.912" height="19.659"/>
			
				<rect x="1487.171" y="1119.648" transform="matrix(0.7069 -0.7073 0.7073 0.7069 -362.593 1383.8738)" fill="#B0BEC5" width="2.912" height="19.66"/>
		</g>
		<g>
			<rect x="1453.416" y="1150.975" fill="#B0BEC5" width="42.234" height="2.913"/>
			
				<rect x="1458.995" y="1149.112" transform="matrix(-0.7071 -0.7071 0.7071 -0.7071 1673.6494 3011.1301)" fill="#B0BEC5" width="2.911" height="19.659"/>
			
				<rect x="1487.172" y="1149.123" transform="matrix(0.7073 -0.7069 0.7069 0.7073 -383.5493 1391.6252)" fill="#B0BEC5" width="2.913" height="19.66"/>
		</g>
		<g>
			<rect x="1453.416" y="1180.449" fill="#B0BEC5" width="42.234" height="2.912"/>
			
				<rect x="1458.994" y="1178.585" transform="matrix(-0.7068 -0.7074 0.7074 -0.7068 1651.9204 3061.5349)" fill="#B0BEC5" width="2.913" height="19.658"/>
			
				<rect x="1487.171" y="1178.597" transform="matrix(0.7071 -0.7071 0.7071 0.7071 -404.3362 1400.7004)" fill="#B0BEC5" width="2.911" height="19.66"/>
		</g>
		<g>
			<rect x="1453.416" y="944.376" fill="#B0BEC5" width="42.234" height="2.913"/>
			
				<rect x="1458.934" y="942.528" transform="matrix(-0.7073 -0.7069 0.7069 -0.7073 1820.0278 2658.3442)" fill="#B0BEC5" width="2.913" height="19.66"/>
			
				<rect x="1487.186" y="942.581" transform="matrix(0.7069 -0.7073 0.7073 0.7069 -237.3538 1331.9928)" fill="#B0BEC5" width="2.912" height="19.661"/>
		</g>
		<g>
			<rect x="1453.416" y="973.852" fill="#B0BEC5" width="42.234" height="2.912"/>
			
				<rect x="1458.992" y="971.988" transform="matrix(-0.7073 -0.7069 0.7069 -0.7073 1799.3003 2708.6804)" fill="#B0BEC5" width="2.913" height="19.66"/>
			
				<rect x="1487.17" y="971.999" transform="matrix(0.7073 -0.7069 0.7069 0.7073 -258.3335 1339.7749)" fill="#B0BEC5" width="2.913" height="19.659"/>
		</g>
		<g>
			<rect x="1453.416" y="1003.324" fill="#B0BEC5" width="42.234" height="2.913"/>
			
				<rect x="1458.993" y="1001.462" transform="matrix(-0.7074 -0.7068 0.7068 -0.7074 1778.8806 2758.9253)" fill="#B0BEC5" width="2.913" height="19.659"/>
			
				<rect x="1487.17" y="1001.472" transform="matrix(0.7073 -0.7069 0.7069 0.7073 -279.1696 1348.4026)" fill="#B0BEC5" width="2.913" height="19.659"/>
		</g>
		<g>
			<rect x="1453.416" y="1032.799" fill="#B0BEC5" width="42.234" height="2.913"/>
			
				<rect x="1458.992" y="1030.936" transform="matrix(-0.7074 -0.7068 0.7068 -0.7074 1758.0471 2809.251)" fill="#B0BEC5" width="2.913" height="19.66"/>
			
				<rect x="1487.171" y="1030.947" transform="matrix(0.7071 -0.7071 0.7071 0.7071 -299.9316 1357.4546)" fill="#B0BEC5" width="2.911" height="19.66"/>
		</g>
		<g>
			<rect x="1453.416" y="1091.71" fill="#B0BEC5" width="42.234" height="2.913"/>
			
				<rect x="1458.994" y="1089.847" transform="matrix(-0.7069 -0.7073 0.7073 -0.7069 1715.1261 2910.0205)" fill="#B0BEC5" width="2.912" height="19.659"/>
			
				<rect x="1487.171" y="1089.858" transform="matrix(0.7069 -0.7073 0.7073 0.7069 -341.5232 1375.1436)" fill="#B0BEC5" width="2.912" height="19.66"/>
		</g>
	</g>
	<g>
		<g>
			<rect x="1570.736" y="1001.044" fill="#B0BEC5" width="2.912" height="209.194"/>
			<rect x="1612.971" y="1001.044" fill="#B0BEC5" width="2.912" height="209.194"/>
		</g>
		<g>
			<rect x="1572.191" y="1003.639" fill="#B0BEC5" width="42.236" height="2.913"/>
			
				<rect x="1577.771" y="1001.776" transform="matrix(-0.7069 -0.7073 0.7073 -0.7069 1980.1599 2843.6973)" fill="#B0BEC5" width="2.912" height="19.662"/>
			
				<rect x="1605.932" y="1001.722" transform="matrix(0.7069 -0.7073 0.7073 0.7069 -244.3822 1433.3105)" fill="#B0BEC5" width="2.912" height="19.66"/>
		</g>
		<g>
			<rect x="1572.191" y="1033.115" fill="#B0BEC5" width="42.236" height="2.912"/>
			
				<rect x="1577.772" y="1031.252" transform="matrix(-0.7069 -0.7073 0.7073 -0.7069 1959.3151 2894.0093)" fill="#B0BEC5" width="2.912" height="19.659"/>
			
				<rect x="1605.932" y="1031.197" transform="matrix(0.7068 -0.7074 0.7074 0.7068 -265.1335 1442.3929)" fill="#B0BEC5" width="2.913" height="19.658"/>
		</g>
		<g>
			<rect x="1572.191" y="1062.589" fill="#B0BEC5" width="42.236" height="2.914"/>
			
				<rect x="1577.771" y="1060.725" transform="matrix(-0.7069 -0.7073 0.7073 -0.7069 1938.467 2944.3191)" fill="#B0BEC5" width="2.912" height="19.661"/>
			
				<rect x="1605.935" y="1060.67" transform="matrix(0.7069 -0.7073 0.7073 0.7069 -286.0736 1450.5879)" fill="#B0BEC5" width="2.912" height="19.658"/>
		</g>
		<g>
			<rect x="1572.191" y="1092.062" fill="#B0BEC5" width="42.236" height="2.913"/>
			
				<rect x="1577.772" y="1090.199" transform="matrix(-0.7069 -0.7073 0.7073 -0.7069 1917.6228 2994.6294)" fill="#B0BEC5" width="2.912" height="19.66"/>
			
				<rect x="1605.935" y="1090.144" transform="matrix(0.7073 -0.7069 0.7069 0.7073 -307.0894 1458.3184)" fill="#B0BEC5" width="2.913" height="19.658"/>
		</g>
		<g>
			<rect x="1572.191" y="1121.538" fill="#B0BEC5" width="42.236" height="2.913"/>
			
				<rect x="1577.703" y="1119.685" transform="matrix(-0.7073 -0.7069 0.7069 -0.7073 1897.561 3044.7622)" fill="#B0BEC5" width="2.913" height="19.661"/>
			
				<rect x="1605.951" y="1119.685" transform="matrix(0.7071 -0.7071 0.7071 0.7071 -327.8889 1467.4351)" fill="#B0BEC5" width="2.911" height="19.66"/>
		</g>
		<g>
			<rect x="1572.191" y="1062.551" fill="#B0BEC5" width="42.236" height="2.913"/>
			
				<rect x="1577.706" y="1060.701" transform="matrix(-0.7074 -0.7068 0.7068 -0.7074 1939.7069 2943.9766)" fill="#B0BEC5" width="2.913" height="19.661"/>
			
				<rect x="1605.95" y="1060.698" transform="matrix(0.7071 -0.7071 0.7071 0.7071 -286.1794 1450.1575)" fill="#B0BEC5" width="2.911" height="19.659"/>
		</g>
		<g>
			<rect x="1572.191" y="1092.026" fill="#B0BEC5" width="42.236" height="2.912"/>
			
				<rect x="1577.772" y="1090.162" transform="matrix(-0.7071 -0.7071 0.7071 -0.7071 1918.0981 2994.4866)" fill="#B0BEC5" width="2.911" height="19.66"/>
			
				<rect x="1605.935" y="1090.107" transform="matrix(0.7071 -0.7071 0.7071 0.7071 -306.9781 1458.7614)" fill="#B0BEC5" width="2.914" height="19.659"/>
		</g>
		<g>
			<rect x="1572.191" y="1121.5" fill="#B0BEC5" width="42.236" height="2.914"/>
			
				<rect x="1577.771" y="1119.636" transform="matrix(-0.7073 -0.7069 0.7069 -0.7073 1897.7106 3044.7266)" fill="#B0BEC5" width="2.913" height="19.661"/>
			
				<rect x="1605.937" y="1119.581" transform="matrix(0.7069 -0.7073 0.7073 0.7069 -327.7386 1467.8535)" fill="#B0BEC5" width="2.912" height="19.658"/>
		</g>
		<g>
			<rect x="1572.191" y="1150.975" fill="#B0BEC5" width="42.236" height="2.913"/>
			
				<rect x="1577.771" y="1149.109" transform="matrix(-0.7073 -0.7069 0.7069 -0.7073 1876.8745 3095.0464)" fill="#B0BEC5" width="2.913" height="19.661"/>
			
				<rect x="1605.937" y="1149.054" transform="matrix(0.7073 -0.7069 0.7069 0.7073 -348.7347 1475.5643)" fill="#B0BEC5" width="2.913" height="19.658"/>
		</g>
		<g>
			<rect x="1572.191" y="1180.449" fill="#B0BEC5" width="42.236" height="2.912"/>
			
				<rect x="1577.771" y="1178.584" transform="matrix(-0.7074 -0.7068 0.7068 -0.7074 1856.5024 3145.301)" fill="#B0BEC5" width="2.913" height="19.661"/>
			
				<rect x="1605.939" y="1178.527" transform="matrix(0.7069 -0.7073 0.7073 0.7069 -369.4293 1485.1296)" fill="#B0BEC5" width="2.912" height="19.658"/>
		</g>
	</g>
	<g>
		<g>
			<rect x="1927.068" y="1001.044" fill="#B0BEC5" width="2.912" height="209.194"/>
			<rect x="1969.303" y="1001.044" fill="#B0BEC5" width="2.912" height="209.194"/>
		</g>
		<g>
			<rect x="1928.525" y="1003.639" fill="#B0BEC5" width="42.232" height="2.913"/>
			
				<rect x="1934.099" y="1001.774" transform="matrix(-0.7069 -0.7073 0.7073 -0.7069 2588.3921 3095.7148)" fill="#B0BEC5" width="2.912" height="19.661"/>
			
				<rect x="1962.255" y="1001.709" transform="matrix(0.7069 -0.7073 0.7073 0.7069 -139.9485 1685.325)" fill="#B0BEC5" width="2.912" height="19.66"/>
		</g>
		<g>
			<rect x="1928.525" y="1033.115" fill="#B0BEC5" width="42.232" height="2.912"/>
			
				<rect x="1934.1" y="1031.25" transform="matrix(-0.7069 -0.7073 0.7073 -0.7069 2567.5471 3146.0269)" fill="#B0BEC5" width="2.912" height="19.658"/>
			
				<rect x="1962.255" y="1031.184" transform="matrix(0.7069 -0.7073 0.7073 0.7069 -160.7952 1693.9629)" fill="#B0BEC5" width="2.912" height="19.658"/>
		</g>
		<g>
			<rect x="1928.525" y="1062.589" fill="#B0BEC5" width="42.232" height="2.914"/>
			
				<rect x="1934.1" y="1060.723" transform="matrix(-0.7069 -0.7073 0.7073 -0.7069 2546.7009 3196.3374)" fill="#B0BEC5" width="2.912" height="19.659"/>
			
				<rect x="1962.256" y="1060.656" transform="matrix(0.7069 -0.7073 0.7073 0.7069 -181.6401 1702.6007)" fill="#B0BEC5" width="2.912" height="19.66"/>
		</g>
		<g>
			<rect x="1928.525" y="1092.062" fill="#B0BEC5" width="42.232" height="2.913"/>
			
				<rect x="1934.1" y="1090.197" transform="matrix(-0.7069 -0.7073 0.7073 -0.7069 2525.855 3246.647)" fill="#B0BEC5" width="2.912" height="19.659"/>
			
				<rect x="1962.258" y="1090.13" transform="matrix(0.7069 -0.7073 0.7073 0.7069 -202.4854 1711.2397)" fill="#B0BEC5" width="2.912" height="19.66"/>
		</g>
		<g>
			<rect x="1928.525" y="1121.538" fill="#B0BEC5" width="42.232" height="2.913"/>
			
				<rect x="1934.022" y="1119.693" transform="matrix(-0.7069 -0.7073 0.7073 -0.7069 2504.8586 3296.9424)" fill="#B0BEC5" width="2.912" height="19.661"/>
			
				<rect x="1962.284" y="1119.683" transform="matrix(0.7074 -0.7068 0.7068 0.7074 -223.7991 1718.3634)" fill="#B0BEC5" width="2.913" height="19.659"/>
		</g>
		<g>
			<rect x="1928.525" y="1062.551" fill="#B0BEC5" width="42.232" height="2.913"/>
			
				<rect x="1934.024" y="1060.709" transform="matrix(-0.7069 -0.7073 0.7073 -0.7069 2546.5801 3196.261)" fill="#B0BEC5" width="2.912" height="19.661"/>
			
				<rect x="1962.283" y="1060.695" transform="matrix(0.7071 -0.7071 0.7071 0.7071 -181.8098 1702.1221)" fill="#B0BEC5" width="2.911" height="19.66"/>
		</g>
		<g>
			<rect x="1928.525" y="1092.026" fill="#B0BEC5" width="42.232" height="2.912"/>
			
				<rect x="1934.1" y="1090.16" transform="matrix(-0.7069 -0.7073 0.7073 -0.7069 2525.8809 3246.5845)" fill="#B0BEC5" width="2.912" height="19.66"/>
			
				<rect x="1962.258" y="1090.093" transform="matrix(0.7069 -0.7073 0.7073 0.7069 -202.4595 1711.229)" fill="#B0BEC5" width="2.912" height="19.66"/>
		</g>
		<g>
			<rect x="1928.525" y="1121.5" fill="#B0BEC5" width="42.232" height="2.914"/>
			
				<rect x="1934.099" y="1119.633" transform="matrix(-0.7073 -0.7069 0.7069 -0.7073 2506.063 3296.623)" fill="#B0BEC5" width="2.913" height="19.66"/>
			
				<rect x="1962.259" y="1119.567" transform="matrix(0.7069 -0.7073 0.7073 0.7069 -223.3049 1719.8671)" fill="#B0BEC5" width="2.912" height="19.658"/>
		</g>
		<g>
			<rect x="1928.525" y="1150.975" fill="#B0BEC5" width="42.232" height="2.913"/>
			
				<rect x="1934.1" y="1149.109" transform="matrix(-0.7069 -0.7073 0.7073 -0.7069 2484.1882 3347.2056)" fill="#B0BEC5" width="2.912" height="19.658"/>
			
				<rect x="1962.26" y="1149.04" transform="matrix(0.7069 -0.7073 0.7073 0.7069 -244.1506 1728.5054)" fill="#B0BEC5" width="2.912" height="19.66"/>
		</g>
		<g>
			<rect x="1928.525" y="1180.449" fill="#B0BEC5" width="42.232" height="2.912"/>
			
				<rect x="1934.101" y="1178.581" transform="matrix(-0.7069 -0.7073 0.7073 -0.7069 2463.344 3397.5161)" fill="#B0BEC5" width="2.912" height="19.661"/>
			
				<rect x="1962.261" y="1178.513" transform="matrix(0.7073 -0.7069 0.7069 0.7073 -265.2554 1736.0874)" fill="#B0BEC5" width="2.913" height="19.659"/>
		</g>
	</g>
</g>
<g>
	<g>
		<g>
			<rect x="65.176" y="900.488" fill="#78909C" width="8.738" height="308.64"/>
		</g>
		<g>
			<rect x="183.955" y="900.488" fill="#78909C" width="8.737" height="308.64"/>
		</g>
		<g>
			<rect x="302.73" y="900.488" fill="#78909C" width="8.738" height="308.64"/>
		</g>
		<g>
			<rect x="421.509" y="900.488" fill="#78909C" width="8.739" height="308.64"/>
		</g>
	</g>
	<g>
		<rect x="540.284" y="980.72" fill="#78909C" width="8.738" height="228.408"/>
	</g>
	<g>
		<rect x="659.063" y="980.72" fill="#78909C" width="8.738" height="228.408"/>
	</g>
	<g>
		<rect x="69.546" y="900.488" fill="#78909C" width="360.32" height="7.977"/>
	</g>
	<g>
		<rect x="65.176" y="975.178" fill="#78909C" width="602.625" height="8.737"/>
	</g>
	<g>
		<rect x="65.176" y="1050.248" fill="#78909C" width="598.255" height="8.738"/>
	</g>
	<g>
		<rect x="65.176" y="1125.319" fill="#78909C" width="598.255" height="8.737"/>
	</g>
	<g>
		<g>
			<rect x="54.796" y="949.74" fill="#FAA629" width="389.818" height="3.989"/>
		</g>
		<g>
			<rect x="54.796" y="938.679" fill="#FAA629" width="389.818" height="3.989"/>
		</g>
		<g>
			<rect x="54.796" y="961.253" fill="#FAA629" width="389.818" height="3.987"/>
		</g>
		<g>
			<rect x="54.796" y="972.764" fill="#FAA629" width="389.818" height="3.988"/>
		</g>
		<rect x="54.796" y="938.679" fill="#78909C" width="2.914" height="38.073"/>
		<rect x="89.968" y="938.679" fill="#78909C" width="2.913" height="38.073"/>
		<rect x="125.143" y="938.679" fill="#78909C" width="2.913" height="38.073"/>
		<rect x="160.316" y="938.679" fill="#78909C" width="2.913" height="38.073"/>
		<rect x="195.489" y="938.679" fill="#78909C" width="2.912" height="38.073"/>
		<rect x="265.835" y="938.679" fill="#78909C" width="2.913" height="38.073"/>
		<rect x="336.183" y="938.679" fill="#78909C" width="2.913" height="38.073"/>
		<rect x="371.355" y="938.679" fill="#78909C" width="2.913" height="38.073"/>
		<rect x="230.664" y="938.679" fill="#78909C" width="2.912" height="38.073"/>
		<rect x="406.53" y="938.679" fill="#78909C" width="2.913" height="38.073"/>
		<rect x="301.01" y="938.679" fill="#78909C" width="2.913" height="38.073"/>
		<rect x="441.702" y="938.679" fill="#78909C" width="2.913" height="38.073"/>
	</g>
	<g>
		<rect x="54.796" y="1023.235" fill="#FAA629" width="389.818" height="3.988"/>
	</g>
	<g>
		<rect x="54.796" y="1012.174" fill="#FAA629" width="389.818" height="3.989"/>
	</g>
	<g>
		<rect x="54.796" y="1034.747" fill="#FAA629" width="389.818" height="3.987"/>
	</g>
	<g>
		<rect x="54.796" y="1046.259" fill="#FAA629" width="389.818" height="3.987"/>
	</g>
	<rect x="54.796" y="1012.174" fill="#78909C" width="2.914" height="38.072"/>
	<rect x="89.968" y="1012.174" fill="#78909C" width="2.913" height="38.072"/>
	<rect x="125.143" y="1012.174" fill="#78909C" width="2.913" height="38.072"/>
	<rect x="160.316" y="1012.174" fill="#78909C" width="2.913" height="38.072"/>
	<rect x="195.489" y="1012.174" fill="#78909C" width="2.912" height="38.072"/>
	<rect x="265.835" y="1012.174" fill="#78909C" width="2.913" height="38.072"/>
	<rect x="336.183" y="1012.174" fill="#78909C" width="2.913" height="38.072"/>
	<rect x="371.355" y="1012.174" fill="#78909C" width="2.913" height="38.072"/>
	<rect x="230.664" y="1012.174" fill="#78909C" width="2.912" height="38.072"/>
	<rect x="406.53" y="1012.174" fill="#78909C" width="2.913" height="38.072"/>
	<rect x="301.01" y="1012.174" fill="#78909C" width="2.913" height="38.072"/>
	<rect x="441.702" y="1012.174" fill="#78909C" width="2.913" height="38.072"/>
	<g>
		<g>
			<rect x="301.01" y="1023.235" fill="#FAA629" width="389.816" height="3.988"/>
		</g>
		<g>
			<rect x="301.01" y="1012.174" fill="#FAA629" width="389.816" height="3.989"/>
		</g>
		<g>
			<rect x="301.01" y="1034.747" fill="#FAA629" width="389.816" height="3.987"/>
		</g>
		<g>
			<rect x="301.01" y="1046.259" fill="#FAA629" width="389.816" height="3.987"/>
		</g>
		<rect x="301.01" y="1012.174" fill="#78909C" width="2.913" height="38.072"/>
		<rect x="336.181" y="1012.174" fill="#78909C" width="2.913" height="38.072"/>
		<rect x="371.355" y="1012.174" fill="#78909C" width="2.913" height="38.072"/>
		<rect x="406.527" y="1012.174" fill="#78909C" width="2.913" height="38.072"/>
		<rect x="441.702" y="1012.174" fill="#78909C" width="2.913" height="38.072"/>
		<rect x="512.048" y="1012.174" fill="#78909C" width="2.912" height="38.072"/>
		<rect x="582.394" y="1012.174" fill="#78909C" width="2.913" height="38.072"/>
		<rect x="617.568" y="1012.174" fill="#78909C" width="2.913" height="38.072"/>
		<rect x="476.876" y="1012.174" fill="#78909C" width="2.913" height="38.072"/>
		<rect x="652.743" y="1012.174" fill="#78909C" width="2.912" height="38.072"/>
		<rect x="547.223" y="1012.174" fill="#78909C" width="2.912" height="38.072"/>
		<rect x="687.915" y="1012.174" fill="#78909C" width="2.912" height="38.072"/>
	</g>
	<g>
		<g>
			<rect x="165.75" y="1059.018" fill="#B0BEC5" width="2.913" height="150.107"/>
			<rect x="207.985" y="1059.018" fill="#B0BEC5" width="2.913" height="150.107"/>
		</g>
		<g>
			<rect x="167.206" y="1061.613" fill="#B0BEC5" width="42.235" height="2.913"/>
			
				<rect x="172.79" y="1059.757" transform="matrix(-0.7073 -0.7069 0.7069 -0.7073 -458.6465 1949.259)" fill="#B0BEC5" width="2.912" height="19.66"/>
			
				<rect x="200.955" y="1059.767" transform="matrix(0.7073 -0.7069 0.7069 0.7073 -696.8896 456.1906)" fill="#B0BEC5" width="2.912" height="19.661"/>
		</g>
		<g>
			<rect x="167.206" y="1091.089" fill="#B0BEC5" width="42.235" height="2.912"/>
			
				<rect x="172.79" y="1089.233" transform="matrix(-0.7071 -0.7071 0.7071 -0.7071 -479.6971 1999.427)" fill="#B0BEC5" width="2.913" height="19.658"/>
			
				<rect x="200.955" y="1089.244" transform="matrix(0.7072 -0.707 0.707 0.7072 -717.8025 464.9282)" fill="#B0BEC5" width="2.912" height="19.66"/>
		</g>
		<g>
			<rect x="167.206" y="1120.562" fill="#B0BEC5" width="42.235" height="2.913"/>
			
				<rect x="172.791" y="1118.705" transform="matrix(-0.707 -0.7072 0.7072 -0.707 -500.6457 2049.6602)" fill="#B0BEC5" width="2.912" height="19.659"/>
			
				<rect x="200.954" y="1118.717" transform="matrix(0.7071 -0.7071 0.7071 0.7071 -738.7184 473.6697)" fill="#B0BEC5" width="2.913" height="19.66"/>
		</g>
		<g>
			<rect x="167.206" y="1150.037" fill="#B0BEC5" width="42.235" height="2.912"/>
			
				<rect x="172.79" y="1148.18" transform="matrix(-0.707 -0.7072 0.7072 -0.707 -521.491 2099.9756)" fill="#B0BEC5" width="2.912" height="19.66"/>
			
				<rect x="200.955" y="1148.193" transform="matrix(0.7071 -0.7071 0.7071 0.7071 -759.5605 482.3036)" fill="#B0BEC5" width="2.913" height="19.66"/>
		</g>
		<g>
			<rect x="167.206" y="1179.511" fill="#B0BEC5" width="42.235" height="2.913"/>
			
				<rect x="172.791" y="1177.654" transform="matrix(-0.7071 -0.7071 0.7071 -0.7071 -542.2192 2150.3723)" fill="#B0BEC5" width="2.913" height="19.66"/>
			
				<rect x="200.955" y="1177.666" transform="matrix(0.707 -0.7072 0.7072 0.707 -780.4841 491.0528)" fill="#B0BEC5" width="2.912" height="19.66"/>
		</g>
	</g>
	<g>
		<g>
			<rect x="403.305" y="1059.018" fill="#B0BEC5" width="2.913" height="150.107"/>
			<rect x="445.538" y="1059.018" fill="#B0BEC5" width="2.914" height="150.107"/>
		</g>
		<g>
			<rect x="404.761" y="1061.613" fill="#B0BEC5" width="42.234" height="2.913"/>
			
				<rect x="410.343" y="1059.755" transform="matrix(-0.7069 -0.7073 0.7073 -0.7069 -53.5742 2116.9722)" fill="#B0BEC5" width="2.912" height="19.66"/>
			
				<rect x="438.51" y="1059.766" transform="matrix(0.7071 -0.7071 0.7071 0.7071 -627.4552 624.3805)" fill="#B0BEC5" width="2.913" height="19.66"/>
		</g>
		<g>
			<rect x="404.761" y="1091.089" fill="#B0BEC5" width="42.234" height="2.912"/>
			
				<rect x="410.342" y="1089.231" transform="matrix(-0.7069 -0.7073 0.7073 -0.7069 -74.4213 2167.2844)" fill="#B0BEC5" width="2.913" height="19.658"/>
			
				<rect x="438.51" y="1089.241" transform="matrix(0.7071 -0.7071 0.7071 0.7071 -648.2979 633.014)" fill="#B0BEC5" width="2.913" height="19.661"/>
		</g>
		<g>
			<rect x="404.761" y="1120.562" fill="#B0BEC5" width="42.234" height="2.913"/>
			
				<rect x="410.343" y="1118.704" transform="matrix(-0.7071 -0.7071 0.7071 -0.7071 -95.0083 2217.7146)" fill="#B0BEC5" width="2.913" height="19.66"/>
			
				<rect x="438.51" y="1118.715" transform="matrix(0.7071 -0.7071 0.7071 0.7071 -669.1388 641.6469)" fill="#B0BEC5" width="2.913" height="19.661"/>
		</g>
		<g>
			<rect x="404.761" y="1150.037" fill="#B0BEC5" width="42.234" height="2.912"/>
			
				<rect x="410.344" y="1148.179" transform="matrix(-0.7073 -0.7069 0.7069 -0.7073 -115.587 2268.157)" fill="#B0BEC5" width="2.912" height="19.66"/>
			
				<rect x="438.51" y="1148.191" transform="matrix(0.7071 -0.7071 0.7071 0.7071 -689.9812 650.28)" fill="#B0BEC5" width="2.913" height="19.661"/>
		</g>
		<g>
			<rect x="404.761" y="1179.511" fill="#B0BEC5" width="42.234" height="2.913"/>
			
				<rect x="410.344" y="1177.653" transform="matrix(-0.7071 -0.7071 0.7071 -0.7071 -136.6898 2318.3452)" fill="#B0BEC5" width="2.913" height="19.658"/>
			
				<rect x="438.51" y="1177.663" transform="matrix(0.7071 -0.7071 0.7071 0.7071 -710.8215 658.9124)" fill="#B0BEC5" width="2.913" height="19.661"/>
		</g>
	</g>
	<g>
		<g>
			<rect x="522.08" y="1059.018" fill="#B0BEC5" width="2.913" height="150.107"/>
			<rect x="564.314" y="1059.018" fill="#B0BEC5" width="2.913" height="150.107"/>
		</g>
		<g>
			<rect x="523.536" y="1061.613" fill="#B0BEC5" width="42.235" height="2.913"/>
			
				<rect x="529.119" y="1059.754" transform="matrix(-0.7069 -0.7073 0.7073 -0.7069 149.1697 2200.9778)" fill="#B0BEC5" width="2.912" height="19.661"/>
			
				<rect x="557.288" y="1059.766" transform="matrix(0.7071 -0.7071 0.7071 0.7071 -592.666 708.3691)" fill="#B0BEC5" width="2.913" height="19.659"/>
		</g>
		<g>
			<rect x="523.536" y="1091.089" fill="#B0BEC5" width="42.235" height="2.912"/>
			
				<rect x="529.118" y="1089.229" transform="matrix(-0.7071 -0.7071 0.7071 -0.7071 128.5952 2251.385)" fill="#B0BEC5" width="2.913" height="19.66"/>
			
				<rect x="557.288" y="1089.242" transform="matrix(0.7073 -0.7069 0.7069 0.7073 -613.4177 716.7245)" fill="#B0BEC5" width="2.912" height="19.658"/>
		</g>
		<g>
			<rect x="523.536" y="1120.562" fill="#B0BEC5" width="42.235" height="2.913"/>
			
				<rect x="529.12" y="1118.703" transform="matrix(-0.7073 -0.7069 0.7069 -0.7073 108.0341 2301.8005)" fill="#B0BEC5" width="2.912" height="19.661"/>
			
				<rect x="557.288" y="1118.716" transform="matrix(0.7073 -0.7069 0.7069 0.7073 -634.2538 725.3522)" fill="#B0BEC5" width="2.912" height="19.658"/>
		</g>
		<g>
			<rect x="523.536" y="1150.037" fill="#B0BEC5" width="42.235" height="2.912"/>
			
				<rect x="529.12" y="1148.177" transform="matrix(-0.7073 -0.7069 0.7069 -0.7073 87.1974 2352.1218)" fill="#B0BEC5" width="2.912" height="19.661"/>
			
				<rect x="557.288" y="1148.191" transform="matrix(0.7069 -0.7073 0.7073 0.7069 -655.2919 734.556)" fill="#B0BEC5" width="2.912" height="19.658"/>
		</g>
		<g>
			<rect x="523.536" y="1179.511" fill="#B0BEC5" width="42.235" height="2.913"/>
			
				<rect x="529.119" y="1177.65" transform="matrix(-0.7071 -0.7071 0.7071 -0.7071 66.0739 2402.3296)" fill="#B0BEC5" width="2.913" height="19.66"/>
			
				<rect x="557.29" y="1177.665" transform="matrix(0.7071 -0.7071 0.7071 0.7071 -676.0323 742.9016)" fill="#B0BEC5" width="2.911" height="19.658"/>
		</g>
	</g>
</g>
<g>
	<path fill="#E9682F" d="M1054.662,1122.186c-2.021,0-3.988,0.229-5.883,0.651c-5.834,1.302-10.951,4.494-14.678,8.904h21.275h19.85
		C1070.289,1125.898,1062.912,1122.186,1054.662,1122.186z"/>
	<polygon fill="#B0BEC5" points="1098.066,1157.777 1122.564,1156.841 1124.404,1154.714 1136.225,1154.714 1139.117,1139.136 
		1035.969,1145.626 1060.607,1188.907 	"/>
	<polygon fill="#263238" points="1027.809,1159.648 1037.877,1172.022 1052.383,1169.719 1039.271,1166.826 1027.809,1152.363 	"/>
	<polygon fill="#263238" points="979.705,1156.841 972.957,1180.138 1016.826,1181.343 1025.826,1164.148 1028.879,1163.451 
		1029.727,1153.543 1038.762,1151.694 1020.121,1143.646 993.273,1141.651 	"/>
	<polygon fill="#263238" points="1015.111,1171.224 1015.111,1191.085 1105.639,1191.085 1105.639,1151.5 	"/>
	<g>
		<path fill="#282921" d="M1124.404,1183.181c0-14.547-11.793-26.34-26.34-26.34c-14.545,0-26.338,11.793-26.338,26.34
			c0,14.544,11.793,26.338,26.338,26.338C1112.611,1209.519,1124.404,1197.725,1124.404,1183.181"/>
		<path fill="#E6B660" d="M1113.98,1183.181c0-8.789-7.127-15.914-15.914-15.914c-8.789,0-15.912,7.125-15.912,15.914
			c0,8.787,7.123,15.911,15.912,15.911C1106.854,1199.092,1113.98,1191.968,1113.98,1183.181"/>
		<path fill="#B0762A" d="M1106.158,1183.181c0-4.47-3.621-8.096-8.094-8.096c-4.469,0-8.092,3.625-8.092,8.096
			c0,4.469,3.621,8.093,8.092,8.093C1102.537,1191.271,1106.158,1187.649,1106.158,1183.181"/>
	</g>
	<g>
		<path fill="#282921" d="M1032.527,1183.181c0-14.547-11.791-26.34-26.338-26.34s-26.338,11.793-26.338,26.34
			c0,14.544,11.791,26.338,26.338,26.338S1032.527,1197.725,1032.527,1183.181"/>
		<path fill="#E6B660" d="M1022.102,1183.181c0-8.789-7.125-15.914-15.914-15.914c-8.787,0-15.912,7.125-15.912,15.914
			c0,8.787,7.125,15.911,15.912,15.911C1014.977,1199.092,1022.102,1191.968,1022.102,1183.181"/>
		<path fill="#B0762A" d="M1014.283,1183.181c0-4.47-3.623-8.096-8.094-8.096s-8.094,3.625-8.094,8.096
			c0,4.469,3.623,8.093,8.094,8.093C1010.658,1191.271,1014.283,1187.649,1014.283,1183.181"/>
	</g>
	<polygon fill="#FFD54E" points="975.26,1153.167 972.152,1168.166 977.402,1168.166 986.188,1153.167 	"/>
	<polygon fill="#FAA629" points="1025.254,1137.043 1021.969,1149.098 1045.752,1149.098 1045.752,1137.043 	"/>
	<polygon fill="#E6B660" points="1006.328,1124.456 983.617,1124.456 977.721,1144.318 1013.287,1140.814 	"/>
	<polygon fill="#263238" points="1006.328,1124.456 983.617,1124.456 977.721,1144.318 1013.287,1140.814 	"/>
	
		<rect x="1050.111" y="1159.363" transform="matrix(-0.2131 -0.977 0.977 -0.2131 141.3849 2437.9253)" fill="#FFD54E" width="4.619" height="5.331"/>
	
		<rect x="1063.821" y="1156.484" transform="matrix(-0.2131 -0.977 0.977 -0.2131 160.83 2447.8271)" fill="#FFD54E" width="4.619" height="5.329"/>
	
		<rect x="1077.701" y="1153.474" transform="matrix(-0.2127 -0.9771 0.9771 -0.2127 180.0718 2457.3618)" fill="#FFD54E" width="4.618" height="5.327"/>
	
		<rect x="1091.473" y="1150.553" transform="matrix(-0.2127 -0.9771 0.9771 -0.2127 199.6251 2467.2805)" fill="#FFD54E" width="4.618" height="5.333"/>
	
		<rect x="1105.207" y="1147.649" transform="matrix(-0.2135 -0.9769 0.9769 -0.2135 220.2163 2477.9109)" fill="#FFD54E" width="4.619" height="5.33"/>
	
		<rect x="1119.068" y="1144.738" transform="matrix(-0.2128 -0.9771 0.9771 -0.2128 238.8322 2487.231)" fill="#FFD54E" width="4.617" height="5.331"/>
	<polygon fill="#FFD54E" points="1132.143,1142.85 1133.127,1147.361 1138.334,1146.227 1137.354,1141.715 	"/>
	<polyline fill="#FFD54E" points="1155.346,1138.383 1152.133,1143.633 1146.926,1144.768 1145.941,1140.254 	"/>
	<polygon fill="#FFD54E" points="975.229,1116.743 975.229,1120.171 1015.084,1120.171 1039.723,1163.451 1154.781,1138.383 
		1154.781,1131.741 1031.795,1131.741 1023.225,1116.743 	"/>
	<polygon fill="#546E7A" points="1005.043,1126.384 984.9,1126.384 981.365,1138.301 1008.955,1135.583 	"/>
	<polygon fill="#455B65" points="981.365,1138.301 979.008,1146.247 1012,1142.741 1008.955,1135.583 	"/>
	<rect x="993.273" y="1124.969" fill="#263238" width="1.928" height="18.291"/>
	<polygon fill="#FFD54E" points="1013.287,1140.814 977.721,1144.318 975.795,1150.811 972.797,1150.811 971.617,1151.882 
		971.617,1155.095 1018.541,1155.095 	"/>
	<rect x="1034.102" y="1172.419" fill="#FFD54E" width="35.834" height="27.567"/>
	<rect x="972.152" y="1168.166" fill="#FFD54E" width="5.352" height="25.282"/>
	<rect x="1038.684" y="1176.776" fill="#FCB316" width="4.287" height="18.854"/>
	<rect x="1046.145" y="1176.776" fill="#FCB316" width="4.285" height="18.854"/>
	<rect x="1053.605" y="1176.776" fill="#FCB316" width="4.287" height="18.854"/>
	<rect x="1061.07" y="1176.776" fill="#FCB316" width="4.283" height="18.854"/>
	<polygon fill="#FCB316" points="1035.199,1137.74 1045.117,1155.161 1125.07,1137.74 	"/>
	<rect x="966.904" y="1133.135" fill="#37474F" width="0.789" height="21.022"/>
	<rect x="976.625" y="1133.135" fill="#37474F" width="0.791" height="21.022"/>
	<rect x="987.139" y="1133.135" fill="#37474F" width="0.789" height="21.022"/>
	<rect x="987.139" y="1133.135" fill="#37474F" width="0.789" height="21.022"/>
	<rect x="996.859" y="1133.135" fill="#37474F" width="0.789" height="21.022"/>
	<rect x="1007.371" y="1133.135" fill="#37474F" width="0.791" height="21.022"/>
	<rect x="966.904" y="1132.739" fill="#37474F" width="41.258" height="0.79"/>
	<rect x="966.904" y="1143.251" fill="#37474F" width="41.258" height="0.79"/>
	<rect x="966.904" y="1154.727" fill="#37474F" width="4.748" height="0.355"/>
	<rect x="966.904" y="1154.157" fill="#37474F" width="41.258" height="0.938"/>
	<polygon fill="#FFD54E" points="1006.328,1124.444 1005.691,1122.946 984.082,1122.946 983.633,1124.456 1006.328,1124.456 	"/>
	<path fill="#F3824D" d="M1066.234,1131.741h34.354c3.727-4.411,8.844-7.603,14.68-8.904c-7.09-7.177-16.932-11.628-27.818-11.628
		c-12.906,0-24.352,6.256-31.469,15.899C1060.049,1127.156,1063.701,1128.933,1066.234,1131.741z"/>
	<path fill="#E9682F" d="M1138.553,1131.741c-4.939-5.843-12.316-9.557-20.564-9.557c-2.021,0-3.988,0.229-5.883,0.652
		c2.596,2.63,4.824,5.624,6.596,8.904H1138.553L1138.553,1131.741z"/>
	<path fill="#E9682F" d="M1097.426,1131.741h21.275c-1.771-3.279-4-6.273-6.596-8.904
		C1106.271,1124.139,1101.154,1127.33,1097.426,1131.741z"/>
	<path fill="#F58967" d="M1055.98,1127.106c-0.059-0.001-0.113-0.004-0.172-0.004c-4.137,0-7.857,1.789-10.428,4.639h7.654
		C1053.91,1130.123,1054.895,1128.577,1055.98,1127.106z"/>
	<path fill="#F58967" d="M1066.234,1131.741c-2.533-2.809-6.186-4.586-10.254-4.633c-1.086,1.47-2.07,3.017-2.943,4.633H1066.234z"
		/>
</g>
<g>
	<path fill="#EA6831" d="M733.424,1197.246c8.657,0,16.074,5.291,19.203,12.815h27.003c-19.106-12.634-42.004-19.994-66.625-19.994
		c-2.174,0-4.335,0.06-6.483,0.174c6.883,2.027,13.432,4.845,19.528,8.356C728.343,1197.726,730.826,1197.246,733.424,1197.246z"/>
	<path fill="#F4844D" d="M706.522,1190.239c-8.136-2.396-16.744-3.687-25.655-3.687c-23.448,0-44.818,8.903-60.914,23.509h26.428
		C663.799,1198.545,684.368,1191.409,706.522,1190.239z"/>
	<path fill="#F4844D" d="M714.219,1210.062c2.19-5.267,6.484-9.436,11.831-11.465c-6.097-3.513-12.644-6.328-19.528-8.355
		c-22.154,1.17-42.723,8.305-60.141,19.822L714.219,1210.062L714.219,1210.062z"/>
	<path fill="#F58967" d="M752.627,1210.062c-3.128-7.524-10.545-12.815-19.203-12.815c-2.599,0-5.083,0.479-7.374,1.352
		c5.657,3.255,10.93,7.107,15.73,11.464H752.627L752.627,1210.062z"/>
	<path fill="#F58967" d="M726.05,1198.596c-5.347,2.029-9.641,6.197-11.831,11.464h27.562
		C736.98,1205.703,731.708,1201.853,726.05,1198.596z"/>
</g>
<g>
	<g>
		<g>
			<g>
				<polyline fill="none" stroke="#434343" stroke-width="1.9061" stroke-miterlimit="10" points="60.875,739.904 172.332,672.809 
					341.745,751.867 				"/>
				<g>
					<polyline fill="none" stroke="#FFCB28" stroke-width="1.9061" stroke-miterlimit="10" points="356.876,768.528 189.08,768.528 
						189.08,751.943 356.876,751.943 					"/>
					
						<line fill="none" stroke="#FFCB28" stroke-width="1.9061" stroke-miterlimit="10" x1="211.955" y1="769.076" x2="211.955" y2="752.391"/>
					
						<line fill="none" stroke="#FFCB28" stroke-width="1.9061" stroke-miterlimit="10" x1="234.827" y1="752.391" x2="234.827" y2="769.076"/>
					
						<line fill="none" stroke="#FFCB28" stroke-width="1.9061" stroke-miterlimit="10" x1="257.701" y1="752.391" x2="257.701" y2="769.076"/>
					
						<line fill="none" stroke="#FFCB28" stroke-width="1.9061" stroke-miterlimit="10" x1="280.574" y1="752.391" x2="280.574" y2="769.076"/>
					
						<line fill="none" stroke="#FFCB28" stroke-width="1.9061" stroke-miterlimit="10" x1="303.45" y1="752.391" x2="303.45" y2="769.076"/>
					
						<line fill="none" stroke="#FFCB28" stroke-width="1.9061" stroke-miterlimit="10" x1="326.32" y1="752.391" x2="326.32" y2="769.076"/>
					
						<line fill="none" stroke="#FFCB28" stroke-width="1.9061" stroke-miterlimit="10" x1="189.08" y1="751.943" x2="211.955" y2="768.528"/>
					
						<line fill="none" stroke="#FFCB28" stroke-width="1.9061" stroke-miterlimit="10" x1="211.955" y1="751.943" x2="234.827" y2="768.528"/>
					
						<line fill="none" stroke="#FFCB28" stroke-width="1.9061" stroke-miterlimit="10" x1="234.827" y1="751.943" x2="257.701" y2="768.528"/>
					
						<line fill="none" stroke="#FFCB28" stroke-width="1.9061" stroke-miterlimit="10" x1="257.701" y1="751.943" x2="280.574" y2="768.528"/>
					
						<line fill="none" stroke="#FFCB28" stroke-width="1.9061" stroke-miterlimit="10" x1="280.574" y1="751.943" x2="303.45" y2="768.528"/>
					
						<line fill="none" stroke="#FFCB28" stroke-width="1.9061" stroke-miterlimit="10" x1="303.45" y1="751.943" x2="326.32" y2="768.528"/>
					
						<line fill="none" stroke="#FFCB28" stroke-width="1.9061" stroke-miterlimit="10" x1="326.704" y1="751.867" x2="349.577" y2="768.45"/>
				</g>
				<g>
					
						<line fill="none" stroke="#FFCB28" stroke-width="1.9061" stroke-miterlimit="10" x1="171.887" y1="718.557" x2="155.202" y2="718.557"/>
					
						<line fill="none" stroke="#FFCB28" stroke-width="1.9061" stroke-miterlimit="10" x1="171.887" y1="741.431" x2="155.202" y2="741.431"/>
					
						<line fill="none" stroke="#FFCB28" stroke-width="1.9061" stroke-miterlimit="10" x1="172.332" y1="718.557" x2="155.748" y2="741.431"/>
					
						<line fill="none" stroke="#FFCB28" stroke-width="1.9061" stroke-miterlimit="10" x1="172.332" y1="741.431" x2="155.748" y2="764.306"/>
					<polyline fill="none" stroke="#FFCB28" stroke-width="1.9061" stroke-miterlimit="10" points="155.748,695.683 
						172.332,695.683 172.332,817.729 155.748,817.729 155.748,695.683 172.332,672.809 172.332,695.683 155.748,718.557 					"/>
				</g>
				
					<line fill="none" stroke="#FFCB28" stroke-width="1.9061" stroke-miterlimit="10" x1="171.887" y1="764.306" x2="155.202" y2="764.306"/>
				
					<line fill="none" stroke="#FFCB28" stroke-width="1.9061" stroke-miterlimit="10" x1="171.887" y1="787.178" x2="155.202" y2="787.178"/>
				
					<line fill="none" stroke="#FFCB28" stroke-width="1.9061" stroke-miterlimit="10" x1="172.332" y1="764.306" x2="155.748" y2="787.178"/>
				
					<line fill="none" stroke="#FFCB28" stroke-width="1.9061" stroke-miterlimit="10" x1="172.41" y1="787.559" x2="155.828" y2="810.432"/>
				<g>
					
						<rect x="38.001" y="751.943" fill="none" stroke="#FFCB28" stroke-width="1.9061" stroke-miterlimit="10" width="167.795" height="16.584"/>
					
						<line fill="none" stroke="#FFCB28" stroke-width="1.9061" stroke-miterlimit="10" x1="60.875" y1="769.076" x2="60.875" y2="752.391"/>
					
						<line fill="none" stroke="#FFCB28" stroke-width="1.9061" stroke-miterlimit="10" x1="83.75" y1="752.391" x2="83.75" y2="769.076"/>
					
						<line fill="none" stroke="#FFCB28" stroke-width="1.9061" stroke-miterlimit="10" x1="106.622" y1="752.391" x2="106.622" y2="769.076"/>
					
						<line fill="none" stroke="#FFCB28" stroke-width="1.9061" stroke-miterlimit="10" x1="129.495" y1="752.391" x2="129.495" y2="769.076"/>
					
						<line fill="none" stroke="#FFCB28" stroke-width="1.9061" stroke-miterlimit="10" x1="152.37" y1="752.391" x2="152.37" y2="769.076"/>
					
						<line fill="none" stroke="#FFCB28" stroke-width="1.9061" stroke-miterlimit="10" x1="175.244" y1="752.391" x2="175.244" y2="769.076"/>
					
						<line fill="none" stroke="#FFCB28" stroke-width="1.9061" stroke-miterlimit="10" x1="38.001" y1="751.943" x2="60.875" y2="768.528"/>
					
						<line fill="none" stroke="#FFCB28" stroke-width="1.9061" stroke-miterlimit="10" x1="60.875" y1="751.943" x2="83.75" y2="768.528"/>
					
						<line fill="none" stroke="#FFCB28" stroke-width="1.9061" stroke-miterlimit="10" x1="83.75" y1="751.943" x2="106.622" y2="768.528"/>
					
						<line fill="none" stroke="#FFCB28" stroke-width="1.9061" stroke-miterlimit="10" x1="106.622" y1="751.943" x2="129.495" y2="768.528"/>
					
						<line fill="none" stroke="#FFCB28" stroke-width="1.9061" stroke-miterlimit="10" x1="129.495" y1="751.943" x2="152.37" y2="768.528"/>
					
						<line fill="none" stroke="#FFCB28" stroke-width="1.9061" stroke-miterlimit="10" x1="152.37" y1="751.943" x2="175.244" y2="768.528"/>
					
						<line fill="none" stroke="#FFCB28" stroke-width="1.9061" stroke-miterlimit="10" x1="175.624" y1="751.867" x2="198.498" y2="768.45"/>
				</g>
				<rect x="137.997" y="751.867" fill="#FFD54E" width="76.041" height="28.561"/>
				<rect x="145.781" y="789.48" fill="#FAA629" width="43.366" height="28.561"/>
				
					<rect x="153.563" y="829.223" fill="none" stroke="#FFCB28" stroke-width="3.1954" stroke-miterlimit="10" width="27.8" height="369.208"/>
				<rect x="146.854" y="1185.01" fill="#FFCB28" width="41.219" height="24.286"/>
				<g>
					<polygon fill="#FFD54E" points="196.898,1190.27 194.276,1190.27 196.898,1192.895 					"/>
					<polygon fill="#FFD54E" points="138.027,1209.761 140.916,1209.761 138.027,1206.873 					"/>
					<polygon fill="#434343" points="138.027,1206.873 140.916,1209.761 151.324,1209.761 138.027,1196.467 					"/>
					<polygon fill="#434343" points="196.898,1192.895 194.276,1190.27 183.869,1190.27 196.898,1203.301 					"/>
					<polygon fill="#FFD54E" points="138.027,1190.27 138.027,1196.467 151.324,1209.761 161.732,1209.761 142.239,1190.27 					"/>
					<polygon fill="#FFD54E" points="196.898,1203.301 183.869,1190.27 173.461,1190.27 192.952,1209.761 196.898,1209.761 					"/>
					<polygon fill="#FFD54E" points="152.645,1190.27 172.137,1209.761 182.546,1209.761 163.053,1190.27 					"/>
					<polygon fill="#434343" points="142.239,1190.27 161.732,1209.761 172.137,1209.761 152.645,1190.27 					"/>
					<polygon fill="#434343" points="163.053,1190.27 182.546,1209.761 192.952,1209.761 173.461,1190.27 					"/>
				</g>
				
					<line fill="none" stroke="#FFCB28" stroke-width="3.1954" stroke-miterlimit="10" x1="180.617" y1="829.223" x2="152.647" y2="829.223"/>
				
					<line fill="none" stroke="#FFCB28" stroke-width="3.1954" stroke-miterlimit="10" x1="152.647" y1="867.568" x2="180.617" y2="867.568"/>
				
					<line fill="none" stroke="#FFCB28" stroke-width="3.1954" stroke-miterlimit="10" x1="180.617" y1="905.912" x2="152.647" y2="905.912"/>
				
					<line fill="none" stroke="#FFCB28" stroke-width="3.1954" stroke-miterlimit="10" x1="180.617" y1="944.258" x2="152.647" y2="944.258"/>
				
					<line fill="none" stroke="#FFCB28" stroke-width="3.1954" stroke-miterlimit="10" x1="180.617" y1="982.603" x2="152.647" y2="982.603"/>
				
					<line fill="none" stroke="#FFCB28" stroke-width="3.1954" stroke-miterlimit="10" x1="180.617" y1="1020.947" x2="152.647" y2="1020.947"/>
				
					<line fill="none" stroke="#FFCB28" stroke-width="3.1954" stroke-miterlimit="10" x1="180.617" y1="1059.29" x2="152.647" y2="1059.29"/>
				
					<line fill="none" stroke="#FFCB28" stroke-width="3.1954" stroke-miterlimit="10" x1="180.617" y1="1097.637" x2="152.647" y2="1097.637"/>
				
					<line fill="none" stroke="#FFCB28" stroke-width="3.1954" stroke-miterlimit="10" x1="181.363" y1="829.223" x2="153.563" y2="867.568"/>
				
					<line fill="none" stroke="#FFCB28" stroke-width="3.1954" stroke-miterlimit="10" x1="181.363" y1="867.568" x2="153.563" y2="905.912"/>
				
					<line fill="none" stroke="#FFCB28" stroke-width="3.1954" stroke-miterlimit="10" x1="181.363" y1="905.912" x2="153.563" y2="944.258"/>
				
					<line fill="none" stroke="#FFCB28" stroke-width="3.1954" stroke-miterlimit="10" x1="181.363" y1="944.258" x2="153.563" y2="982.603"/>
				
					<line fill="none" stroke="#FFCB28" stroke-width="3.1954" stroke-miterlimit="10" x1="181.363" y1="982.603" x2="153.563" y2="1020.947"/>
				
					<line fill="none" stroke="#FFCB28" stroke-width="3.1954" stroke-miterlimit="10" x1="181.363" y1="1020.947" x2="153.563" y2="1059.29"/>
				
					<line fill="none" stroke="#FFCB28" stroke-width="3.1954" stroke-miterlimit="10" x1="181.496" y1="1059.929" x2="153.695" y2="1098.275"/>
				<rect x="146.854" y="817.08" fill="#434343" width="41.219" height="12.143"/>
				<rect x="139.462" y="811.969" fill="#FFCB28" width="56.001" height="12.144"/>
				<rect x="132.555" y="778.51" fill="#FFCB28" width="87.553" height="4.488"/>
				<polygon fill="#434343" points="189.146,789.48 216.7,782.998 135.231,782.998 145.781,789.48 				"/>
				<rect x="172.817" y="754.868" fill="#434343" width="41.22" height="17.249"/>
				<rect x="22.209" y="740.059" fill="#434343" width="36.214" height="57.091"/>
				<rect x="38.001" y="739.904" fill="#757576" width="11.438" height="57.092"/>
				<rect x="49.437" y="740.059" fill="#616262" width="8.985" height="57.091"/>
				<rect x="10" y="733.833" fill="#FFCB28" width="56.001" height="12.142"/>
			</g>
			<g>
				
					<rect x="349.206" y="751.958" fill="none" stroke="#FFCB28" stroke-width="1.9061" stroke-miterlimit="10" width="160.498" height="16.583"/>
				
					<line fill="none" stroke="#FFCB28" stroke-width="1.9061" stroke-miterlimit="10" x1="394.955" y1="752.402" x2="394.955" y2="769.089"/>
				
					<line fill="none" stroke="#FFCB28" stroke-width="1.9061" stroke-miterlimit="10" x1="417.829" y1="752.402" x2="417.829" y2="769.089"/>
				
					<line fill="none" stroke="#FFCB28" stroke-width="1.9061" stroke-miterlimit="10" x1="440.7" y1="752.402" x2="440.7" y2="769.089"/>
				
					<line fill="none" stroke="#FFCB28" stroke-width="1.9061" stroke-miterlimit="10" x1="463.574" y1="752.402" x2="463.574" y2="769.089"/>
				
					<line fill="none" stroke="#FFCB28" stroke-width="1.9061" stroke-miterlimit="10" x1="486.448" y1="752.402" x2="486.448" y2="769.089"/>
				
					<line fill="none" stroke="#FFCB28" stroke-width="1.9061" stroke-miterlimit="10" x1="372.078" y1="751.958" x2="394.955" y2="768.541"/>
				
					<line fill="none" stroke="#FFCB28" stroke-width="1.9061" stroke-miterlimit="10" x1="394.955" y1="751.958" x2="417.829" y2="768.541"/>
				
					<line fill="none" stroke="#FFCB28" stroke-width="1.9061" stroke-miterlimit="10" x1="417.829" y1="751.958" x2="440.7" y2="768.541"/>
				
					<line fill="none" stroke="#FFCB28" stroke-width="1.9061" stroke-miterlimit="10" x1="440.7" y1="751.958" x2="463.574" y2="768.541"/>
				
					<line fill="none" stroke="#FFCB28" stroke-width="1.9061" stroke-miterlimit="10" x1="463.574" y1="751.958" x2="486.448" y2="768.541"/>
				
					<line fill="none" stroke="#FFCB28" stroke-width="1.9061" stroke-miterlimit="10" x1="486.829" y1="751.876" x2="509.704" y2="768.461"/>
				
					<line fill="none" stroke="#FFCB28" stroke-width="1.9061" stroke-miterlimit="10" x1="372.08" y1="752.623" x2="372.08" y2="769.31"/>
				
					<line fill="none" stroke="#FFCB28" stroke-width="1.9061" stroke-miterlimit="10" x1="349.206" y1="752.179" x2="372.08" y2="768.763"/>
			</g>
			
				<line fill="none" stroke="#FFCB28" stroke-width="1.9061" stroke-miterlimit="10" x1="555.452" y1="752.402" x2="555.452" y2="769.089"/>
			
				<line fill="none" stroke="#FFCB28" stroke-width="1.9061" stroke-miterlimit="10" x1="578.325" y1="752.402" x2="578.325" y2="769.089"/>
			
				<line fill="none" stroke="#FFCB28" stroke-width="1.9061" stroke-miterlimit="10" x1="532.576" y1="751.958" x2="555.452" y2="768.541"/>
			
				<line fill="none" stroke="#FFCB28" stroke-width="1.9061" stroke-miterlimit="10" x1="555.452" y1="751.958" x2="578.325" y2="768.541"/>
			
				<line fill="none" stroke="#FFCB28" stroke-width="1.9061" stroke-miterlimit="10" x1="532.578" y1="752.623" x2="532.578" y2="769.31"/>
			
				<line fill="none" stroke="#FFCB28" stroke-width="1.9061" stroke-miterlimit="10" x1="509.704" y1="752.179" x2="532.578" y2="768.763"/>
			<polyline fill="none" stroke="#FFCB28" stroke-width="1.9061" stroke-miterlimit="10" points="578.294,751.958 578.294,768.541 
				440.7,768.541 440.7,751.958 578.294,751.958 601.167,768.541 578.294,768.541 555.418,751.958 			"/>
		</g>
		<g>
			<g>
				<rect x="559.074" y="761.818" fill="#434343" width="41.221" height="17.25"/>
				<rect x="567.783" y="767.184" fill="#E0E0E0" width="32.512" height="9.434"/>
			</g>
			<rect x="574.013" y="789.612" fill="#434343" width="11.345" height="3.941"/>
			<rect x="577.721" y="792.168" fill="#434343" width="3.924" height="6.816"/>
			<path fill="#434343" d="M579.684,796.342L579.684,796.342v2.645l0,0c1.383,0,2.502,1.12,2.502,2.501
				c0,1.382-1.121,2.502-2.502,2.502c-0.692,0-1.317-0.279-1.769-0.733l-1.867,1.869c0.93,0.931,2.217,1.505,3.638,1.505
				c2.842,0,5.146-2.304,5.146-5.144C584.83,798.645,582.526,796.342,579.684,796.342z"/>
			
				<line fill="none" stroke="#434343" stroke-width="1.2781" stroke-miterlimit="10" x1="579.355" y1="778.108" x2="579.355" y2="791.583"/>
			
				<line fill="none" stroke="#434343" stroke-width="1.2781" stroke-miterlimit="10" x1="579.684" y1="803.064" x2="579.684" y2="816.54"/>
			<rect x="576.109" y="810.378" fill="#616262" width="7.15" height="15.658"/>
		</g>
	</g>
	
		<line fill="none" stroke="#FFCB28" stroke-width="3.1954" stroke-miterlimit="10" x1="181.057" y1="1175.603" x2="172.137" y2="1187.904"/>
	
		<line fill="none" stroke="#FFCB28" stroke-width="3.1954" stroke-miterlimit="10" x1="180.179" y1="1136.618" x2="152.207" y2="1136.618"/>
	
		<line fill="none" stroke="#FFCB28" stroke-width="3.1954" stroke-miterlimit="10" x1="180.179" y1="1174.963" x2="152.207" y2="1174.963"/>
	
		<line fill="none" stroke="#FFCB28" stroke-width="3.1954" stroke-miterlimit="10" x1="180.925" y1="1098.275" x2="153.124" y2="1136.618"/>
	
		<line fill="none" stroke="#FFCB28" stroke-width="3.1954" stroke-miterlimit="10" x1="180.925" y1="1136.618" x2="153.124" y2="1174.963"/>
</g>
<g>
	<rect x="1145.697" y="1186.278" fill="#37474F" width="2.203" height="22.855"/>
	<rect x="1167.748" y="1186.278" fill="#37474F" width="2.201" height="22.855"/>
	<polygon fill="#FFFFFF" points="1174.475,1188.778 1172.992,1188.778 1174.475,1190.262 	"/>
	<polygon fill="#FFFFFF" points="1141.203,1199.794 1142.834,1199.794 1141.203,1198.161 	"/>
	<polygon fill="#FFFFFF" points="1141.203,1188.778 1141.203,1192.28 1148.715,1199.794 1154.6,1199.794 1143.582,1188.778 	"/>
	<polygon fill="#FFFFFF" points="1174.475,1196.144 1167.109,1188.778 1161.229,1188.778 1172.244,1199.794 1174.475,1199.794 	"/>
	<polygon fill="#FFFFFF" points="1149.465,1188.778 1160.48,1199.794 1166.363,1199.794 1155.346,1188.778 	"/>
	<polygon fill="#EF4438" points="1141.203,1198.161 1142.834,1199.794 1148.715,1199.794 1141.203,1192.28 	"/>
	<polygon fill="#EF4438" points="1143.582,1188.778 1154.6,1199.794 1160.48,1199.794 1149.465,1188.778 	"/>
	<polygon fill="#EF4438" points="1155.346,1188.778 1166.363,1199.794 1172.244,1199.794 1161.229,1188.778 	"/>
	<polygon fill="#EF4438" points="1174.475,1190.262 1172.992,1188.778 1167.109,1188.778 1174.475,1196.144 	"/>
	<rect x="1146.486" y="1204.248" fill="#37474F" width="22.855" height="2.204"/>
</g>
<g>
	<rect x="751.988" y="1186.277" fill="#37474F" width="2.202" height="22.856"/>
	<rect x="774.037" y="1186.277" fill="#37474F" width="2.202" height="22.856"/>
	<polygon fill="#FFFFFF" points="780.764,1188.777 779.281,1188.777 780.764,1190.262 	"/>
	<polygon fill="#FFFFFF" points="747.491,1199.794 749.125,1199.794 747.491,1198.161 	"/>
	<polygon fill="#FFFFFF" points="747.491,1188.777 747.491,1192.28 755.006,1199.794 760.888,1199.794 749.872,1188.777 	"/>
	<polygon fill="#FFFFFF" points="780.764,1196.142 773.398,1188.777 767.518,1188.777 778.533,1199.794 780.764,1199.794 	"/>
	<polygon fill="#FFFFFF" points="755.753,1188.777 766.77,1199.794 772.652,1199.794 761.636,1188.777 	"/>
	<polygon fill="#EF4438" points="747.491,1198.161 749.125,1199.794 755.006,1199.794 747.491,1192.28 	"/>
	<polygon fill="#EF4438" points="749.872,1188.777 760.888,1199.794 766.77,1199.794 755.753,1188.777 	"/>
	<polygon fill="#EF4438" points="761.636,1188.777 772.652,1199.794 778.533,1199.794 767.518,1188.777 	"/>
	<polygon fill="#EF4438" points="780.764,1190.262 779.281,1188.777 773.398,1188.777 780.764,1196.142 	"/>
	<rect x="752.774" y="1204.248" fill="#37474F" width="22.856" height="2.204"/>
</g>
<g>
	<rect x="224.999" y="1186.277" fill="#37474F" width="2.202" height="22.856"/>
	<rect x="247.048" y="1186.277" fill="#37474F" width="2.203" height="22.856"/>
	<polygon fill="#FFFFFF" points="253.775,1188.777 252.292,1188.777 253.775,1190.262 	"/>
	<polygon fill="#FFFFFF" points="220.502,1199.794 222.135,1199.794 220.502,1198.161 	"/>
	<polygon fill="#FFFFFF" points="220.502,1188.777 220.502,1192.28 228.017,1199.794 233.899,1199.794 222.883,1188.777 	"/>
	<polygon fill="#FFFFFF" points="253.775,1196.142 246.41,1188.777 240.529,1188.777 251.545,1199.794 253.775,1199.794 	"/>
	<polygon fill="#FFFFFF" points="228.764,1188.777 239.781,1199.794 245.663,1199.794 234.647,1188.777 	"/>
	<polygon fill="#EF4438" points="220.502,1198.161 222.135,1199.794 228.017,1199.794 220.502,1192.28 	"/>
	<polygon fill="#EF4438" points="222.883,1188.777 233.899,1199.794 239.781,1199.794 228.764,1188.777 	"/>
	<polygon fill="#EF4438" points="234.647,1188.777 245.663,1199.794 251.545,1199.794 240.529,1188.777 	"/>
	<polygon fill="#EF4438" points="253.775,1190.262 252.292,1188.777 246.41,1188.777 253.775,1196.142 	"/>
	<rect x="225.786" y="1204.248" fill="#37474F" width="22.855" height="2.204"/>
</g>
<g>
	<rect x="369.045" y="1186.277" fill="#37474F" width="2.202" height="22.856"/>
	<rect x="391.096" y="1186.277" fill="#37474F" width="2.202" height="22.856"/>
	<polygon fill="#FFFFFF" points="397.822,1188.778 396.339,1188.778 397.822,1190.262 	"/>
	<polygon fill="#FFFFFF" points="364.549,1199.794 366.182,1199.794 364.549,1198.161 	"/>
	<polygon fill="#FFFFFF" points="364.549,1188.778 364.549,1192.28 372.063,1199.794 377.945,1199.794 366.93,1188.778 	"/>
	<polygon fill="#FFFFFF" points="397.822,1196.144 390.458,1188.778 384.576,1188.778 395.592,1199.794 397.822,1199.794 	"/>
	<polygon fill="#FFFFFF" points="372.812,1188.778 383.827,1199.794 389.709,1199.794 378.694,1188.778 	"/>
	<polygon fill="#EF4438" points="364.549,1198.161 366.182,1199.794 372.063,1199.794 364.549,1192.28 	"/>
	<polygon fill="#EF4438" points="366.93,1188.778 377.945,1199.794 383.827,1199.794 372.812,1188.778 	"/>
	<polygon fill="#EF4438" points="378.694,1188.778 389.709,1199.794 395.592,1199.794 384.576,1188.778 	"/>
	<polygon fill="#EF4438" points="397.822,1190.262 396.339,1188.778 390.458,1188.778 397.822,1196.144 	"/>
	<rect x="369.833" y="1204.248" fill="#37474F" width="22.856" height="2.204"/>
</g>
<g>
	<rect x="1096.555" y="1186.278" fill="#37474F" width="2.205" height="22.855"/>
	<rect x="1118.605" y="1186.278" fill="#37474F" width="2.201" height="22.855"/>
	<polygon fill="#FFFFFF" points="1125.332,1188.778 1123.85,1188.778 1125.332,1190.262 	"/>
	<polygon fill="#FFFFFF" points="1092.059,1199.794 1093.691,1199.794 1092.059,1198.161 	"/>
	<polygon fill="#FFFFFF" points="1092.059,1188.778 1092.059,1192.28 1099.574,1199.794 1105.455,1199.794 1094.439,1188.778 	"/>
	<polygon fill="#FFFFFF" points="1125.332,1196.144 1117.967,1188.778 1112.086,1188.778 1123.102,1199.794 1125.332,1199.794 	"/>
	<polygon fill="#FFFFFF" points="1100.322,1188.778 1111.336,1199.794 1117.221,1199.794 1106.205,1188.778 	"/>
	<polygon fill="#EF4438" points="1092.059,1198.161 1093.691,1199.794 1099.574,1199.794 1092.059,1192.28 	"/>
	<polygon fill="#EF4438" points="1094.439,1188.778 1105.455,1199.794 1111.336,1199.794 1100.322,1188.778 	"/>
	<polygon fill="#EF4438" points="1106.205,1188.778 1117.221,1199.794 1123.102,1199.794 1112.086,1188.778 	"/>
	<polygon fill="#EF4438" points="1125.332,1190.262 1123.85,1188.778 1117.967,1188.778 1125.332,1196.144 	"/>
	<rect x="1097.344" y="1204.248" fill="#37474F" width="22.855" height="2.204"/>
</g>
<g>
	<polygon fill="#FFB300" points="1476.836,1144.083 1490.482,1140.922 1492.377,1142.931 1485.744,1148.208 	"/>
	<path fill="#555356" d="M1457.295,1138.386h12.5l2.928-17.68c0,0-10.932-8.928-24.859,1.501L1457.295,1138.386z"/>
	<rect x="1491.637" y="1154.207" fill="#484A3A" width="0.619" height="2.142"/>
	<polygon fill="#645537" points="1491.025,1155.932 1492.867,1155.932 1492.867,1165.979 1491.025,1160.957 	"/>
	<polygon fill="#FFD54E" points="1492.375,1172.324 1477.787,1150.617 1465.24,1142.883 1467.285,1140.226 1485.982,1147.778 
		1494.879,1170.267 1492.316,1173.01 	"/>
	<path fill="#FCB316" d="M1485.422,1183.096l2.182-3.316l9.896,9.929v4h3.285v-1.857l4.535,0.181v8.25h-6.75l-3.715-3.115
		C1494.857,1197.164,1496.779,1188.025,1485.422,1183.096z"/>
	<polygon fill="#3E2723" points="1474.275,1119.207 1473.131,1139.274 1456.65,1139.274 1443.26,1117.517 1443.926,1117.517 
		1445.318,1119.207 1469.443,1120.578 	"/>
	<polygon fill="#FCB316" points="1566.074,1195.208 1550.781,1195.208 1523.586,1198.097 1516.488,1198.097 1516.488,1176.492 
		1551.574,1176.492 1565.93,1193.708 	"/>
	<polygon fill="#795722" points="1566.502,1184.672 1562.432,1184.672 1556.795,1166.032 1561.764,1166.032 1566.502,1168.193 	"/>
	<polygon fill="#5D4137" points="1559.859,1184.672 1568.145,1184.672 1568.145,1193.708 1565.93,1193.708 1559.859,1193.708 	"/>
	<path fill="#C2842B" d="M1520.447,1150.633L1520.447,1150.633c-1.188,0-2.16-0.97-2.16-2.161v-2.782
		c0-1.188,0.973-2.161,2.16-2.161c1.189,0,2.16,0.973,2.16,2.161v2.782C1522.607,1149.66,1521.637,1150.633,1520.447,1150.633"/>
	<polygon fill="#B0BEC5" points="1477.037,1153.592 1482.232,1161.601 1483.064,1161.118 1477.732,1153.296 	"/>
	<rect x="1491.275" y="1142.931" fill="#B0BEC5" width="1.34" height="11.276"/>
	<path fill="#484A3A" d="M1487.842,1172.92l-6.316-9.192c-0.699-1.015-0.439-2.415,0.576-3.112c1.014-0.697,2.414-0.438,3.113,0.576
		l6.316,9.193c0.697,1.014,0.438,2.415-0.576,3.112C1489.939,1174.194,1488.537,1173.935,1487.842,1172.92"/>
	<polygon fill="#FFD54E" points="1487.604,1179.779 1484,1178.565 1484,1175.637 1486.93,1175.637 1488.744,1177.248 
		1500.93,1188.065 1500.787,1193.708 1497.5,1193.708 1497.5,1189.708 	"/>
	<path fill="#912A8D" d="M1529.328,1196.567c0.006,0.066,0.006,0.134,0.012,0.201c0-0.018,0.006-0.034,0.006-0.051
		C1529.346,1196.666,1529.334,1196.618,1529.328,1196.567"/>
	<path fill="#912A8D" d="M1525.461,1196.718c0,0.154,0.02,0.304,0.053,0.447c-0.018-0.222-0.023-0.448-0.033-0.673
		C1525.473,1196.566,1525.461,1196.641,1525.461,1196.718"/>
	<g>
		<path fill="#282921" d="M1495.551,1195.731c0-7.574-6.141-13.715-13.713-13.715s-13.715,6.141-13.715,13.715
			c0,7.575,6.141,13.715,13.715,13.715C1489.41,1209.446,1495.551,1203.307,1495.551,1195.731"/>
		<path fill="#E6B660" d="M1490.123,1195.731c0-4.575-3.711-8.285-8.287-8.285s-8.287,3.71-8.287,8.285
			c0,4.576,3.711,8.287,8.287,8.287C1486.414,1204.019,1490.123,1200.308,1490.123,1195.731"/>
		<path fill="#B0762A" d="M1486.053,1195.731c0-2.327-1.887-4.214-4.215-4.214s-4.215,1.887-4.215,4.214
			c0,2.328,1.887,4.215,4.215,4.215S1486.053,1198.06,1486.053,1195.731"/>
	</g>
	<g>
		<path fill="#282921" d="M1550.781,1195.731c0-7.574-6.139-13.715-13.713-13.715c-7.576,0-13.715,6.141-13.715,13.715
			c0,7.575,6.139,13.715,13.715,13.715C1544.641,1209.446,1550.781,1203.307,1550.781,1195.731"/>
		<path fill="#E6B660" d="M1545.352,1195.731c0-4.575-3.709-8.286-8.285-8.286s-8.287,3.71-8.287,8.286
			c0,4.577,3.711,8.287,8.287,8.287S1545.352,1200.308,1545.352,1195.731"/>
		<path fill="#B0762A" d="M1541.281,1195.731c0-2.327-1.887-4.214-4.215-4.214s-4.213,1.887-4.213,4.214
			c0,2.328,1.885,4.215,4.213,4.215S1541.281,1198.06,1541.281,1195.731"/>
	</g>
	<rect x="1505.322" y="1188.815" fill="#604C1E" width="7.268" height="2.535"/>
	<rect x="1505.322" y="1195.561" fill="#604C1E" width="7.268" height="2.534"/>
	<polygon fill="#FFCB28" points="1490.572,1175.208 1488.744,1177.248 1500.93,1188.065 1500.787,1191.851 1502.359,1191.851 
		1502.359,1187.993 	"/>
	<polygon fill="#FFB300" points="1490.572,1175.208 1491,1173.564 1494.43,1169.851 1496.93,1169.851 1496.93,1178.851 
		1505.322,1187.637 1505.322,1192.029 1502.359,1191.851 1502.359,1187.993 	"/>
	<path fill="#A7792C" d="M1491.922,1171.639c0-1.243-1.006-2.25-2.25-2.25c-1.242,0-2.25,1.007-2.25,2.25
		c0,1.242,1.008,2.25,2.25,2.25C1490.916,1173.889,1491.922,1172.881,1491.922,1171.639"/>
	<path fill="#FFD54E" d="M1490.838,1171.639c0-0.644-0.521-1.165-1.166-1.165c-0.643,0-1.164,0.521-1.164,1.165
		c0,0.643,0.521,1.165,1.164,1.165C1490.316,1172.804,1490.838,1172.281,1490.838,1171.639"/>
	<path fill="#9A712A" d="M1479.541,1151.113c0-1.494-1.213-2.705-2.705-2.705c-1.494,0-2.705,1.211-2.705,2.705
		c0,1.495,1.211,2.706,2.705,2.706C1478.328,1153.819,1479.541,1152.608,1479.541,1151.113"/>
	<path fill="#FFD54E" d="M1478.229,1151.113c0-0.768-0.623-1.393-1.393-1.393c-0.768,0-1.391,0.626-1.391,1.393
		c0,0.77,0.623,1.393,1.391,1.393C1477.605,1152.506,1478.229,1151.883,1478.229,1151.113"/>
	<path fill="#9A712A" d="M1495.084,1140.667c0-1.494-1.211-2.705-2.705-2.705s-2.705,1.211-2.705,2.705
		c0,1.492,1.211,2.703,2.705,2.703C1493.873,1143.372,1495.084,1142.161,1495.084,1140.667"/>
	<path fill="#FFD54E" d="M1493.771,1140.667c0-0.769-0.625-1.393-1.393-1.393s-1.391,0.624-1.391,1.393
		c0,0.768,0.621,1.391,1.391,1.391C1493.146,1142.06,1493.771,1141.436,1493.771,1140.667"/>
	<rect x="1518.287" y="1149.35" fill="#735321" width="4.322" height="1.644"/>
	<rect x="1518.287" y="1148.422" fill="#B99456" width="4.322" height="0.928"/>
	<rect x="1526.344" y="1162.832" fill="#5C4F2E" width="21.836" height="1.608"/>
	<rect x="1538.752" y="1150.383" fill="#5D4137" width="3.645" height="12.449"/>
	<polygon fill="#5D4137" points="1543.732,1147.564 1543.732,1152.278 1538.752,1152.278 1538.752,1150.383 	"/>
	<path fill="#9A712A" d="M1467.707,1139.931c0-1.657-1.342-3-2.998-3c-1.654,0-3,1.343-3,3c0,1.656,1.346,3,3,3
		C1466.365,1142.931,1467.707,1141.587,1467.707,1139.931"/>
	<path fill="#FFD54E" d="M1466.252,1139.931c0-0.854-0.693-1.545-1.545-1.545c-0.854,0-1.547,0.691-1.547,1.545
		c0,0.853,0.693,1.544,1.547,1.544S1466.252,1140.783,1466.252,1139.931"/>
	<path fill="#282921" d="M1530.408,1178.109c0.852-0.325,1.734-0.59,2.643-0.788
		C1532.096,1177.51,1531.217,1177.776,1530.408,1178.109z"/>
	<path fill="#FFD54E" d="M1555.172,1164.439h-28.826l-19.963,14.554v2.357h6.049v16.746h5.955c0,0,0.004-1.673,0.004-2.531
		c0-0.627,0.031-1.247,0.09-1.857c0.707-7.158,5.453-13.125,11.928-15.599c0.809-0.333,1.688-0.6,2.645-0.788
		c1.066-0.214,2.232-0.328,3.502-0.328c1.627,0,3.1,0.109,4.43,0.307c5.094,1.087,9.42,4.251,12.047,8.562
		c0.494,0.812,0.928,1.664,1.295,2.55v0.785l0.309,0.004l6.584,0.08v-3.356h1.572v-17.632
		C1562.137,1167.862,1555.172,1164.439,1555.172,1164.439z"/>
	<rect x="1535.445" y="1168.291" fill="#5D4137" width="19.797" height="1.236"/>
	<rect x="1535.445" y="1170.025" fill="#5D4137" width="19.797" height="1.237"/>
	<rect x="1535.445" y="1171.759" fill="#5D4137" width="19.797" height="1.236"/>
	<polygon fill="#546E7A" points="1503.293,1178.737 1501.01,1168.737 1505.465,1153.208 1525.061,1153.208 1527.344,1175.43 
		1524.154,1178.737 	"/>
	<g>
		<path fill="#263238" d="M1524.502,1153.826l2.197,21.382l-2.809,2.91h-20.104l-2.141-9.363l4.283-14.929H1524.502
			 M1525.619,1152.59h-1.117h-18.572h-0.932l-0.256,0.897l-4.283,14.928l-0.088,0.308l0.07,0.311l2.143,9.366l0.219,0.961h0.986
			h20.104h0.525l0.365-0.377l2.809-2.911l0.398-0.412l-0.059-0.573l-2.195-21.382L1525.619,1152.59L1525.619,1152.59z"/>
	</g>
	<polygon fill="#455B65" points="1502.465,1172.327 1525.988,1168.291 1526.699,1175.208 1523.891,1178.118 1503.787,1178.118 	"/>
	<rect x="1504.365" y="1150.993" fill="#FFD54E" width="22.334" height="1.981"/>
	<rect x="1504.859" y="1179.356" fill="#546E7A" width="15.547" height="0.804"/>
	<rect x="1507.355" y="1182.793" fill="#546E7A" width="10.555" height="0.804"/>
	<rect x="1507.355" y="1186.229" fill="#546E7A" width="10.555" height="0.805"/>
	<rect x="1507.355" y="1189.667" fill="#546E7A" width="10.555" height="0.805"/>
	<rect x="1507.355" y="1193.104" fill="#546E7A" width="10.555" height="0.801"/>
	<rect x="1507.355" y="1196.541" fill="#546E7A" width="10.555" height="0.803"/>
	<rect x="1507.355" y="1179.758" fill="#546E7A" width="0.803" height="16.841"/>
	<rect x="1517.105" y="1179.758" fill="#546E7A" width="0.805" height="16.841"/>
	<rect x="1545.344" y="1173.493" fill="#5D4137" width="9.898" height="1.236"/>
</g>
<g>
	<polygon fill="#FFD54E" points="478.534,1176.467 505.774,1140.987 521.199,1134.139 579.711,1135.299 579.711,1139.843 
		522.915,1146.095 515.824,1149.582 484.714,1177.519 	"/>
	<g>
		
			<rect x="527.038" y="1129.917" transform="matrix(0.9989 -0.0461 0.0461 0.9989 -51.5442 26.7089)" fill="#B0BEC5" width="52.359" height="1.603"/>
	</g>
	<g>
		
			<rect x="526.446" y="1129.878" transform="matrix(0.9989 -0.0461 0.0461 0.9989 -51.5314 26.1224)" fill="#645537" width="29.281" height="2.805"/>
	</g>
	<g>
		<polygon fill="#B0BEC5" points="496.322,1182.244 501.743,1160.499 500.229,1159.976 494.808,1181.72 		"/>
	</g>
	<g>
		<polygon fill="#645537" points="496.828,1182.689 499.859,1170.529 497.209,1169.613 494.178,1181.773 		"/>
	</g>
	<rect x="467.909" y="1185.569" fill="#B0762A" width="10.624" height="6.015"/>
	<polygon fill="#FAA629" points="468.376,1194.791 478.534,1194.791 479.537,1192.386 467.375,1192.386 	"/>
	<polygon fill="#263238" points="491.366,1167.191 500.789,1176.614 500.789,1188.042 495.241,1193.589 474.124,1193.589 
		474.124,1188.042 474.124,1167.191 	"/>
	<g>
		
			<rect x="591.438" y="1130.559" transform="matrix(0.9847 -0.1741 0.1741 0.9847 -192.5219 120.8011)" fill="#B0BEC5" width="1.604" height="54.224"/>
	</g>
	<g>
		<polygon fill="#645537" points="595.26,1183.6 598.023,1183.111 597.003,1175.62 594.239,1176.108 		"/>
	</g>
	<path fill="#455B65" d="M513.991,1208.038h-74.963c-3.334,0-6.036-2.702-6.036-6.037c0-3.336,2.703-6.037,6.036-6.037h74.964
		c3.334,0,6.037,2.701,6.037,6.037C520.027,1205.335,517.324,1208.038,513.991,1208.038z"/>
	<rect x="450.467" y="1166.457" fill="#263238" width="15.437" height="5.918"/>
	<rect x="443.45" y="1191.584" fill="#FAA629" width="30.673" height="2.005"/>
	<polygon fill="#5D4137" points="472.92,1175.145 467.382,1169.605 449.062,1169.605 443.45,1175.145 	"/>
	<rect x="443.45" y="1175.145" fill="#FFD54E" width="29.47" height="16.44"/>
	<g>
		<polygon fill="#546E7A" points="497.729,1177.764 490.468,1170.503 484.548,1170.503 484.548,1184.533 497.729,1184.533 		"/>
		<rect x="476.73" y="1170.503" fill="#546E7A" width="5.514" height="14.03"/>
	</g>
	<defs>
		<filter id="Adobe_OpacityMaskFilter" filterUnits="userSpaceOnUse" x="476.73" y="1178.72" width="20.999" height="5.813">
			<feColorMatrix  type="matrix" values="1 0 0 0 0  0 1 0 0 0  0 0 1 0 0  0 0 0 1 0"/>
		</filter>
	</defs>
	<mask maskUnits="userSpaceOnUse" x="476.73" y="1178.72" width="20.999" height="5.813" id="SVGID_1_">
		<g filter="url(#Adobe_OpacityMaskFilter)">
			<g>
				<polygon fill="#546E7A" points="497.729,1177.764 490.468,1170.503 484.548,1170.503 484.548,1184.533 497.729,1184.533 				"/>
				<rect x="476.73" y="1170.503" fill="#546E7A" width="5.514" height="14.03"/>
			</g>
		</g>
	</mask>
	<polygon mask="url(#SVGID_1_)" fill="#455B65" points="497.729,1181.175 476.73,1178.72 476.73,1184.533 497.729,1184.533 	"/>
	<circle fill="#263238" stroke="#B0BEC5" stroke-width="0.7891" stroke-miterlimit="10" cx="438.349" cy="1202.853" r="3.618"/>
	<path fill="#263238" d="M431.818,1202c0,3.974,3.234,7.209,7.209,7.209h74.964c3.974,0,7.208-3.234,7.208-7.209
		s-3.234-7.209-7.208-7.209h-74.964C435.052,1194.791,431.818,1198.025,431.818,1202z M432.99,1202c0-3.335,2.703-6.037,6.038-6.037
		h74.964c3.334,0,6.037,2.702,6.037,6.037s-2.703,6.037-6.037,6.037h-74.964C435.693,1208.038,432.99,1205.335,432.99,1202z"/>
	<path fill="#9A712A" d="M576.742,1137.449c0-1.639,1.33-2.969,2.969-2.969s2.97,1.33,2.97,2.969c0,1.641-1.33,2.97-2.97,2.97
		S576.742,1139.09,576.742,1137.449"/>
	<path fill="#FFD54E" d="M578.182,1137.449c0-0.843,0.685-1.528,1.529-1.528c0.844,0,1.529,0.686,1.529,1.528
		c0,0.845-0.685,1.528-1.529,1.528C578.867,1138.978,578.182,1138.294,578.182,1137.449"/>
	<polygon fill="#FFCB28" points="575.206,1138.301 580.457,1124.548 586.958,1122.218 589.081,1127.511 586.958,1143.683 
		591.533,1181.355 586.958,1183.586 	"/>
	<polygon fill="#FFD54E" points="521.199,1134.139 526.846,1129.167 531.395,1129.167 532.801,1134.369 	"/>
	<polygon fill="#3E2723" points="586.867,1178.517 602.828,1184.565 598.621,1197.913 583.788,1201.941 583.767,1203.116 
		577.582,1205.283 577.75,1202.664 579.476,1201.969 586.743,1182.78 	"/>
	<rect x="445.755" y="1178.72" fill="#5D4137" width="5.813" height="12.863"/>
	<rect x="453.976" y="1188.042" fill="#FFFFFF" width="15.938" height="3.441"/>
	<path fill="#9A712A" d="M593.293,1175.62c0-1.114,0.902-2.017,2.015-2.017c1.114,0,2.016,0.903,2.016,2.017
		c0,1.112-0.902,2.014-2.016,2.014C594.195,1177.636,593.293,1176.733,593.293,1175.62"/>
	<path fill="#FFD54E" d="M594.271,1175.62c0-0.574,0.463-1.038,1.038-1.038c0.574,0,1.037,0.464,1.037,1.038
		c0,0.572-0.463,1.036-1.037,1.036C594.734,1176.656,594.271,1176.193,594.271,1175.62"/>
	<g>
		
			<rect x="588.391" y="1130.656" transform="matrix(0.9848 -0.1736 0.1736 0.9848 -189.7709 119.8021)" fill="#645537" width="2.806" height="27.603"/>
	</g>
	<path fill="#9A712A" d="M585.207,1131.243c0-1.112,0.902-2.014,2.014-2.014c1.113,0,2.015,0.901,2.015,2.014
		c0,1.113-0.902,2.015-2.015,2.015C586.109,1133.26,585.207,1132.356,585.207,1131.243"/>
	<path fill="#FFD54E" d="M586.185,1131.243c0-0.571,0.464-1.036,1.038-1.036c0.573,0,1.037,0.465,1.037,1.036
		c0,0.572-0.464,1.037-1.037,1.037C586.648,1132.28,586.185,1131.815,586.185,1131.243"/>
	<path fill="#9A712A" d="M576.428,1137.94c0-0.571,0.465-1.037,1.037-1.037c0.575,0,1.038,0.466,1.038,1.037
		c0,0.573-0.463,1.037-1.038,1.037C576.893,1138.978,576.428,1138.514,576.428,1137.94"/>
	<path fill="#9A712A" d="M529.411,1131.921c0-1.113,0.903-2.016,2.015-2.016c1.113,0,2.016,0.902,2.016,2.016
		c0,1.112-0.903,2.015-2.016,2.015C530.314,1133.936,529.411,1133.033,529.411,1131.921"/>
	<path fill="#FFD54E" d="M530.388,1131.921c0-0.572,0.464-1.037,1.038-1.037c0.574,0,1.037,0.465,1.037,1.037
		s-0.463,1.036-1.037,1.036C530.853,1132.957,530.388,1132.493,530.388,1131.921"/>
	<g>
		<circle fill="#B0BEC5" cx="508.016" cy="1204.019" r="3.618"/>
		<circle fill="#B0BEC5" cx="500.78" cy="1204.019" r="3.618"/>
		<circle fill="#B0BEC5" cx="493.545" cy="1204.019" r="3.618"/>
		<circle fill="#B0BEC5" cx="486.309" cy="1204.019" r="3.618"/>
		<circle fill="#B0BEC5" cx="479.073" cy="1204.019" r="3.618"/>
		<circle fill="#B0BEC5" cx="471.854" cy="1204.019" r="3.618"/>
		<circle fill="#B0BEC5" cx="464.618" cy="1204.019" r="3.618"/>
		<circle fill="#B0BEC5" cx="457.383" cy="1204.019" r="3.618"/>
		<circle fill="#B0BEC5" cx="450.148" cy="1204.019" r="3.618"/>
	</g>
	<polygon fill="#263238" stroke="#B0BEC5" stroke-width="0.7891" stroke-miterlimit="10" points="517.428,1199.409 
		517.428,1203.354 514.371,1206.411 443.45,1206.411 443.45,1199.409 	"/>
	<g>
		<rect x="482.569" y="1193.002" fill="#546E7A" width="11.638" height="0.602"/>
		<rect x="484.438" y="1195.574" fill="#546E7A" width="7.9" height="0.603"/>
		<rect x="484.438" y="1198.147" fill="#546E7A" width="7.9" height="0.602"/>
		<rect x="484.438" y="1200.719" fill="#546E7A" width="7.9" height="0.604"/>
		<rect x="484.438" y="1203.293" fill="#546E7A" width="7.9" height="0.602"/>
		<rect x="484.438" y="1205.866" fill="#546E7A" width="7.9" height="0.601"/>
		<rect x="491.736" y="1193.303" fill="#546E7A" width="0.601" height="12.605"/>
		<rect x="484.438" y="1193.303" fill="#546E7A" width="0.602" height="12.605"/>
	</g>
	<path fill="#9A712A" d="M498.772,1160.589c0-1.112,0.903-2.015,2.016-2.015c1.112,0,2.014,0.902,2.014,2.015
		c0,1.113-0.901,2.016-2.014,2.016S498.772,1161.702,498.772,1160.589"/>
	<path fill="#FFD54E" d="M499.75,1160.589c0-0.571,0.464-1.036,1.038-1.036c0.572,0,1.035,0.465,1.035,1.036
		c0,0.573-0.463,1.037-1.035,1.037C500.215,1161.626,499.75,1161.162,499.75,1160.589"/>
</g>
</svg>
